<?xml version="1.0" encoding="UTF-8" standalone="no"?>
<svg
   id="svg29"
   version="1.1"
   viewBox="0 0 1280 800"
   sodipodi:docname="rd-blog-logo.svg"
   inkscape:version="1.4.3 (0d15f75042, 2025-12-25)"
   xml:space="preserve"
   xmlns:inkscape="http://www.inkscape.org/namespaces/inkscape"
   xmlns:sodipodi="http://sodipodi.sourceforge.net/DTD/sodipodi-0.dtd"
   xmlns="http://www.w3.org/2000/svg"
   xmlns:svg="http://www.w3.org/2000/svg"><sodipodi:namedview
     id="namedview1"
     pagecolor="#ffffff"
     bordercolor="#000000"
     borderopacity="0.25"
     inkscape:showpageshadow="2"
     inkscape:pageopacity="0.0"
     inkscape:pagecheckerboard="0"
     inkscape:deskcolor="#d1d1d1"
     inkscape:zoom="0.7062229"
     inkscape:cx="520.37395"
     inkscape:cy="200.36167"
     inkscape:window-width="1920"
     inkscape:window-height="1008"
     inkscape:window-x="0"
     inkscape:window-y="0"
     inkscape:window-maximized="1"
     inkscape:current-layer="svg29" /><defs
     id="defs33"><linearGradient
       id="linearGradient21"
       x2="1"
       gradientTransform="matrix(282.08 0 0 150 0 75)"
       gradientUnits="userSpaceOnUse"><stop
         id="stop18"
         stop-color="#c957e6"
         offset="0" /><stop
         id="stop21"
         stop-color="#1a9fff"
         offset="0.56974316" /></linearGradient><linearGradient
       id="linearGradient10"
       inkscape:swatch="gradient"><stop
         style="stop-color:#000000;stop-opacity:1;"
         offset="0"
         id="stop10" /><stop
         style="stop-color:#000000;stop-opacity:0;"
         offset="1"
         id="stop11" /></linearGradient><linearGradient
       id="linearGradient8947"
       x1="44.404"
       x2="1324.4"
       y1="472.79"
       y2="472.79"
       gradientUnits="userSpaceOnUse"><stop
         id="stop8941"
         stop-color="#c957e6"
         offset="0" /><stop
         id="stop8943"
         stop-color="#1a9fff"
         offset="1" /></linearGradient><linearGradient
       id="_Linear1-3"
       x2="1"
       gradientTransform="matrix(282.08,0,0,150,0,75)"
       gradientUnits="userSpaceOnUse"><stop
         id="stop2-6"
         stop-color="#c957e6"
         offset="0" /><stop
         id="stop4-7"
         stop-color="#c957e6"
         offset=".01" /><stop
         id="stop6-5"
         stop-color="#1a9fff"
         offset=".9" /><stop
         id="stop8-3"
         stop-color="#1a9fff"
         offset="1" /></linearGradient></defs><linearGradient
     id="_Linear1"
     x2="1"
     gradientTransform="matrix(282.08 0 0 150 0 75)"
     gradientUnits="userSpaceOnUse"><stop
       id="stop2"
       stop-color="#c957e6"
       offset="0" /><stop
       id="stop4"
       stop-color="#c957e6"
       offset=".01" /><stop
       id="stop6"
       stop-color="#1a9fff"
       offset=".9" /><stop
       id="stop8"
       stop-color="#1a9fff"
       offset="1" /></linearGradient><g
     inkscape:groupmode="layer"
     id="layer2"
     inkscape:label="Powered by ES-DE" /><g
     id="DECK"
     transform="matrix(.47693 0 0 .47693 1.1014e-13 161.54)"
     style="stroke-width:4.24380936;stroke-dasharray:none"><path
       id="path20"
       d="m1650 476.92h78.84v204.66l270.54-204.8h117.86l-163.89 124.06 180.62 254.2-97.06-0.27-146.34-206.28-161.73 122.58v83.835h-78.84v-378zm-512.74 37.395c12.06-12.06 25.4-21.285 40.03-27.675 14.62-6.39 30.53-9.585 47.72-9.585h360.18v72.225h-360.18c-6.39 0-12.4 1.192-18.02 3.577-5.63 2.385-10.53 5.67-14.72 9.855-4.18 4.185-7.47 9.09-9.85 14.715-2.39 5.625-3.58 11.633-3.58 18.023v141.21c0 5.94 1.3 11.677 3.92 17.212 2.61 5.535 6.05 10.44 10.32 14.715 4.28 4.275 9.18 7.718 14.72 10.328 5.53 2.61 11.27 3.915 17.21 3.915h360.18v72.225h-360.18c-8.55 0-16.85-0.9-24.91-2.7-8.05-1.8-15.79-4.343-23.22-7.628-7.42-3.285-14.47-7.222-21.12-11.812-6.66-4.59-12.83-9.63-18.5-15.12-11.79-11.43-20.95-24.593-27.47-39.488-6.53-14.895-9.79-30.982-9.79-48.262v-127.98c0-17.28 3.19-33.21 9.59-47.79 6.39-14.58 15.61-27.9 27.67-39.96zm-587.26 297.4v-291.33c0-6.48 1.035-12.375 3.105-17.685s5.018-9.878 8.842-13.703c3.826-3.825 8.393-6.772 13.703-8.842s11.205-3.105 17.685-3.105h440.36v72.225h-404.72v76.545h355.59v72.225h-355.59v84.78h404.72v72.225h-440.36c-6.48 0-12.375-1.035-17.685-3.105s-9.877-5.018-13.703-8.843c-3.824-3.825-6.772-8.392-8.842-13.702s-3.105-11.205-3.105-17.685zm-102.07 151.02c-12.06 12.06-25.403 21.285-40.028 27.675s-30.532 9.585-47.722 9.585h-281.2v-72.225h281.2c6.39 0 12.397-1.192 18.022-3.578 5.625-2.384 10.53-5.67 14.715-9.855s7.47-9.089 9.855-14.715c2.385-5.624 3.578-11.632 3.578-18.022v-286.15c0-5.94-1.305-11.678-3.915-17.213s-6.053-10.44-10.328-14.715-9.18-7.717-14.715-10.327-11.272-3.915-17.212-3.915h-281.2v-72.225h281.2c8.55 0 16.852 0.9 24.907 2.7s15.795 4.342 23.22 7.627 14.468 7.223 21.128 11.813 12.825 9.63 18.495 15.12c11.79 11.43 20.947 24.592 27.472 39.487s9.788 30.983 9.788 48.263v272.92c0 17.28-3.195 33.21-9.585 47.79s-15.615 27.9-27.675 39.96z"
       fill="#fff"
       style="stroke:#000000;stroke-opacity:1;stroke-width:4.24380936;stroke-dasharray:none" /></g><g
     id="RETRO"
     transform="matrix(.47693 0 0 .47693 1.1014e-13 161.54)"
     style="stroke-width:4.24380936;stroke-dasharray:none;fill:#c957e6;fill-opacity:1"><g
       id="text750"
       transform="matrix(2.0967 0 0 2.0967 -93.103 -496.13)"
       fill="#008000"
       stroke-linecap="round"
       stroke-linejoin="round"
       stroke-width="2.315"
       style="paint-order:fill markers stroke;shape-inside:url(#rect752);white-space:pre;stroke-width:2.02404224;stroke-dasharray:none;fill:#c957e6;fill-opacity:1"
       aria-label="Powered by ES-DE Frontend"><path
         id="path8936"
         style="stroke:#000000;stroke-opacity:1;stroke-width:2.02404224;stroke-dasharray:none;fill:#c957e6;fill-opacity:1"
         d="m 569.02096,236.62328 v 34.44603 h 96.58209 v 145.82922 h 37.6668 V 271.06931 h 96.51178 v -34.44603 z m 282.98051,0 v 0.002 c -3.0905,0 -5.90322,0.49522 -8.43572,1.48246 -2.5325,0.9873 -4.71339,2.39218 -6.53529,4.21688 -1.8267,1.8238 -3.23245,4.00279 -4.21493,6.53529 -0.98719,2.5325 -1.48246,5.34327 -1.48246,8.43377 l 0.0606,159.61076 h 37.60625 v -70.95266 h 96.38287 l 57.94656,70.95266 h 46.6826 l -57.9524,-70.95266 h 0.711 c 6.052,0 11.5802,-0.70854 16.5784,-2.12504 5.0034,-1.4165 9.5015,-3.3817 13.4886,-5.8927 3.9968,-2.511 7.4823,-5.4823 10.4631,-8.9162 2.9856,-3.4344 5.4651,-7.18026 7.4396,-11.23656 1.9697,-4.0566 3.4543,-8.33702 4.4415,-12.84402 0.9873,-4.5073 1.4825,-9.05788 1.4825,-13.65068 0.038,-4.5074 -0.4299,-8.98101 -1.4219,-13.42411 -0.9825,-4.4428 -2.4651,-8.69251 -4.4396,-12.74831 -1.9745,-4.0569 -4.4549,-7.82422 -7.4357,-11.30102 -2.9854,-3.4769 -6.4806,-6.48136 -10.4963,-9.01386 -4.011,-2.5324 -8.5188,-4.52705 -13.5218,-5.98645 -4.998,-1.4594 -10.5243,-2.1895 -16.5765,-2.1895 z m -786.930483,0.006 0.002,0.002 c -3.0905,0 -5.903223,0.49326 -8.435723,1.4805 -2.5325,0.9872 -4.710593,2.39269 -6.535293,4.21689 -1.8238,1.8243 -3.229645,4.00279 -4.216885,6.53529 -0.98728,2.5325 -1.4805,5.34522 -1.4805,8.43572 l 0.06446,159.6088 h 37.600394 v -70.95265 h 96.384821 l 57.94848,70.95265 h 46.67871 l -57.94653,-70.95265 h 0.70705 c 6.052,0 11.57837,-0.70854 16.57847,-2.12504 5.0011,-1.4165 9.49902,-3.37975 13.49052,-5.89075 3.9915,-2.511 7.47845,-5.48426 10.46115,-8.91816 2.9837,-3.4344 5.46316,-7.17831 7.43766,-11.23461 1.9745,-4.0566 3.45426,-8.33897 4.4415,-12.84597 0.98728,-4.5073 1.4805,-9.05592 1.4805,-13.64872 0.0429,-4.5074 -0.42881,-8.98346 -1.41605,-13.42606 -0.9872,-4.4423 -2.467,-8.69241 -4.4415,-12.74831 -1.9745,-4.0559 -4.45395,-7.82227 -7.43765,-11.29907 -2.9829,-3.4769 -6.48056,-6.48136 -10.49436,-9.01386 -4.0129,-2.5324 -8.52067,-4.52705 -13.52177,-5.98645 -5,-1.4594 -10.52627,-2.1895 -16.57847,-2.1895 z m 262.308213,0.002 c -3.0905,0 -5.90127,0.49326 -8.43377,1.4805 -2.5325,0.9872 -4.7106,2.39269 -6.5353,4.21689 -1.8238,1.8243 -3.22963,4.00279 -4.21688,6.53529 -0.98728,2.5325 -1.48245,5.34522 -1.48245,8.43572 v 138.93845 0.004 c 0,3.0905 0.49521,5.90322 1.48245,8.43572 0.9872,2.5325 2.39308,4.70914 4.21688,6.53334 1.8248,1.8243 4.0028,3.2316 6.5353,4.21884 2.5325,0.98728 5.34327,1.4805 8.43377,1.4805 h 210.02 V 382.46422 H 344.36978 V 342.02978 H 513.95926 V 307.58375 H 344.36978 V 271.07713 H 537.3992 v -34.44604 z m 541.62263,34.43822 h 143.05967 c 2.8807,0 5.3798,0.57942 7.5021,1.73832 2.1271,1.159 3.8868,2.68181 5.2794,4.57041 1.3974,1.8886 2.4383,4.04564 3.125,6.47084 0.6868,2.4252 1.0201,4.90515 0.9961,7.43765 -0.019,2.5325 -0.3859,5.0105 -1.0918,7.4357 -0.7106,2.4252 -1.7692,4.58224 -3.1856,6.47084 -1.4213,1.8887 -3.1828,3.41151 -5.2813,4.57041 -2.108,1.15893 -4.5491,1.73832 -7.3439,1.73832 H 869.00183 Z m -786.930488,0.006 H 225.13097 c 2.8759,0 5.37741,0.57932 7.50211,1.73832 2.1247,1.159 3.88491,2.68181 5.27941,4.57041 1.3955,1.8886 2.43634,4.04564 3.12311,6.47084 0.68678,2.4252 1.01801,4.90515 0.99611,7.43765 -0.021,2.5325 -0.38553,5.0105 -1.09377,7.4357 -0.7082,2.4252 -1.77107,4.58224 -3.18757,6.47084 -1.4165,1.8887 -3.1762,3.41343 -5.2794,4.57236 -2.1032,1.15893 -4.55,1.73832 -7.34,1.73832 l -143.059628,-0.002 z" /></g></g><g
     id="Gamepad"
     transform="matrix(0.47693,0,0,0.47693,0.6978241,482.33988)"
     style="stroke-width:1.00015;stroke-dasharray:none"><path
       id="path23"
       d="m 282.08,100 c 0,27.596 -22.404,50 -50,50 H 50 C 22.404,150 0,127.596 0,100 V 50 C 0,22.404 22.404,0 50,0 h 182.08 c 27.596,0 50,22.404 50,50 z M 41.41,60.799 H 28.708 c -5.406,0 -9.794,4.389 -9.794,9.794 v 9.794 c 0,5.405 4.388,9.793 9.794,9.793 H 41.41 v 12.036 c 0,5.519 4.481,10 10,10 h 10 c 5.52,0 10,-4.481 10,-10 V 90.18 h 12.71 c 5.406,0 9.794,-4.388 9.794,-9.793 v -9.794 c 0,-5.405 -4.388,-9.794 -9.794,-9.794 H 71.41 V 48.763 c 0,-5.519 -4.48,-10 -10,-10 h -10 c -5.519,0 -10,4.481 -10,10 z m 146.75,-3.672 c 0,10.134 8.402,18.363 18.75,18.363 10.348,0 18.75,-8.229 18.75,-18.363 0,-10.135 -8.402,-18.364 -18.75,-18.364 -10.348,0 -18.75,8.229 -18.75,18.364 z m 37.5,36.726 c 0,10.135 8.402,18.363 18.75,18.363 10.348,0 18.75,-8.228 18.75,-18.363 0,-10.135 -8.402,-18.363 -18.75,-18.363 -10.348,0 -18.75,8.228 -18.75,18.363 z"
       fill="url(#_Linear1)"
       style="fill:url(#_Linear1-3);stroke:#000000;stroke-width:1.00015;stroke-dasharray:none;stroke-opacity:1" /></g><style
     type="text/css"
     id="style1">
	.st0{fill:#000000;}
</style><g
     id="g8"
     transform="matrix(0.45649592,0,0,0.35278489,1046.1787,160.6616)"
     style="fill:#c957e6;fill-opacity:1;stroke:#000000;stroke-width:5.45994;stroke-dasharray:none;stroke-opacity:1">
	<rect
   x="293.186"
   y="307.18399"
   class="st0"
   width="131.57201"
   height="112.986"
   id="rect1"
   style="fill:#c957e6;fill-opacity:1;stroke:#000000;stroke-width:5.45994;stroke-dasharray:none;stroke-opacity:1" />
	<rect
   x="87.242996"
   y="308.89301"
   class="st0"
   width="154.448"
   height="17.162001"
   id="rect2"
   style="fill:#c957e6;fill-opacity:1;stroke:#000000;stroke-width:5.45994;stroke-dasharray:none;stroke-opacity:1" />
	<rect
   x="87.242996"
   y="401.298"
   class="st0"
   width="154.448"
   height="17.162001"
   id="rect3"
   style="fill:#c957e6;fill-opacity:1;stroke:#000000;stroke-width:5.45994;stroke-dasharray:none;stroke-opacity:1" />
	<rect
   x="87.242996"
   y="355.10001"
   class="st0"
   width="154.448"
   height="17.162001"
   id="rect4"
   style="fill:#c957e6;fill-opacity:1;stroke:#000000;stroke-width:5.45994;stroke-dasharray:none;stroke-opacity:1" />
	<path
   class="st0"
   d="M 416.428,0.004 H 95.58 C 42.787,0.013 0.016,42.792 0,95.577 v 303.685 c 0.025,62.262 50.463,112.717 112.742,112.734 H 399.266 C 461.536,511.979 511.983,461.532 512,399.262 V 95.577 C 511.992,42.792 469.212,0.013 416.428,0.004 Z m 48.377,399.258 c -0.008,18.15 -7.308,34.424 -19.198,46.34 -11.916,11.891 -28.19,19.19 -46.34,19.198 H 112.742 C 94.592,464.791 78.309,457.492 66.394,445.602 54.502,433.686 47.212,417.412 47.196,399.262 V 118.696 h 417.61 v 280.566 z"
   id="path4"
   style="fill:#c957e6;fill-opacity:1;stroke:#000000;stroke-width:5.45994;stroke-dasharray:none;stroke-opacity:1" />
	<path
   class="st0"
   d="m 88.96,267.908 h 34.583 c 19.71,0 31.642,-8.581 31.642,-26.548 0,-10.852 -6.167,-18.368 -12.2,-20.648 v -0.268 c 6.034,-3.352 10.592,-9.519 10.592,-19.432 0,-14.489 -9.251,-24.268 -29.086,-24.268 H 88.96 c -0.796,0 -1.332,0.536 -1.332,1.34 v 88.475 c 0,0.812 0.536,1.349 1.332,1.349 z m 18.378,-74.413 c 0,-0.528 0.251,-0.804 0.804,-0.804 h 13.944 c 7.5,0 11.925,3.888 11.925,10.584 0,6.712 -4.425,10.734 -11.925,10.734 h -13.944 c -0.553,0 -0.804,-0.268 -0.804,-0.804 z m 0,36.46 c 0,-0.528 0.251,-0.795 0.804,-0.795 h 15 c 8.061,0 12.343,4.424 12.343,11.405 0,7.097 -4.282,11.396 -12.343,11.396 h -15 c -0.553,0 -0.804,-0.276 -0.804,-0.812 z"
   id="path5"
   style="fill:#c957e6;fill-opacity:1;stroke:#000000;stroke-width:5.45994;stroke-dasharray:none;stroke-opacity:1" />
	<path
   class="st0"
   d="m 181.516,267.908 h 59.404 c 0.796,0 1.332,-0.536 1.332,-1.349 v -14.874 c 0,-0.813 -0.536,-1.341 -1.332,-1.341 h -40.224 c -0.544,0 -0.804,-0.268 -0.804,-0.812 v -71.447 c 0,-0.804 -0.528,-1.34 -1.341,-1.34 h -17.036 c -0.805,0 -1.332,0.536 -1.332,1.34 v 88.475 c 0,0.811 0.528,1.348 1.333,1.348 z"
   id="path6"
   style="fill:#c957e6;fill-opacity:1;stroke:#000000;stroke-width:5.45994;stroke-dasharray:none;stroke-opacity:1" />
	<path
   class="st0"
   d="m 292.708,269.374 c 15.963,0 28.558,-7.366 33.251,-22.115 2.011,-6.301 2.539,-11.396 2.539,-24.938 0,-13.542 -0.528,-18.637 -2.539,-24.939 -4.693,-14.739 -17.288,-22.114 -33.251,-22.114 -15.956,0 -28.558,7.375 -33.243,22.114 -2.02,6.302 -2.556,11.397 -2.556,24.939 0,13.542 0.536,18.637 2.556,24.938 4.684,14.75 17.287,22.115 33.243,22.115 z m -14.347,-66.628 c 2.011,-6.301 6.847,-10.055 14.346,-10.055 7.508,0 12.335,3.754 14.346,10.055 1.073,3.226 1.474,7.634 1.474,19.576 0,11.924 -0.402,16.357 -1.474,19.567 -2.011,6.31 -6.838,10.072 -14.346,10.072 -7.5,0 -12.335,-3.763 -14.346,-10.072 -1.064,-3.21 -1.475,-7.643 -1.475,-19.567 0,-11.942 0.411,-16.35 1.475,-19.576 z"
   id="path7"
   style="fill:#c957e6;fill-opacity:1;stroke:#000000;stroke-width:5.45994;stroke-dasharray:none;stroke-opacity:1" />
	<path
   class="st0"
   d="m 387.961,269.374 c 16.081,0 28.685,-8.171 33.251,-22.794 1.6,-4.952 2.263,-12.46 2.263,-20.505 v -7.517 c 0,-0.788 -0.536,-1.333 -1.332,-1.333 h -31.366 c -0.813,0 -1.349,0.545 -1.349,1.333 v 12.888 c 0,0.796 0.536,1.332 1.349,1.332 h 12.326 c 0.536,0 0.805,0.277 0.805,0.805 0,3.879 -0.403,6.703 -1.073,8.991 -1.878,6.026 -7.777,9.386 -14.614,9.386 -7.91,0 -12.88,-3.763 -14.891,-10.072 -1.064,-3.21 -1.466,-7.643 -1.466,-19.567 0,-11.941 0.402,-16.223 1.466,-19.441 2.011,-6.302 6.847,-10.19 14.631,-10.19 7.5,0 12.05,3.218 15.678,9.385 0.269,0.67 0.939,0.939 1.886,0.67 l 14.338,-6.033 c 0.796,-0.402 0.947,-1.206 0.536,-2.019 -4.299,-10.995 -15.419,-19.425 -32.439,-19.425 -16.232,0 -28.835,7.375 -33.527,22.114 -2.012,6.302 -2.556,11.397 -2.556,24.939 0,13.542 0.545,18.637 2.556,24.938 4.693,14.75 17.297,22.115 33.528,22.115 z"
   id="path8"
   style="fill:#c957e6;fill-opacity:1;stroke:#000000;stroke-width:5.45994;stroke-dasharray:none;stroke-opacity:1" />
</g></svg>
