<?xml version="1.0" encoding="UTF-8" standalone="no"?>
<!-- Created with Inkscape (http://www.inkscape.org/) -->

<svg
   width="173.08426mm"
   height="13.912121mm"
   viewBox="0 0 173.08426 13.912121"
   version="1.1"
   id="svg6609"
   inkscape:version="1.2 (dc2aedaf03, 2022-05-15)"
   sodipodi:docname="logo_light.svg"
   xmlns:inkscape="http://www.inkscape.org/namespaces/inkscape"
   xmlns:sodipodi="http://sodipodi.sourceforge.net/DTD/sodipodi-0.dtd"
   xmlns="http://www.w3.org/2000/svg"
   xmlns:svg="http://www.w3.org/2000/svg">
  <sodipodi:namedview
     id="namedview6611"
     pagecolor="#ffffff"
     bordercolor="#666666"
     borderopacity="1.0"
     inkscape:showpageshadow="2"
     inkscape:pageopacity="0.0"
     inkscape:pagecheckerboard="0"
     inkscape:deskcolor="#d1d1d1"
     inkscape:document-units="mm"
     showgrid="false"
     inkscape:zoom="1.8761364"
     inkscape:cx="316.60811"
     inkscape:cy="-99.139913"
     inkscape:window-width="2560"
     inkscape:window-height="1377"
     inkscape:window-x="-8"
     inkscape:window-y="-8"
     inkscape:window-maximized="1"
     inkscape:current-layer="layer1" />
  <defs
     id="defs6606" />
  <g
     inkscape:label="Layer 1"
     inkscape:groupmode="layer"
     id="layer1"
     transform="translate(-18.945055,-44.129729)">
    <path
       id="path4406-3"
       style="fill:#7bb2f7;fill-opacity:1;fill-rule:evenodd;stroke:none;stroke-width:0.455408;stroke-linejoin:round;stroke-miterlimit:4;stroke-dasharray:none;stroke-opacity:1"
       d="m 81.073957,47.117967 c -2.33005,0.081 -4.67698,-0.0606 -7.00178,0.0711 -0.95362,0.20692 -1.5266,1.22409 -1.32216,2.15428 0.0431,1.93556 -0.0943,3.89663 0.1708,5.81487 0.56263,2.00899 2.83867,2.9602 4.77882,2.76121 1.795,0.12656 3.9186,-0.20731 4.92793,-1.88319 0.31339,-0.35665 0.30721,-0.97728 0.58163,-1.27575 2.04345,-0.49957 3.06407,-3.24047 1.75743,-4.92285 -0.41016,-0.63234 -1.10081,-1.0579 -1.77743,-1.2978 -0.15408,-0.97502 -1.20841,-1.4855 -2.11524,-1.42188 z m 1.76953,4.50781 c -0.53062,0.17088 -0.38788,-0.14783 0,0 z" />
    <path
       id="path4408-0"
       style="font-weight:bold;font-size:16.1771px;line-height:125%;font-family:'Titan One';-inkscape-font-specification:'Titan One Bold';letter-spacing:-0.0568725px;word-spacing:-0.947876px;fill:#7bb2f7;fill-opacity:1;stroke:none;stroke-width:0.5;stroke-dasharray:none"
       d="m 26.30443,44.297657 c -1.293376,0.11905 -2.748855,-0.018 -3.878866,0.69572 -0.716827,0.99332 -0.790367,2.27345 -1.244318,3.3868 -0.755049,2.54426 -1.699698,5.04678 -2.236191,7.64404 0.02732,1.27314 1.452541,1.7035 2.502135,1.78801 1.359929,0.0755 2.975929,0.31875 4.093568,-0.63957 0.257286,-0.63854 0.392551,-0.0962 0.780245,0.13218 1.18808,0.73982 2.676333,0.54634 4.010771,0.55532 0.980253,-0.0132 2.231625,-0.51287 2.316406,-1.61719 -0.234736,-1.63901 -0.89489,-3.18089 -1.306984,-4.78002 -0.668313,-2.13476 -1.198101,-4.34365 -2.014899,-6.41256 -0.754964,-0.86055 -1.989041,-0.76175 -3.021867,-0.75273 z" />
    <path
       id="path4410-2"
       style="font-weight:bold;font-size:12.1327px;line-height:125%;font-family:'Titan One';-inkscape-font-specification:'Titan One Bold';letter-spacing:-0.0568725px;word-spacing:-0.947876px;fill:#7bb2f7;fill-opacity:1;stroke:none;stroke-width:0.5;stroke-dasharray:none"
       d="m 34.351305,47.164847 c -1.052448,0.003 -2.417021,-0.17206 -3.027344,0.9121 -0.399379,0.85492 -0.07869,1.84244 -0.177956,2.75312 0.02212,2.03608 -0.08205,4.10683 0.08077,6.121 0.49752,1.10499 1.850053,0.95083 2.845759,0.93476 2.00863,-0.0158 4.355989,0.26952 5.937147,-1.24997 1.497719,-1.67816 1.385671,-4.13361 1.086606,-6.2173 -0.278655,-1.64344 -1.689452,-3.00292 -3.370302,-3.12404 -1.115259,-0.18403 -2.248971,-0.14773 -3.374683,-0.12968 z" />
    <path
       id="path4412-1"
       style="font-weight:bold;font-size:12.1327px;line-height:125%;font-family:'Titan One';-inkscape-font-specification:'Titan One Bold';letter-spacing:-0.0568725px;word-spacing:-0.947876px;fill:#7bb2f7;fill-opacity:1;stroke:none;stroke-width:0.5;stroke-dasharray:none"
       d="m 42.501697,47.168747 c -1.17103,0.10471 -2.67815,0.41601 -3.115236,1.65273 -0.02309,1.14661 0.687844,2.1341 0.98585,3.21196 0.678367,1.72052 1.2199,3.51208 1.971186,5.19195 0.83833,0.99386 2.26586,0.61169 3.39158,0.5811 0.87248,-0.0692 1.64783,-0.72099 1.7444,-1.6079 0.8407,-2.46456 1.78382,-4.89254 2.59839,-7.36578 -0.0978,-1.24425 -1.46152,-1.74895 -2.54603,-1.6722 -0.92984,0.0488 -1.94332,0.0999 -2.74108,0.63314 -0.59408,-0.58207 -1.49853,-0.66861 -2.28906,-0.625 z" />
    <path
       id="path4414-6"
       style="font-weight:bold;font-size:12.1327px;line-height:125%;font-family:'Titan One';-inkscape-font-specification:'Titan One Bold';letter-spacing:-0.0568725px;word-spacing:-0.947876px;fill:#7bb2f7;fill-opacity:1;stroke:none;stroke-width:0.5;stroke-dasharray:none"
       d="m 55.241927,47.135547 c -1.81703,0.10042 -3.65925,-0.0911 -5.46679,0.10742 -0.88101,0.20365 -1.48471,1.09733 -1.29842,1.98906 0.0131,2.54991 -0.0339,5.10018 0.0348,7.64961 0.44573,1.06282 1.72082,1.0798 2.69531,0.99414 1.63124,0.005 3.26747,0.0716 4.89649,-0.0449 1.1911,-0.63312 1.0473,-2.16634 1.01562,-3.30859 -0.008,-0.47906 -0.42157,-0.86699 -0.58292,-1.20828 0.14802,-0.64529 0.16144,-1.32814 0.005,-1.97336 0.65069,-0.99306 0.56733,-2.30353 0.32813,-3.41016 -0.25734,-0.63068 -1.00287,-0.83518 -1.62697,-0.79494 z" />
    <path
       id="path4416-1"
       style="font-weight:bold;font-size:12.1327px;line-height:125%;font-family:'Titan One';-inkscape-font-specification:'Titan One Bold';letter-spacing:-0.0568725px;word-spacing:-0.947876px;fill:#7bb2f7;fill-opacity:1;stroke:none;stroke-width:0.5;stroke-dasharray:none"
       d="m 59.320057,47.162887 c -1.22202,0.0257 -2.84434,0.15971 -3.41151,1.43606 -0.17576,1.09332 -0.0312,2.25316 -0.0894,3.37092 0.0171,1.66366 -0.0599,3.36366 0.0893,5.0035 0.57135,1.15432 2.02846,0.91743 3.08304,0.87367 0.60111,-0.0554 1.27668,-0.0918 1.78759,-0.37946 0.60465,0.53402 1.52385,0.37359 2.28234,0.4189 0.87014,-0.11211 1.97666,-0.008 2.58485,-0.75288 0.47816,-0.80029 0.11138,-1.77748 0.2251,-2.65469 -0.0407,-2.02933 0.1,-4.08309 -0.0893,-6.09624 -0.4251,-1.29432 -2.02751,-1.35636 -3.14945,-1.13384 -0.59412,0.13044 -1.21564,0.2759 -1.69727,0.66992 -0.36926,-0.50734 -0.98119,-0.82632 -1.61523,-0.75586 z" />
    <path
       id="path4418-5"
       style="font-weight:bold;font-size:12.1327px;line-height:125%;font-family:'Titan One';-inkscape-font-specification:'Titan One Bold';letter-spacing:-0.0568725px;word-spacing:-0.947876px;fill:#7bb2f7;fill-opacity:1;stroke:none;stroke-width:0.5;stroke-dasharray:none"
       d="m 72.099347,47.137497 c -2.10027,0.0782 -4.22,-0.0334 -6.3164,0.0527 -1.28804,0.36276 -1.36563,1.92895 -1.34929,3.03187 -0.0661,0.94087 0.3778,2.24605 1.52702,2.15758 0.69471,-0.24151 0.46211,0.38645 0.48275,0.87539 0.0328,1.25647 -0.0931,2.55352 0.0904,3.78326 0.59745,1.11846 2.01127,0.8327 3.05161,0.81629 0.87789,-0.0287 2.06094,-0.0858 2.35768,-1.10579 0.008,-1.44592 -0.0157,-2.92325 0.0117,-4.34961 0.83293,0.0892 1.73717,-0.42593 1.80574,-1.31965 0.25713,-1.13666 0.38055,-2.46807 -0.24324,-3.4909 -0.36671,-0.37597 -0.91226,-0.47751 -1.41797,-0.45117 z" />
    <path
       id="path4420-7"
       style="font-weight:bold;font-size:12.1327px;line-height:125%;font-family:'Titan One';-inkscape-font-specification:'Titan One Bold';letter-spacing:-0.0568725px;word-spacing:-0.947876px;fill:#7bb2f7;fill-opacity:1;stroke:none;stroke-width:0.5;stroke-dasharray:none"
       d="m 87.435287,47.045697 c -1.08692,0.0787 -2.52379,-10e-4 -3.13556,1.08382 -0.30557,1.32754 -0.0459,2.70283 -0.13092,4.05134 0.0277,1.59432 -0.0887,3.22618 0.0873,4.79642 0.57717,1.15009 2.02547,0.90887 3.08154,0.87568 0.59895,-0.0235 1.24658,-0.14992 1.76956,-0.35022 0.94835,0.64294 2.17518,0.32218 3.24414,0.31445 0.9578,-0.013 2.16364,-0.67651 1.98891,-1.77788 -0.13889,-0.88898 -0.63708,-1.65761 -1.08656,-2.41743 1.22685,-1.5897 1.26951,-4.17694 -0.2168,-5.61328 -1.55042,-1.27744 -3.74962,-0.89597 -5.60157,-0.9629 z" />
    <path
       id="path4422-3"
       style="font-weight:bold;font-size:12.1327px;line-height:125%;font-family:'Titan One';-inkscape-font-specification:'Titan One Bold';letter-spacing:-0.0568725px;word-spacing:-0.947876px;fill:#7bb2f7;fill-opacity:1;stroke:none;stroke-width:0.5;stroke-dasharray:none"
       d="m 99.562247,47.135547 c -1.81703,0.10042 -3.65925,-0.0911 -5.4668,0.10742 -0.88101,0.20365 -1.4847,1.09733 -1.29841,1.98906 0.0131,2.54991 -0.0339,5.10018 0.0347,7.64961 0.44573,1.06282 1.72082,1.0798 2.69531,0.99414 1.63125,0.005 3.26747,0.0716 4.896493,-0.0449 1.16221,-0.60653 1.03843,-2.08662 1.02697,-3.19714 -0.0429,-0.46335 -0.24146,-0.9366 -0.61877,-1.22278 0.17451,-0.67393 0.18766,-1.39196 0.0293,-2.07031 0.65068,-0.99306 0.56732,-2.30353 0.32812,-3.41016 -0.25732,-0.63065 -1.00285,-0.83516 -1.626953,-0.79492 z" />
    <path
       id="path4424-4"
       style="font-weight:bold;font-size:16.1771px;line-height:125%;font-family:'Titan One';-inkscape-font-specification:'Titan One Bold';letter-spacing:-0.0568725px;word-spacing:-0.947876px;fill:#7bb2f7;fill-opacity:1;stroke:none;stroke-width:0.5;stroke-dasharray:none"
       d="m 108.57786,44.133597 c -2.64048,-0.002 -5.47868,1.51182 -6.23594,4.17764 -0.74636,2.27885 -0.59699,4.8072 0.17345,7.05673 0.70055,1.72891 2.5683,2.87567 4.43193,2.64425 0.51232,-0.047 1.014,-0.22814 1.44502,-0.50753 0.99007,0.62089 2.23197,0.27366 3.32844,0.26757 0.79574,-0.0448 1.87368,-0.27797 2.1325,-1.11132 0.10863,-1.72786 0.088,-3.47253 0.0137,-5.19727 -0.13266,-0.73767 -0.85233,-1.26058 -1.48047,-1.44726 1.1019,-0.87487 1.22617,-2.44993 1.17382,-3.75196 -0.25082,-1.40853 -1.76685,-2.07605 -3.06835,-2.07226 -0.63638,-0.0595 -1.27529,-0.0695 -1.91408,-0.0586 z m 0.46486,5.68945 c 0.19164,0.0284 1.3335,0.17313 0.69094,0.26226 -0.40367,0.09 -0.78451,0.25932 -1.14212,0.4643 0.0384,-0.26318 0.0386,-0.80658 0.45118,-0.72656 z" />
    <path
       id="path4426-1"
       style="font-weight:bold;font-size:12.1327px;line-height:125%;font-family:'Titan One';-inkscape-font-specification:'Titan One Bold';letter-spacing:-0.0568725px;word-spacing:-0.947876px;fill:#7bb2f7;fill-opacity:1;stroke:none;stroke-width:0.5;stroke-dasharray:none"
       d="m 118.28295,47.172657 c -1.04921,0.10303 -2.1945,-0.067 -3.1289,0.52734 -0.68256,0.49543 -0.61033,1.47638 -0.94434,2.19217 -0.64043,2.13267 -1.43693,4.25445 -1.86327,6.42914 0.15577,1.23705 1.5748,1.52135 2.60415,1.55243 0.95935,0.0189 2.12957,0.12282 2.83431,-0.65421 0.99066,0.85525 2.41972,0.65065 3.63086,0.62891 0.93562,-0.0379 2.04849,-0.86948 1.69609,-1.89516 -0.78226,-2.69347 -1.5523,-5.38952 -2.42851,-8.05406 -0.58467,-0.71523 -1.54554,-0.78464 -2.40039,-0.72656 z" />
    <path
       id="path4428-5"
       style="font-weight:bold;font-size:12.1327px;line-height:125%;font-family:'Titan One';-inkscape-font-specification:'Titan One Bold';letter-spacing:-0.0568725px;word-spacing:-0.947876px;fill:#7bb2f7;fill-opacity:1;stroke:none;stroke-width:0.5;stroke-dasharray:none"
       d="m 124.5642,47.170697 c -1.0551,0.085 -2.38519,0.15935 -2.91601,1.25 -0.0616,2.7603 -0.0597,5.52872 -0.0137,8.28516 0.20336,1.09344 1.46494,1.26536 2.38202,1.18658 0.84826,-0.007 1.75752,0.004 2.52227,-0.35455 0.64958,0.23995 1.38784,0.0646 2.00586,0 1.00445,0.62323 2.24993,0.27202 3.35546,0.24024 0.82769,-0.0367 1.71083,-0.68612 1.53326,-1.59805 -0.0301,-2.60924 0.0707,-5.23923 -0.0606,-7.83555 -0.45991,-1.24221 -2.02227,-1.22125 -3.12132,-1.15582 -0.98708,0.0763 -2.10761,0.30521 -2.71267,1.16949 -0.49162,-1.14593 -1.90033,-1.23951 -2.97461,-1.1875 z" />
    <path
       id="path4430-6"
       style="font-weight:bold;font-size:12.1327px;line-height:125%;font-family:'Titan One';-inkscape-font-specification:'Titan One Bold';letter-spacing:-0.0568725px;word-spacing:-0.947876px;fill:#7bb2f7;fill-opacity:1;stroke:none;stroke-width:0.5;stroke-dasharray:none"
       d="m 139.12083,47.133597 c -1.85838,0.10527 -3.74405,-0.0908 -5.59375,0.10937 -0.87554,0.20292 -1.4848,1.09124 -1.29646,1.9793 0.0125,2.5538 -0.0314,5.1079 0.0308,7.66133 0.45033,1.05954 1.72187,1.0785 2.69726,0.99218 1.6325,0.002 3.27063,0.0791 4.90039,-0.0488 1.16145,-0.60533 1.03945,-2.08921 1.02216,-3.199 -0.0448,-0.46103 -0.23906,-0.93347 -0.61786,-1.21507 0.17404,-0.67303 0.19564,-1.39159 0.0293,-2.06836 0.64056,-0.95308 0.54364,-2.20208 0.3789,-3.28125 -0.20947,-0.63653 -0.90601,-0.9939 -1.55078,-0.92968 z" />
    <path
       id="path4432-2"
       style="font-weight:bold;font-size:16.1771px;line-height:125%;font-family:'Titan One';-inkscape-font-specification:'Titan One Bold';letter-spacing:-0.0568725px;word-spacing:-0.947876px;fill:#7bb2f7;fill-opacity:1;stroke:none;stroke-width:0.5;stroke-dasharray:none"
       d="m 146.06224,44.155077 c -1.91739,0.093 -3.9394,1.28103 -4.32812,3.2793 -0.38798,1.52662 -0.0336,3.30332 1.14649,4.39843 -1.31975,0.38781 -1.4303,1.97603 -1.62801,3.11114 -0.20414,0.93358 0.21146,2.03134 1.20475,2.28445 2.06817,0.85268 4.38547,0.91708 6.5834,0.68449 1.82464,-0.25463 3.61782,-1.50587 3.96101,-3.40589 0.37933,-1.65898 -0.24933,-3.53816 -1.63092,-4.557 1.0064,-0.68344 1.26777,-2.00873 1.48543,-3.12695 0.17527,-0.88399 -0.37697,-1.77487 -1.25105,-1.9961 -1.75082,-0.7071 -3.68515,-0.70974 -5.54298,-0.67187 z" />
    <path
       id="path4434-8"
       style="font-weight:bold;font-size:12.1327px;line-height:125%;font-family:'Titan One';-inkscape-font-specification:'Titan One Bold';letter-spacing:-0.0568725px;word-spacing:-0.947876px;fill:#7bb2f7;fill-opacity:1;stroke:none;stroke-width:0.5;stroke-dasharray:none"
       d="m 159.25169,47.137497 c -2.10027,0.0782 -4.22,-0.0334 -6.3164,0.0527 -1.28803,0.36276 -1.36563,1.92895 -1.3493,3.03187 -0.0661,0.94087 0.37782,2.24605 1.52703,2.15758 0.69471,-0.24151 0.46211,0.38645 0.48276,0.87539 0.0333,1.25674 -0.0942,2.55559 0.0913,3.78461 0.59481,1.1158 2.00419,0.82926 3.04087,0.81661 0.87866,-0.0283 2.06772,-0.0849 2.36748,-1.10746 0.008,-1.44592 -0.0157,-2.92325 0.0117,-4.34961 0.83293,0.0892 1.73717,-0.42593 1.80574,-1.31965 0.25713,-1.13666 0.38055,-2.46807 -0.24324,-3.4909 -0.36671,-0.37597 -0.91227,-0.47751 -1.41797,-0.45117 z" />
    <path
       id="path4436-5"
       style="font-weight:bold;font-size:12.1327px;line-height:125%;font-family:'Titan One';-inkscape-font-specification:'Titan One Bold';letter-spacing:-0.0568725px;word-spacing:-0.947876px;fill:#7bb2f7;fill-opacity:1;stroke:none;stroke-width:0.5;stroke-dasharray:none"
       d="m 167.11888,47.145307 c -0.82152,0.0249 -1.63824,0.25826 -2.3457,0.66993 -0.96767,-1.00584 -2.5539,-0.67758 -3.75391,-0.36329 -0.9012,0.25214 -1.5499,1.1521 -1.34576,2.09648 0.0435,1.85962 -0.19134,3.76367 0.22271,5.59103 0.58494,1.82129 2.51789,2.85414 4.35547,2.83984 1.94017,0.14821 4.25311,-0.56519 5.00012,-2.53979 0.69017,-1.88088 0.2184,-3.9173 0.37191,-5.86705 0.15737,-1.01269 -0.33855,-2.25919 -1.49506,-2.34121 -0.33417,-0.0629 -0.66973,-0.0929 -1.00977,-0.0859 z" />
    <path
       id="path4438-6"
       style="font-weight:bold;font-size:12.1327px;line-height:125%;font-family:'Titan One';-inkscape-font-specification:'Titan One Bold';letter-spacing:-0.0568725px;word-spacing:-0.947876px;fill:#7bb2f7;fill-opacity:1;stroke:none;stroke-width:0.5;stroke-dasharray:none"
       d="m 171.62279,47.164847 c -1.05266,0.003 -2.41436,-0.1714 -3.02735,0.91015 -0.39868,0.85594 -0.0791,1.84377 -0.17795,2.75507 0.0221,2.03608 -0.0821,4.10683 0.0808,6.121 0.49752,1.10499 1.85005,0.95083 2.84576,0.93476 2.00863,-0.0158 4.35599,0.26952 5.93715,-1.24997 1.49885,-1.67807 1.3837,-4.13356 1.0866,-6.2173 -0.27865,-1.64344 -1.68945,-3.00292 -3.3703,-3.12404 -1.1158,-0.18078 -2.24868,-0.14978 -3.37468,-0.12968 z" />
    <path
       id="path4440-2"
       style="font-weight:bold;font-size:12.1327px;line-height:125%;font-family:'Titan One';-inkscape-font-specification:'Titan One Bold';letter-spacing:-0.0568725px;word-spacing:-0.947876px;fill:#7bb2f7;fill-opacity:1;stroke:none;stroke-width:0.5;stroke-dasharray:none"
       d="m 180.09544,47.162887 c -1.09114,0.12008 -2.57495,0.42162 -2.84961,1.66992 0.005,2.69133 -0.0924,5.40347 0.0449,8.08204 0.38283,1.11347 1.74117,0.99946 2.68775,0.96147 0.89935,-0.0492 2.09876,0.009 2.64176,-0.82233 0.2505,-1.83127 0.0297,-3.68778 0.10894,-5.53014 -0.0162,-1.08506 0.0645,-2.19523 -0.0927,-3.2633 -0.3921,-1.0106 -1.59256,-1.18088 -2.54102,-1.09766 z" />
    <path
       id="path4442-3"
       style="font-weight:bold;font-size:12.1327px;line-height:125%;font-family:'Titan One';-inkscape-font-specification:'Titan One Bold';letter-spacing:-0.0568725px;word-spacing:-0.947876px;fill:#7bb2f7;fill-opacity:1;stroke:none;stroke-width:0.5;stroke-dasharray:none"
       d="m 186.20091,47.053517 c -2.22367,0.0337 -4.46501,1.66586 -4.71353,3.96524 -0.32887,1.95282 -0.16994,4.27059 1.3112,5.73984 1.63531,1.43934 4.07948,1.48728 6.07191,0.89003 1.90145,-0.66416 3.13455,-2.6259 3.1234,-4.61074 0.17215,-1.92041 -0.24643,-4.23523 -2.06902,-5.26486 -1.11648,-0.65393 -2.45591,-0.77601 -3.72396,-0.71951 z" />
    <path
       id="path4444-8"
       style="fill:#7bb2f7;fill-opacity:1;fill-rule:evenodd;stroke:none;stroke-width:0.455408;stroke-linejoin:round;stroke-miterlimit:4;stroke-dasharray:none;stroke-opacity:1"
       d="m 81.073957,47.117967 c -2.33005,0.081 -4.67698,-0.0606 -7.00178,0.0711 -0.95362,0.20692 -1.5266,1.22409 -1.32216,2.15428 0.0431,1.93556 -0.0943,3.89663 0.1708,5.81487 0.56263,2.00899 2.83867,2.9602 4.77882,2.76121 1.795,0.12656 3.9186,-0.20731 4.92793,-1.88319 0.31339,-0.35665 0.30721,-0.97728 0.58163,-1.27575 2.04345,-0.49957 3.06407,-3.24047 1.75743,-4.92285 -0.41016,-0.63234 -1.10081,-1.0579 -1.77743,-1.2978 -0.15408,-0.97502 -1.20841,-1.4855 -2.11524,-1.42188 z"
       sodipodi:nodetypes="cccccccccc" />
    <path
       id="path4330-1"
       style="fill:#ffffff;fill-opacity:1;fill-rule:evenodd;stroke:none;stroke-width:0.455408;stroke-linejoin:round;stroke-miterlimit:4;stroke-dasharray:none;stroke-opacity:1"
       d="m 74.603357,48.195887 c -0.43855,0 -0.79156,0.22481 -0.79156,0.5043 -0.0395,1.82784 0.037,3.82777 0.0325,5.5637 0,1.43356 1.3982,2.5877 3.13597,2.59021 0.002,10e-6 0.003,3.9e-4 0.005,3.9e-4 h 3.9e-4 1.96825 c 0.002,0 0.004,-3.7e-4 0.006,-3.9e-4 1.73778,-0.003 3.13597,-1.15665 3.13597,-2.59021 -3.8e-4,-0.16118 0.002,-0.28499 0.003,-0.45036 0.25194,0 0.16977,-0.003 0.25194,0 1.18195,-4e-5 2.14005,-0.95432 2.14008,-2.13127 -3e-5,-1.17694 -0.95813,-2.17777 -2.14008,-2.17781 l -0.21629,0.003 c -0.001,-0.27025 -5.8e-4,-0.54325 -0.006,-0.80762 0,-0.2795 -0.35265,-0.5043 -0.79119,-0.5043 z m 7.72731,2.35003 c 0.0694,-0.003 0.14068,0.0109 0.19985,0.0153 0.70343,0.0816 1.13656,0.87882 0.88047,1.52148 -0.16465,0.51832 -0.71618,0.77428 -1.22302,0.70863 0.007,-0.73754 0.009,-1.48125 0.0101,-2.23683 0.045,-0.006 0.0916,-0.006 0.13263,-0.009 z"
       sodipodi:nodetypes="sccsscsccccccccsscccccc" />
    <path
       id="path4446-2"
       style="font-weight:bold;font-size:16.1771px;line-height:125%;font-family:'Titan One';-inkscape-font-specification:'Titan One Bold';letter-spacing:-0.0568725px;word-spacing:-0.947876px;fill:#7bb2f7;fill-opacity:1;stroke:none;stroke-width:0.5;stroke-dasharray:none"
       d="m 26.30443,44.297657 c -1.293376,0.11905 -2.748855,-0.018 -3.878866,0.69572 -0.716827,0.99332 -0.790367,2.27345 -1.244318,3.3868 -0.755049,2.54426 -1.699698,5.04678 -2.236191,7.64404 0.02732,1.27314 1.452541,1.7035 2.502135,1.78801 1.359929,0.0755 2.975929,0.31875 4.093568,-0.63957 0.257286,-0.63854 0.392551,-0.0962 0.780245,0.13218 1.18808,0.73982 2.676333,0.54634 4.010771,0.55532 0.980253,-0.0132 2.231625,-0.51287 2.316406,-1.61719 -0.234736,-1.63901 -0.89489,-3.18089 -1.306984,-4.78002 -0.668313,-2.13476 -1.198101,-4.34365 -2.014899,-6.41256 -0.754964,-0.86055 -1.989041,-0.76175 -3.021867,-0.75273 z" />
    <path
       d="m 24.946697,56.006987 q -0.03235,0.46914 -0.50149,0.64709 -0.452959,0.17795 -1.650064,0.17795 -1.197105,0 -2.00596,-0.21031 -0.792678,-0.22648 -0.792678,-0.5662 0,-0.38825 1.439762,-4.95019 1.439762,-4.57812 1.650064,-5.27373 0.08089,-0.2103 1.294168,-0.33972 1.229459,-0.1456 2.62069,-0.1456 1.407408,0 1.553001,0.48532 3.057472,10.15922 3.057472,10.32099 0,0.16177 -0.194125,0.32354 -0.452959,0.3559 -1.795658,0.3559 -2.863347,0 -2.928055,-0.67944 l -0.11324,-1.05151 h -1.553001 z m 1.294168,-3.97956 -0.242656,-2.91188 h -0.355896 l -0.275011,2.91188 z"
       style="font-weight:bold;font-size:16.1771px;line-height:125%;font-family:'Titan One';-inkscape-font-specification:'Titan One Bold';letter-spacing:-0.0568725px;word-spacing:-0.947876px;fill:#ffffff;stroke:none;stroke-width:0.5;stroke-dasharray:none"
       id="path4332-2" />
    <path
       id="path4448-2"
       style="font-weight:bold;font-size:12.1327px;line-height:125%;font-family:'Titan One';-inkscape-font-specification:'Titan One Bold';letter-spacing:-0.0568725px;word-spacing:-0.947876px;fill:#7bb2f7;fill-opacity:1;stroke:none;stroke-width:0.5;stroke-dasharray:none"
       d="m 34.351305,47.164847 c -1.052448,0.003 -2.417021,-0.17206 -3.027344,0.9121 -0.399379,0.85492 -0.07869,1.84244 -0.177956,2.75312 0.02212,2.03608 -0.08205,4.10683 0.08077,6.121 0.49752,1.10499 1.850053,0.95083 2.845759,0.93476 2.00863,-0.0158 4.355989,0.26952 5.937147,-1.24997 1.497719,-1.67816 1.385671,-4.13361 1.086606,-6.2173 -0.278655,-1.64344 -1.689452,-3.00292 -3.370302,-3.12404 -1.115259,-0.18403 -2.248971,-0.14773 -3.374683,-0.12968 z" />
    <path
       d="m 36.072214,56.832027 h -2.863317 q -0.594503,0 -0.800758,-0.0849 -0.206256,-0.0849 -0.206256,-0.27906 v -7.65573 q 0,-0.31545 0.266919,-0.44891 0.266919,-0.14559 0.922085,-0.14559 h 2.729858 q 2.329478,0 3.215165,0.92208 0.885687,0.90996 0.885687,3.32436 0,2.41441 -0.922085,3.39716 -0.922085,0.97061 -3.227298,0.97062 z m -0.09706,-6.80645 q -0.291184,0 -0.388246,0.0485 v 4.90161 l 0.461043,0.0485 q 0.363981,0 0.545971,-0.58237 0.194123,-0.58237 0.194123,-2.01403 0,-1.43165 -0.194123,-1.91696 -0.194123,-0.48531 -0.618768,-0.48531 z"
       style="font-weight:bold;font-size:12.1327px;line-height:125%;font-family:'Titan One';-inkscape-font-specification:'Titan One Bold';letter-spacing:-0.0568725px;word-spacing:-0.947876px;fill:#ffffff;stroke:none;stroke-width:0.5;stroke-dasharray:none"
       id="path4334-0" />
    <path
       id="path4450-6"
       style="font-weight:bold;font-size:12.1327px;line-height:125%;font-family:'Titan One';-inkscape-font-specification:'Titan One Bold';letter-spacing:-0.0568725px;word-spacing:-0.947876px;fill:#7bb2f7;fill-opacity:1;stroke:none;stroke-width:0.5;stroke-dasharray:none"
       d="m 42.501697,47.168747 c -1.17103,0.10471 -2.67815,0.41601 -3.115236,1.65273 -0.02309,1.14661 0.687844,2.1341 0.98585,3.21196 0.678367,1.72052 1.2199,3.51208 1.971186,5.19195 0.83833,0.99386 2.26586,0.61169 3.39158,0.5811 0.87248,-0.0692 1.64783,-0.72099 1.7444,-1.6079 0.8407,-2.46456 1.78382,-4.89254 2.59839,-7.36578 -0.0978,-1.24425 -1.46152,-1.74895 -2.54603,-1.6722 -0.92984,0.0488 -1.94332,0.0999 -2.74108,0.63314 -0.59408,-0.58207 -1.49853,-0.66861 -2.28906,-0.625 z" />
    <path
       d="m 40.407383,49.079227 q 0,-0.14559 0.315451,-0.33972 0.31545,-0.20625 0.885687,-0.36398 0.582366,-0.15772 1.261796,-0.15772 0.67944,0 0.99489,0.19412 0.31545,0.19413 0.33971,0.42465 l 0.42465,4.4163 h 0.16985 l 0.37612,-4.30711 q 0.0364,-0.33971 0.82502,-0.53384 0.78863,-0.19412 1.46806,-0.19412 0.67943,0 1.00701,0.12133 0.32758,0.10919 0.41251,0.23052 0.0971,0.12132 0.0971,0.23052 0,0.0971 -0.18199,0.57023 -0.16985,0.46105 -0.36398,0.99489 -0.64303,1.69858 -2.17175,6.09061 -0.13346,0.37612 -2.08683,0.37612 -0.60663,0 -0.80075,-0.0849 -0.19413,-0.0849 -0.26692,-0.29119 -0.71583,-2.06256 -1.710712,-4.68322 -0.994882,-2.62066 -0.994882,-2.69346 z"
       style="font-weight:bold;font-size:12.1327px;line-height:125%;font-family:'Titan One';-inkscape-font-specification:'Titan One Bold';letter-spacing:-0.0568725px;word-spacing:-0.947876px;fill:#ffffff;stroke:none;stroke-width:0.5;stroke-dasharray:none"
       id="path4336-6" />
    <path
       id="path4452-7"
       style="font-weight:bold;font-size:12.1327px;line-height:125%;font-family:'Titan One';-inkscape-font-specification:'Titan One Bold';letter-spacing:-0.0568725px;word-spacing:-0.947876px;fill:#7bb2f7;fill-opacity:1;stroke:none;stroke-width:0.5;stroke-dasharray:none"
       d="m 55.241927,47.135547 c -1.81703,0.10042 -3.65925,-0.0911 -5.46679,0.10742 -0.88101,0.20365 -1.48471,1.09733 -1.29842,1.98906 0.0131,2.54991 -0.0339,5.10018 0.0348,7.64961 0.44573,1.06282 1.72082,1.0798 2.69531,0.99414 1.63124,0.005 3.26747,0.0716 4.89649,-0.0449 1.1911,-0.63312 1.0473,-2.16634 1.01562,-3.30859 -0.008,-0.47906 -0.42157,-0.86699 -0.58292,-1.20828 0.14802,-0.64529 0.16144,-1.32814 0.005,-1.97336 0.65069,-0.99306 0.56733,-2.30353 0.32813,-3.41016 -0.25734,-0.63068 -1.00287,-0.83518 -1.62697,-0.79494 z" />
    <path
       d="m 55.686237,56.832027 h -5.14427 q -0.5945,0 -0.80076,-0.0849 -0.20625,-0.0849 -0.20625,-0.26692 v -7.68 q 0,-0.31545 0.27905,-0.44891 0.29119,-0.13346 1.03128,-0.13346 h 4.87735 q 0.25478,0 0.25478,0.84929 0,0.83715 -0.10919,1.28606 -0.1092,0.43678 -0.29119,0.43678 -0.78862,0 -2.65706,-0.15773 v 0.8129 q 1.79564,-0.0728 2.34161,-0.0728 0.32759,0 0.32759,0.76436 0,0.76436 -0.13346,1.16473 -0.12133,0.38825 -0.33972,0.38825 l -2.19602,-0.0485 v 0.77649 q 2.11109,-0.15772 2.91185,-0.15772 0.25479,0 0.25479,0.84929 0,0.84929 -0.1092,1.28606 -0.10919,0.43678 -0.29118,0.43678 z"
       style="font-weight:bold;font-size:12.1327px;line-height:125%;font-family:'Titan One';-inkscape-font-specification:'Titan One Bold';letter-spacing:-0.0568725px;word-spacing:-0.947876px;fill:#ffffff;stroke:none;stroke-width:0.5;stroke-dasharray:none"
       id="path4338-2" />
    <path
       id="path4454-5"
       style="font-weight:bold;font-size:12.1327px;line-height:125%;font-family:'Titan One';-inkscape-font-specification:'Titan One Bold';letter-spacing:-0.0568725px;word-spacing:-0.947876px;fill:#7bb2f7;fill-opacity:1;stroke:none;stroke-width:0.5;stroke-dasharray:none"
       d="m 59.320057,47.162887 c -1.22202,0.0257 -2.84434,0.15971 -3.41151,1.43606 -0.17576,1.09332 -0.0312,2.25316 -0.0894,3.37092 0.0171,1.66366 -0.0599,3.36366 0.0893,5.0035 0.57135,1.15432 2.02846,0.91743 3.08304,0.87367 0.60111,-0.0554 1.27668,-0.0918 1.78759,-0.37946 0.60465,0.53402 1.52385,0.37359 2.28234,0.4189 0.87014,-0.11211 1.97666,-0.008 2.58485,-0.75288 0.47816,-0.80029 0.11138,-1.77748 0.2251,-2.65469 -0.0407,-2.02933 0.1,-4.08309 -0.0893,-6.09624 -0.4251,-1.29432 -2.02751,-1.35636 -3.14945,-1.13384 -0.59412,0.13044 -1.21564,0.2759 -1.69727,0.66992 -0.36926,-0.50734 -0.98119,-0.82632 -1.61523,-0.75586 z" />
    <path
       d="m 60.264067,56.480177 q 0,0.15772 -0.75223,0.25478 -0.7401,0.0971 -1.48019,0.0971 -0.74009,0 -0.94635,-0.0849 -0.20626,-0.0849 -0.20626,-0.26692 v -7.44947 q 0,-0.30332 0.69157,-0.55811 0.70369,-0.25478 1.58938,-0.25478 0.31545,0 0.47318,0.0243 0.41251,0.0607 0.58237,0.5217 l 1.16473,3.13024 h 0.0485 v -2.86331 q 0,-0.30332 0.69157,-0.55811 0.69156,-0.25478 1.57725,-0.25478 0.76436,0 0.97061,0.29118 0.1456,0.20626 0.1456,0.37612 v 7.59507 q 0,0.15772 -0.75223,0.25478 -0.74009,0.0971 -1.63791,0.0971 -0.88569,0 -0.97062,-0.23052 l -1.12834,-2.98464 h -0.0607 z"
       style="font-weight:bold;font-size:12.1327px;line-height:125%;font-family:'Titan One';-inkscape-font-specification:'Titan One Bold';letter-spacing:-0.0568725px;word-spacing:-0.947876px;fill:#ffffff;stroke:none;stroke-width:0.5;stroke-dasharray:none"
       id="path4340-4" />
    <path
       id="path4456-7"
       style="font-weight:bold;font-size:12.1327px;line-height:125%;font-family:'Titan One';-inkscape-font-specification:'Titan One Bold';letter-spacing:-0.0568725px;word-spacing:-0.947876px;fill:#7bb2f7;fill-opacity:1;stroke:none;stroke-width:0.5;stroke-dasharray:none"
       d="m 72.099347,47.137497 c -2.10027,0.0782 -4.22,-0.0334 -6.3164,0.0527 -1.28804,0.36276 -1.36563,1.92895 -1.34929,3.03187 -0.0661,0.94087 0.3778,2.24605 1.52702,2.15758 0.69471,-0.24151 0.46211,0.38645 0.48275,0.87539 0.0328,1.25647 -0.0931,2.55352 0.0904,3.78326 0.59745,1.11846 2.01127,0.8327 3.05161,0.81629 0.87789,-0.0287 2.06094,-0.0858 2.35768,-1.10579 0.008,-1.44592 -0.0157,-2.92325 0.0117,-4.34961 0.83293,0.0892 1.73717,-0.42593 1.80574,-1.31965 0.25713,-1.13666 0.38055,-2.46807 -0.24324,-3.4909 -0.36671,-0.37597 -0.91226,-0.47751 -1.41797,-0.45117 z" />
    <path
       d="m 70.883957,56.540837 q 0,0.13346 -0.75223,0.21839 -0.74009,0.0728 -1.49232,0.0728 -0.7401,0 -0.94635,-0.0607 -0.19412,-0.0728 -0.19412,-0.23052 v -5.21707 h -1.68645 q -0.13346,0 -0.23052,-0.33972 -0.0971,-0.33971 -0.0971,-1.00701 0,-0.67943 0.14559,-1.21327 0.14559,-0.54597 0.38825,-0.54597 h 6.56379 q 0.18199,0 0.24265,0.33971 0.0728,0.33972 0.0728,0.98275 0,0.64304 -0.13346,1.21327 -0.13346,0.57024 -0.36398,0.57024 h -1.51659 z"
       style="font-weight:bold;font-size:12.1327px;line-height:125%;font-family:'Titan One';-inkscape-font-specification:'Titan One Bold';letter-spacing:-0.0568725px;word-spacing:-0.947876px;fill:#ffffff;stroke:none;stroke-width:0.5;stroke-dasharray:none"
       id="path4342-6" />
    <path
       id="path4458-2"
       style="font-weight:bold;font-size:12.1327px;line-height:125%;font-family:'Titan One';-inkscape-font-specification:'Titan One Bold';letter-spacing:-0.0568725px;word-spacing:-0.947876px;fill:#7bb2f7;fill-opacity:1;stroke:none;stroke-width:0.5;stroke-dasharray:none"
       d="m 87.435287,47.045697 c -1.08692,0.0787 -2.52379,-10e-4 -3.13556,1.08382 -0.30557,1.32754 -0.0459,2.70283 -0.13092,4.05134 0.0277,1.59432 -0.0887,3.22618 0.0873,4.79642 0.57717,1.15009 2.02547,0.90887 3.08154,0.87568 0.59895,-0.0235 1.24658,-0.14992 1.76956,-0.35022 0.94835,0.64294 2.17518,0.32218 3.24414,0.31445 0.9578,-0.013 2.16364,-0.67651 1.98891,-1.77788 -0.13889,-0.88898 -0.63708,-1.65761 -1.08656,-2.41743 1.22685,-1.5897 1.26951,-4.17694 -0.2168,-5.61328 -1.55042,-1.27744 -3.74962,-0.89597 -5.60157,-0.9629 z" />
    <path
       d="m 88.622227,56.480177 q 0,0.15772 -0.74009,0.25478 -0.7401,0.0971 -1.49233,0.0971 -0.74009,0 -0.95848,-0.0849 -0.20626,-0.0849 -0.20626,-0.26692 v -7.80132 q 0,-0.31545 0.78863,-0.44891 0.80076,-0.13346 2.01403,-0.13346 1.21327,0 1.56512,0.0121 0.36398,0 0.84929,0.0364 0.4853,0.0364 0.76435,0.12133 0.29119,0.0849 0.6309,0.21838 0.35185,0.13346 0.54597,0.35185 0.19413,0.20626 0.37612,0.49744 0.32758,0.52171 0.32758,1.49232 0,0.95849 -0.32758,1.62579 -0.31545,0.65516 -0.84929,0.99488 1.39526,2.19602 1.39526,2.79052 0,0.5945 -2.39014,0.5945 -0.69156,0 -0.95848,-0.0607 -0.26692,-0.0607 -0.33972,-0.26692 l -0.78862,-2.49933 -0.20626,-0.0121 z m 0,-4.35564 h 0.31545 q 0.7037,0 0.7037,-1.09195 0,-0.5581 -0.19413,-0.78862 -0.18199,-0.23052 -0.42464,-0.23052 h -0.40038 z"
       style="font-weight:bold;font-size:12.1327px;line-height:125%;font-family:'Titan One';-inkscape-font-specification:'Titan One Bold';letter-spacing:-0.0568725px;word-spacing:-0.947876px;fill:#ffffff;stroke:none;stroke-width:0.5;stroke-dasharray:none"
       id="path4344-6" />
    <path
       id="path4460-6"
       style="font-weight:bold;font-size:12.1327px;line-height:125%;font-family:'Titan One';-inkscape-font-specification:'Titan One Bold';letter-spacing:-0.0568725px;word-spacing:-0.947876px;fill:#7bb2f7;fill-opacity:1;stroke:none;stroke-width:0.5;stroke-dasharray:none"
       d="m 99.562247,47.135547 c -1.81703,0.10042 -3.65925,-0.0911 -5.4668,0.10742 -0.88101,0.20365 -1.4847,1.09733 -1.29841,1.98906 0.0131,2.54991 -0.0339,5.10018 0.0347,7.64961 0.44573,1.06282 1.72082,1.0798 2.69531,0.99414 1.63125,0.005 3.26747,0.0716 4.896493,-0.0449 1.16221,-0.60653 1.03843,-2.08662 1.02697,-3.19714 -0.0429,-0.46335 -0.24146,-0.9366 -0.61877,-1.22278 0.17451,-0.67393 0.18766,-1.39196 0.0293,-2.07031 0.65068,-0.99306 0.56732,-2.30353 0.32812,-3.41016 -0.25732,-0.63065 -1.00285,-0.83516 -1.626953,-0.79492 z" />
    <path
       d="m 100.00649,56.832027 h -5.144273 q -0.5945,0 -0.80076,-0.0849 -0.20625,-0.0849 -0.20625,-0.26692 v -7.68 q 0,-0.31545 0.27905,-0.44891 0.29118,-0.13346 1.03128,-0.13346 h 4.877353 q 0.25478,0 0.25478,0.84929 0,0.83715 -0.10919,1.28606 -0.1092,0.43678 -0.291193,0.43678 -0.78862,0 -2.65706,-0.15773 v 0.8129 q 1.79564,-0.0728 2.34161,-0.0728 0.32759,0 0.32759,0.76436 0,0.76436 -0.13346,1.16473 -0.12133,0.38825 -0.33972,0.38825 l -2.19602,-0.0485 v 0.77649 q 2.11109,-0.15772 2.911853,-0.15772 0.25479,0 0.25479,0.84929 0,0.84929 -0.1092,1.28606 -0.10919,0.43678 -0.29118,0.43678 z"
       style="font-weight:bold;font-size:12.1327px;line-height:125%;font-family:'Titan One';-inkscape-font-specification:'Titan One Bold';letter-spacing:-0.0568725px;word-spacing:-0.947876px;fill:#ffffff;stroke:none;stroke-width:0.5;stroke-dasharray:none"
       id="path4346-2" />
    <path
       id="path4462-6"
       style="font-weight:bold;font-size:16.1771px;line-height:125%;font-family:'Titan One';-inkscape-font-specification:'Titan One Bold';letter-spacing:-0.0568725px;word-spacing:-0.947876px;fill:#7bb2f7;fill-opacity:1;stroke:none;stroke-width:0.5;stroke-dasharray:none"
       d="m 108.57786,44.133597 c -2.64048,-0.002 -5.47868,1.51182 -6.23594,4.17764 -0.74636,2.27885 -0.59699,4.8072 0.17345,7.05673 0.70055,1.72891 2.5683,2.87567 4.43193,2.64425 0.51232,-0.047 1.014,-0.22814 1.44502,-0.50753 0.99007,0.62089 2.23197,0.27366 3.32844,0.26757 0.79574,-0.0448 1.87368,-0.27797 2.1325,-1.11132 0.10863,-1.72786 0.088,-3.47253 0.0137,-5.19727 -0.13266,-0.73767 -0.85233,-1.26058 -1.48047,-1.44726 1.1019,-0.87487 1.22617,-2.44993 1.17382,-3.75196 -0.25082,-1.40853 -1.76685,-2.07605 -3.06835,-2.07226 -0.63638,-0.0595 -1.27529,-0.0695 -1.91408,-0.0586 z m 0.46486,5.68945 c 0.19164,0.0284 1.3335,0.17313 0.69094,0.26226 -0.40367,0.09 -0.78451,0.25932 -1.14212,0.4643 0.0384,-0.26318 0.0386,-0.80658 0.45118,-0.72656 z" />
    <path
       d="m 106.59659,56.961437 q -0.55002,0 -1.01916,-0.11324 -0.46913,-0.11324 -0.98679,-0.46913 -0.5015,-0.37208 -0.8574,-0.97063 -0.80885,-1.35888 -0.80885,-4.09281 0,-1.50447 0.40443,-2.65304 0.40443,-1.14857 1.01916,-1.77948 0.61473,-0.64708 1.47212,-1.05151 0.85738,-0.40443 1.60153,-0.51767 0.74414,-0.12942 1.58536,-0.12942 1.94126,0 2.73393,0.33972 0.79268,0.32354 0.79268,1.26182 0,0.74414 -0.27501,1.61771 -0.27501,0.85738 -0.80885,0.85738 -0.12942,0 -1.10005,-0.24265 -0.97062,-0.25884 -1.45594,-0.25884 -1.39124,0 -1.39124,2.34568 0,1.18093 0.32355,1.76331 0.32354,0.56619 0.80886,0.6309 v -1.45594 q 0,-0.40442 0.82503,-0.74414 0.82503,-0.33972 1.58536,-0.33972 0.76032,0 1.10004,0.0971 0.3559,0.0971 0.48531,0.27501 0.22648,0.29119 0.22648,0.51767 v 4.48105 q 0,0.21031 -0.85738,0.33972 -0.84122,0.12942 -1.76332,0.12942 -0.90591,0 -1.14857,-0.0809 -0.24266,-0.0971 -0.275,-0.50149 l -0.11325,-0.95445 h -0.12941 q -0.11325,0.69562 -0.58238,1.19711 -0.45297,0.50149 -1.39124,0.50149 z"
       style="font-weight:bold;font-size:16.1771px;line-height:125%;font-family:'Titan One';-inkscape-font-specification:'Titan One Bold';letter-spacing:-0.0568725px;word-spacing:-0.947876px;fill:#ffffff;stroke:none;stroke-width:0.5;stroke-dasharray:none"
       id="path4348-0" />
    <path
       id="path4464-0"
       style="font-weight:bold;font-size:12.1327px;line-height:125%;font-family:'Titan One';-inkscape-font-specification:'Titan One Bold';letter-spacing:-0.0568725px;word-spacing:-0.947876px;fill:#7bb2f7;fill-opacity:1;stroke:none;stroke-width:0.5;stroke-dasharray:none"
       d="m 118.28295,47.172657 c -1.04921,0.10303 -2.1945,-0.067 -3.1289,0.52734 -0.68256,0.49543 -0.61033,1.47638 -0.94434,2.19217 -0.64043,2.13267 -1.43693,4.25445 -1.86327,6.42914 0.15577,1.23705 1.5748,1.52135 2.60415,1.55243 0.95935,0.0189 2.12957,0.12282 2.83431,-0.65421 0.99066,0.85525 2.41972,0.65065 3.63086,0.62891 0.93562,-0.0379 2.04849,-0.86948 1.69609,-1.89516 -0.78226,-2.69347 -1.5523,-5.38952 -2.42851,-8.05406 -0.58467,-0.71523 -1.54554,-0.78464 -2.40039,-0.72656 z" />
    <path
       d="m 117.1195,56.213257 q -0.0243,0.35185 -0.37611,0.48531 -0.33972,0.13346 -1.23754,0.13346 -0.89781,0 -1.50445,-0.15773 -0.5945,-0.16986 -0.5945,-0.42464 0,-0.29119 1.07981,-3.71261 1.07981,-3.43355 1.23753,-3.95526 0.0607,-0.15773 0.97062,-0.25479 0.92208,-0.10919 1.9655,-0.10919 1.05554,0 1.16474,0.36398 2.29308,7.61933 2.29308,7.74066 0,0.12133 -0.1456,0.24266 -0.33971,0.26692 -1.34673,0.26692 -2.14748,0 -2.19601,-0.50958 l -0.0849,-0.78862 h -1.16474 z m 0.97062,-2.98465 -0.18199,-2.18388 h -0.26692 l -0.20626,2.18388 z"
       style="font-weight:bold;font-size:12.1327px;line-height:125%;font-family:'Titan One';-inkscape-font-specification:'Titan One Bold';letter-spacing:-0.0568725px;word-spacing:-0.947876px;fill:#ffffff;stroke:none;stroke-width:0.5;stroke-dasharray:none"
       id="path4350-1" />
    <path
       id="path4466-6"
       style="font-weight:bold;font-size:12.1327px;line-height:125%;font-family:'Titan One';-inkscape-font-specification:'Titan One Bold';letter-spacing:-0.0568725px;word-spacing:-0.947876px;fill:#7bb2f7;fill-opacity:1;stroke:none;stroke-width:0.5;stroke-dasharray:none"
       d="m 124.5642,47.170697 c -1.0551,0.085 -2.38519,0.15935 -2.91601,1.25 -0.0616,2.7603 -0.0597,5.52872 -0.0137,8.28516 0.20336,1.09344 1.46494,1.26536 2.38202,1.18658 0.84826,-0.007 1.75752,0.004 2.52227,-0.35455 0.64958,0.23995 1.38784,0.0646 2.00586,0 1.00445,0.62323 2.24993,0.27202 3.35546,0.24024 0.82769,-0.0367 1.71083,-0.68612 1.53326,-1.59805 -0.0301,-2.60924 0.0707,-5.23923 -0.0606,-7.83555 -0.45991,-1.24221 -2.02227,-1.22125 -3.12132,-1.15582 -0.98708,0.0763 -2.10761,0.30521 -2.71267,1.16949 -0.49162,-1.14593 -1.90033,-1.23951 -2.97461,-1.1875 z" />
    <path
       d="m 124.53639,56.832027 q -0.30332,0 -0.88569,0 -0.57024,0 -0.77649,-0.0849 -0.20626,-0.0849 -0.20626,-0.26692 v -7.65574 q 0,-0.27905 0.74011,-0.43677 0.75222,-0.16986 1.6015,-0.16986 0.84929,0 1.21327,0.21839 0.36398,0.21838 0.42466,0.46104 l 0.82502,3.20303 h 0.10919 l 0.7765,-3.05744 q 0.0849,-0.32758 0.78862,-0.57024 0.71583,-0.25478 1.56512,-0.25478 0.84929,0 1.24967,0.13346 0.41251,0.13346 0.41251,0.33971 v 7.7892 q 0,0.15772 -0.69156,0.25478 -0.69157,0.0971 -1.68645,0.0971 -0.99488,0 -0.99488,-0.35185 0,-0.95848 0.20626,-3.40928 h -0.1092 l -0.6309,3.16663 q -0.0364,0.18199 -0.30332,0.26692 -0.25479,0.0849 -0.77649,0.0849 -0.52171,0 -0.64303,-0.0728 -0.1092,-0.0728 -0.14559,-0.27905 l -0.65517,-3.16664 h -0.1092 q 0.21838,2.49934 0.21838,3.40929 0,0.31545 -1.51658,0.35185 z"
       style="font-weight:bold;font-size:12.1327px;line-height:125%;font-family:'Titan One';-inkscape-font-specification:'Titan One Bold';letter-spacing:-0.0568725px;word-spacing:-0.947876px;fill:#ffffff;stroke:none;stroke-width:0.5;stroke-dasharray:none"
       id="path4352-2" />
    <path
       id="path4468-4"
       style="font-weight:bold;font-size:12.1327px;line-height:125%;font-family:'Titan One';-inkscape-font-specification:'Titan One Bold';letter-spacing:-0.0568725px;word-spacing:-0.947876px;fill:#7bb2f7;fill-opacity:1;stroke:none;stroke-width:0.5;stroke-dasharray:none"
       d="m 139.12083,47.133597 c -1.85838,0.10527 -3.74405,-0.0908 -5.59375,0.10937 -0.87554,0.20292 -1.4848,1.09124 -1.29646,1.9793 0.0125,2.5538 -0.0314,5.1079 0.0308,7.66133 0.45033,1.05954 1.72187,1.0785 2.69726,0.99218 1.6325,0.002 3.27063,0.0791 4.90039,-0.0488 1.16145,-0.60533 1.03945,-2.08921 1.02216,-3.199 -0.0448,-0.46103 -0.23906,-0.93347 -0.61786,-1.21507 0.17404,-0.67303 0.19564,-1.39159 0.0293,-2.06836 0.64056,-0.95308 0.54364,-2.20208 0.3789,-3.28125 -0.20947,-0.63653 -0.90601,-0.9939 -1.55078,-0.92968 z" />
    <path
       d="m 139.43913,56.832027 h -5.14427 q -0.5945,0 -0.80076,-0.0849 -0.20625,-0.0849 -0.20625,-0.26692 v -7.68 q 0,-0.31545 0.27905,-0.44891 0.29118,-0.13346 1.03128,-0.13346 h 4.87734 q 0.25479,0 0.25479,0.84929 0,0.83715 -0.10919,1.28606 -0.1092,0.43678 -0.29119,0.43678 -0.78862,0 -2.65706,-0.15773 v 0.8129 q 1.79564,-0.0728 2.34161,-0.0728 0.32758,0 0.32758,0.76436 0,0.76436 -0.13346,1.16473 -0.12132,0.38825 -0.33971,0.38825 l -2.19602,-0.0485 v 0.77649 q 2.11109,-0.15772 2.91185,-0.15772 0.25478,0 0.25478,0.84929 0,0.84929 -0.10919,1.28606 -0.10919,0.43678 -0.29118,0.43678 z"
       style="font-weight:bold;font-size:12.1327px;line-height:125%;font-family:'Titan One';-inkscape-font-specification:'Titan One Bold';letter-spacing:-0.0568725px;word-spacing:-0.947876px;fill:#ffffff;stroke:none;stroke-width:0.5;stroke-dasharray:none"
       id="path4354-7" />
    <path
       id="path4470-0"
       style="font-weight:bold;font-size:16.1771px;line-height:125%;font-family:'Titan One';-inkscape-font-specification:'Titan One Bold';letter-spacing:-0.0568725px;word-spacing:-0.947876px;fill:#7bb2f7;fill-opacity:1;stroke:none;stroke-width:0.5;stroke-dasharray:none"
       d="m 146.06224,44.155077 c -1.91739,0.093 -3.9394,1.28103 -4.32812,3.2793 -0.38798,1.52662 -0.0336,3.30332 1.14649,4.39843 -1.31975,0.38781 -1.4303,1.97603 -1.62801,3.11114 -0.20414,0.93358 0.21146,2.03134 1.20475,2.28445 2.06817,0.85268 4.38547,0.91708 6.5834,0.68449 1.82464,-0.25463 3.61782,-1.50587 3.96101,-3.40589 0.37933,-1.65898 -0.24933,-3.53816 -1.63092,-4.557 1.0064,-0.68344 1.26777,-2.00873 1.48543,-3.12695 0.17527,-0.88399 -0.37697,-1.77487 -1.25105,-1.9961 -1.75082,-0.7071 -3.68515,-0.70974 -5.54298,-0.67187 z" />
    <path
       d="m 150.75296,56.152587 q -0.48532,0.35589 -1.35888,0.59855 -0.85739,0.22648 -2.23244,0.22648 -1.35888,0 -2.58833,-0.22648 -1.22946,-0.22648 -1.76331,-0.50149 -0.53384,-0.27501 -0.53384,-0.53384 0,-0.90592 0.25883,-1.87655 0.25883,-0.9868 0.61473,-0.9868 0.0647,0 1.3427,0.43678 1.27799,0.43678 1.92508,0.43678 0.64708,0 0.8412,-0.12941 0.19413,-0.1456 0.19413,-0.40443 0,-0.25884 -0.35589,-0.45296 -0.35589,-0.2103 -0.88974,-0.3559 -0.53384,-0.16177 -1.16475,-0.45295 -0.61473,-0.29119 -1.14857,-0.64709 -0.53385,-0.3559 -0.88974,-1.00298 -0.3559,-0.66326 -0.3559,-1.50447 0,-3.59132 4.28693,-3.59132 1.60153,0 2.76629,0.21031 1.16475,0.19412 1.63388,0.45295 0.48532,0.24266 0.48532,0.48532 0,0.84121 -0.40443,1.81183 -0.38825,0.97063 -0.76033,0.97063 -0.0647,0 -0.4206,-0.1456 -1.06769,-0.46913 -1.77948,-0.46913 -0.69562,0 -0.95445,0.12942 -0.24266,0.12941 -0.24266,0.40442 0,0.25884 0.3559,0.43679 0.3559,0.16177 0.87356,0.30736 0.53385,0.12942 1.14858,0.4206 0.6309,0.27502 1.16475,0.66327 0.53384,0.37207 0.88974,1.06769 0.35588,0.69561 0.35588,1.6177 0,0.97063 -0.50148,1.76331 -0.30736,0.48531 -0.79268,0.84121 z"
       style="font-weight:bold;font-size:16.1771px;line-height:125%;font-family:'Titan One';-inkscape-font-specification:'Titan One Bold';letter-spacing:-0.0568725px;word-spacing:-0.947876px;fill:#ffffff;stroke:none;stroke-width:0.5;stroke-dasharray:none"
       id="path4356-6" />
    <path
       id="path4472-9"
       style="font-weight:bold;font-size:12.1327px;line-height:125%;font-family:'Titan One';-inkscape-font-specification:'Titan One Bold';letter-spacing:-0.0568725px;word-spacing:-0.947876px;fill:#7bb2f7;fill-opacity:1;stroke:none;stroke-width:0.5;stroke-dasharray:none"
       d="m 159.25169,47.137497 c -2.10027,0.0782 -4.22,-0.0334 -6.3164,0.0527 -1.28803,0.36276 -1.36563,1.92895 -1.3493,3.03187 -0.0661,0.94087 0.37782,2.24605 1.52703,2.15758 0.69471,-0.24151 0.46211,0.38645 0.48276,0.87539 0.0333,1.25674 -0.0942,2.55559 0.0913,3.78461 0.59481,1.1158 2.00419,0.82926 3.04087,0.81661 0.87866,-0.0283 2.06772,-0.0849 2.36748,-1.10746 0.008,-1.44592 -0.0157,-2.92325 0.0117,-4.34961 0.83293,0.0892 1.73717,-0.42593 1.80574,-1.31965 0.25713,-1.13666 0.38055,-2.46807 -0.24324,-3.4909 -0.36671,-0.37597 -0.91227,-0.47751 -1.41797,-0.45117 z" />
    <path
       d="m 158.03638,56.540837 q 0,0.13346 -0.75222,0.21839 -0.7401,0.0728 -1.49233,0.0728 -0.74009,0 -0.94635,-0.0607 -0.19412,-0.0728 -0.19412,-0.23052 v -5.21707 h -1.68644 q -0.13346,0 -0.23053,-0.33972 -0.0971,-0.33971 -0.0971,-1.00701 0,-0.67943 0.1456,-1.21327 0.14559,-0.54597 0.38824,-0.54597 h 6.56379 q 0.18199,0 0.24266,0.33971 0.0728,0.33972 0.0728,0.98275 0,0.64304 -0.13346,1.21327 -0.13346,0.57024 -0.36398,0.57024 h -1.51659 z"
       style="font-weight:bold;font-size:12.1327px;line-height:125%;font-family:'Titan One';-inkscape-font-specification:'Titan One Bold';letter-spacing:-0.0568725px;word-spacing:-0.947876px;fill:#ffffff;stroke:none;stroke-width:0.5;stroke-dasharray:none"
       id="path4358-6" />
    <path
       id="path4474-6"
       style="font-weight:bold;font-size:12.1327px;line-height:125%;font-family:'Titan One';-inkscape-font-specification:'Titan One Bold';letter-spacing:-0.0568725px;word-spacing:-0.947876px;fill:#7bb2f7;fill-opacity:1;stroke:none;stroke-width:0.5;stroke-dasharray:none"
       d="m 167.11888,47.145307 c -0.82152,0.0249 -1.63824,0.25826 -2.3457,0.66993 -0.96767,-1.00584 -2.5539,-0.67758 -3.75391,-0.36329 -0.9012,0.25214 -1.5499,1.1521 -1.34576,2.09648 0.0435,1.85962 -0.19134,3.76367 0.22271,5.59103 0.58494,1.82129 2.51789,2.85414 4.35547,2.83984 1.94017,0.14821 4.25311,-0.56519 5.00012,-2.53979 0.69017,-1.88088 0.2184,-3.9173 0.37191,-5.86705 0.15737,-1.01269 -0.33855,-2.25919 -1.49506,-2.34121 -0.33417,-0.0629 -0.66973,-0.0929 -1.00977,-0.0859 z" />
    <path
       d="m 168.5592,53.446997 q 0,1.74711 -1.00701,2.62067 -0.99488,0.86142 -2.89972,0.86142 -1.8927,0 -2.91184,-0.86142 -1.01915,-0.87356 -1.01915,-2.62067 v -4.4527 q 0,-0.30332 0.67943,-0.54597 0.69156,-0.24265 1.60152,-0.24265 0.72796,0 0.94635,0.27905 0.15772,0.21839 0.15772,0.37611 v 3.61555 q 0,1.37099 0.0971,1.8199 0.1092,0.43678 0.44891,0.43678 0.33972,0 0.42466,-0.42465 0.0971,-0.43677 0.0971,-1.84417 v -3.46995 q 0,-0.30332 0.67943,-0.54597 0.69156,-0.24265 1.58938,-0.24265 0.76436,0 0.97062,0.27905 0.14559,0.21839 0.14559,0.37611 z"
       style="font-weight:bold;font-size:12.1327px;line-height:125%;font-family:'Titan One';-inkscape-font-specification:'Titan One Bold';letter-spacing:-0.0568725px;word-spacing:-0.947876px;fill:#ffffff;stroke:none;stroke-width:0.5;stroke-dasharray:none"
       id="path4360-2" />
    <path
       id="path4476-0"
       style="font-weight:bold;font-size:12.1327px;line-height:125%;font-family:'Titan One';-inkscape-font-specification:'Titan One Bold';letter-spacing:-0.0568725px;word-spacing:-0.947876px;fill:#7bb2f7;fill-opacity:1;stroke:none;stroke-width:0.5;stroke-dasharray:none"
       d="m 171.62279,47.164847 c -1.05266,0.003 -2.41436,-0.1714 -3.02735,0.91015 -0.39868,0.85594 -0.0791,1.84377 -0.17795,2.75507 0.0221,2.03608 -0.0821,4.10683 0.0808,6.121 0.49752,1.10499 1.85005,0.95083 2.84576,0.93476 2.00863,-0.0158 4.35599,0.26952 5.93715,-1.24997 1.49885,-1.67807 1.3837,-4.13356 1.0866,-6.2173 -0.27865,-1.64344 -1.68945,-3.00292 -3.3703,-3.12404 -1.1158,-0.18078 -2.24868,-0.14978 -3.37468,-0.12968 z" />
    <path
       d="m 173.34327,56.832027 h -2.86331 q -0.5945,0 -0.80076,-0.0849 -0.20626,-0.0849 -0.20626,-0.27906 v -7.65573 q 0,-0.31545 0.26692,-0.44891 0.26692,-0.14559 0.92209,-0.14559 h 2.72986 q 2.32947,0 3.21516,0.92208 0.88569,0.90996 0.88569,3.32436 0,2.41441 -0.92209,3.39716 -0.92208,0.97061 -3.2273,0.97062 z m -0.0971,-6.80645 q -0.29118,0 -0.38824,0.0485 v 4.90161 l 0.46104,0.0485 q 0.36398,0 0.54597,-0.58237 0.19412,-0.58237 0.19412,-2.01403 0,-1.43165 -0.19412,-1.91696 -0.19412,-0.48531 -0.61877,-0.48531 z"
       style="font-weight:bold;font-size:12.1327px;line-height:125%;font-family:'Titan One';-inkscape-font-specification:'Titan One Bold';letter-spacing:-0.0568725px;word-spacing:-0.947876px;fill:#ffffff;stroke:none;stroke-width:0.5;stroke-dasharray:none"
       id="path4362-9" />
    <path
       id="path4478-7"
       style="font-weight:bold;font-size:12.1327px;line-height:125%;font-family:'Titan One';-inkscape-font-specification:'Titan One Bold';letter-spacing:-0.0568725px;word-spacing:-0.947876px;fill:#7bb2f7;fill-opacity:1;stroke:none;stroke-width:0.5;stroke-dasharray:none"
       d="m 180.09544,47.162887 c -1.09114,0.12008 -2.57495,0.42162 -2.84961,1.66992 0.005,2.69133 -0.0924,5.40347 0.0449,8.08204 0.38283,1.11347 1.74117,0.99946 2.68775,0.96147 0.89935,-0.0492 2.09876,0.009 2.64176,-0.82233 0.2505,-1.83127 0.0297,-3.68778 0.10894,-5.53014 -0.0162,-1.08506 0.0645,-2.19523 -0.0927,-3.2633 -0.3921,-1.0106 -1.59256,-1.18088 -2.54102,-1.09766 z" />
    <path
       d="m 181.67012,56.540837 q 0,0.13346 -0.7401,0.21839 -0.74009,0.0728 -1.49232,0.0728 -0.7401,0 -0.94635,-0.0607 -0.20626,-0.0728 -0.20626,-0.23052 v -7.54654 q 0,-0.26692 0.7037,-0.52171 0.7037,-0.26692 1.57725,-0.26692 0.77649,0 1.01915,0.32759 0.0849,0.12132 0.0849,0.24265 z"
       style="font-weight:bold;font-size:12.1327px;line-height:125%;font-family:'Titan One';-inkscape-font-specification:'Titan One Bold';letter-spacing:-0.0568725px;word-spacing:-0.947876px;fill:#ffffff;stroke:none;stroke-width:0.5;stroke-dasharray:none"
       id="path4364-6" />
    <path
       id="path4480-5"
       style="font-weight:bold;font-size:12.1327px;line-height:125%;font-family:'Titan One';-inkscape-font-specification:'Titan One Bold';letter-spacing:-0.0568725px;word-spacing:-0.947876px;fill:#7bb2f7;fill-opacity:1;stroke:none;stroke-width:0.5;stroke-dasharray:none"
       d="m 186.20091,47.053517 c -2.22367,0.0337 -4.46501,1.66586 -4.71353,3.96524 -0.32887,1.95282 -0.16994,4.27059 1.3112,5.73984 1.63531,1.43934 4.07948,1.48728 6.07191,0.89003 1.90145,-0.66416 3.13455,-2.6259 3.1234,-4.61074 0.17215,-1.92041 -0.24643,-4.23523 -2.06902,-5.26486 -1.11648,-0.65393 -2.45591,-0.77601 -3.72396,-0.71951 z" />
    <path
       d="m 186.6847,56.941217 q -1.00702,0 -1.73498,-0.18199 -0.71583,-0.19412 -1.32246,-0.67943 -1.22541,-0.95849 -1.22541,-3.67621 0,-1.14047 0.32759,-1.98976 0.33971,-0.84929 0.93421,-1.34673 1.16474,-0.97062 3.02105,-0.97062 0.95848,0 1.66218,0.16986 0.71583,0.16986 1.34673,0.61877 1.27393,0.92208 1.27393,3.51848 0,2.32948 -1.15261,3.43355 -1.1526,1.10408 -3.13023,1.10408 z m -0.40038,-2.07469 q 0.14559,0.16986 0.40038,0.16986 0.25478,0 0.40038,-0.16986 0.14559,-0.18199 0.24265,-0.75223 0.0971,-0.58237 0.0971,-1.61365 0,-1.03128 -0.0971,-1.58938 -0.0971,-0.55811 -0.24265,-0.72796 -0.1456,-0.16986 -0.40038,-0.16986 -0.25479,0 -0.40038,0.16986 -0.14559,0.16985 -0.24266,0.72796 -0.0971,0.5581 -0.0971,1.58938 0,1.03128 0.0971,1.61365 0.0971,0.57024 0.24266,0.75223 z"
       style="font-weight:bold;font-size:12.1327px;line-height:125%;font-family:'Titan One';-inkscape-font-specification:'Titan One Bold';letter-spacing:-0.0568725px;word-spacing:-0.947876px;fill:#ffffff;stroke:none;stroke-width:0.5;stroke-dasharray:none"
       id="path4366-2" />
    <path
       id="path4368-0"
       style="fill:#ffffff;fill-opacity:1;fill-rule:evenodd;stroke:none;stroke-width:0.455408;stroke-linejoin:round;stroke-miterlimit:4;stroke-dasharray:none;stroke-opacity:1"
       d="m 74.603357,48.195887 c -0.43855,0 -0.79156,0.22481 -0.79156,0.5043 -0.0395,1.82784 0.037,3.82777 0.0325,5.5637 0,1.43356 1.3982,2.5877 3.13597,2.59021 0.002,10e-6 0.003,3.9e-4 0.005,3.9e-4 h 3.9e-4 1.96825 c 0.002,0 0.004,-3.7e-4 0.006,-3.9e-4 1.73778,-0.003 3.13597,-1.15665 3.13597,-2.59021 -3.8e-4,-0.16118 0.002,-0.28499 0.003,-0.45036 0.25194,0 0.16977,-0.003 0.25194,0 1.18195,-4e-5 2.14005,-0.95432 2.14008,-2.13127 -3e-5,-1.17694 -0.95813,-2.17777 -2.14008,-2.17781 l -0.21629,0.003 c -0.001,-0.27025 -5.8e-4,-0.54325 -0.006,-0.80762 0,-0.2795 -0.35265,-0.5043 -0.79119,-0.5043 z m 7.72731,2.35003 c 0.0694,-0.003 0.14068,0.0109 0.19985,0.0153 0.70343,0.0816 1.13656,0.87882 0.88047,1.52148 -0.16465,0.51832 -0.71618,0.77428 -1.22302,0.70863 0.007,-0.73754 0.009,-1.48125 0.0101,-2.23683 0.045,-0.006 0.0916,-0.006 0.13263,-0.009 z"
       sodipodi:nodetypes="sccsscsccccccccsscccccc" />
    <path
       d="m 24.946697,56.006987 q -0.03235,0.46914 -0.50149,0.64709 -0.452959,0.17795 -1.650064,0.17795 -1.197105,0 -2.00596,-0.21031 -0.792678,-0.22648 -0.792678,-0.5662 0,-0.38825 1.439762,-4.95019 1.439762,-4.57812 1.650064,-5.27373 0.08089,-0.2103 1.294168,-0.33972 1.229459,-0.1456 2.62069,-0.1456 1.407408,0 1.553001,0.48532 3.057472,10.15922 3.057472,10.32099 0,0.16177 -0.194125,0.32354 -0.452959,0.3559 -1.795658,0.3559 -2.863347,0 -2.928055,-0.67944 l -0.11324,-1.05151 h -1.553001 z m 1.294168,-3.97956 -0.242656,-2.91188 h -0.355896 l -0.275011,2.91188 z"
       style="font-weight:bold;font-size:16.1771px;line-height:125%;font-family:'Titan One';-inkscape-font-specification:'Titan One Bold';letter-spacing:-0.0568725px;word-spacing:-0.947876px;fill:#ffffff;stroke:#7bb2f7;stroke-width:0.5;stroke-dasharray:none;stroke-opacity:1"
       id="path4370-5" />
    <path
       d="m 36.072214,56.832027 h -2.863317 q -0.594503,0 -0.800758,-0.0849 -0.206256,-0.0849 -0.206256,-0.27906 v -7.65573 q 0,-0.31545 0.266919,-0.44891 0.266919,-0.14559 0.922085,-0.14559 h 2.729858 q 2.329478,0 3.215165,0.92208 0.885687,0.90996 0.885687,3.32436 0,2.41441 -0.922085,3.39716 -0.922085,0.97061 -3.227298,0.97062 z m -0.09706,-6.80645 q -0.291184,0 -0.388246,0.0485 v 4.90161 l 0.461043,0.0485 q 0.363981,0 0.545971,-0.58237 0.194123,-0.58237 0.194123,-2.01403 0,-1.43165 -0.194123,-1.91696 -0.194123,-0.48531 -0.618768,-0.48531 z"
       style="font-weight:bold;font-size:12.1327px;line-height:125%;font-family:'Titan One';-inkscape-font-specification:'Titan One Bold';letter-spacing:-0.0568725px;word-spacing:-0.947876px;fill:#ffffff;stroke:#7bb2f7;stroke-width:0.5;stroke-dasharray:none;stroke-opacity:1"
       id="path4372-2" />
    <path
       d="m 40.407383,49.079227 q 0,-0.14559 0.315451,-0.33972 0.31545,-0.20625 0.885687,-0.36398 0.582366,-0.15772 1.261796,-0.15772 0.67944,0 0.99489,0.19412 0.31545,0.19413 0.33971,0.42465 l 0.42465,4.4163 h 0.16985 l 0.37612,-4.30711 q 0.0364,-0.33971 0.82502,-0.53384 0.78863,-0.19412 1.46806,-0.19412 0.67943,0 1.00701,0.12133 0.32758,0.10919 0.41251,0.23052 0.0971,0.12132 0.0971,0.23052 0,0.0971 -0.18199,0.57023 -0.16985,0.46105 -0.36398,0.99489 -0.64303,1.69858 -2.17175,6.09061 -0.13346,0.37612 -2.08683,0.37612 -0.60663,0 -0.80075,-0.0849 -0.19413,-0.0849 -0.26692,-0.29119 -0.71583,-2.06256 -1.710712,-4.68322 -0.994882,-2.62066 -0.994882,-2.69346 z"
       style="font-weight:bold;font-size:12.1327px;line-height:125%;font-family:'Titan One';-inkscape-font-specification:'Titan One Bold';letter-spacing:-0.0568725px;word-spacing:-0.947876px;fill:#ffffff;stroke:#7bb2f7;stroke-width:0.5;stroke-dasharray:none;stroke-opacity:1"
       id="path4374-9" />
    <path
       d="m 55.686237,56.832027 h -5.14427 q -0.5945,0 -0.80076,-0.0849 -0.20625,-0.0849 -0.20625,-0.26692 v -7.68 q 0,-0.31545 0.27905,-0.44891 0.29119,-0.13346 1.03128,-0.13346 h 4.87735 q 0.25478,0 0.25478,0.84929 0,0.83715 -0.10919,1.28606 -0.1092,0.43678 -0.29119,0.43678 -0.78862,0 -2.65706,-0.15773 v 0.8129 q 1.79564,-0.0728 2.34161,-0.0728 0.32759,0 0.32759,0.76436 0,0.76436 -0.13346,1.16473 -0.12133,0.38825 -0.33972,0.38825 l -2.19602,-0.0485 v 0.77649 q 2.11109,-0.15772 2.91185,-0.15772 0.25479,0 0.25479,0.84929 0,0.84929 -0.1092,1.28606 -0.10919,0.43678 -0.29118,0.43678 z"
       style="font-weight:bold;font-size:12.1327px;line-height:125%;font-family:'Titan One';-inkscape-font-specification:'Titan One Bold';letter-spacing:-0.0568725px;word-spacing:-0.947876px;fill:#ffffff;stroke:#7bb2f7;stroke-width:0.5;stroke-dasharray:none;stroke-opacity:1"
       id="path4376-8" />
    <path
       d="m 60.264067,56.480177 q 0,0.15772 -0.75223,0.25478 -0.7401,0.0971 -1.48019,0.0971 -0.74009,0 -0.94635,-0.0849 -0.20626,-0.0849 -0.20626,-0.26692 v -7.44947 q 0,-0.30332 0.69157,-0.55811 0.70369,-0.25478 1.58938,-0.25478 0.31545,0 0.47318,0.0243 0.41251,0.0607 0.58237,0.5217 l 1.16473,3.13024 h 0.0485 v -2.86331 q 0,-0.30332 0.69157,-0.55811 0.69156,-0.25478 1.57725,-0.25478 0.76436,0 0.97061,0.29118 0.1456,0.20626 0.1456,0.37612 v 7.59507 q 0,0.15772 -0.75223,0.25478 -0.74009,0.0971 -1.63791,0.0971 -0.88569,0 -0.97062,-0.23052 l -1.12834,-2.98464 h -0.0607 z"
       style="font-weight:bold;font-size:12.1327px;line-height:125%;font-family:'Titan One';-inkscape-font-specification:'Titan One Bold';letter-spacing:-0.0568725px;word-spacing:-0.947876px;fill:#ffffff;stroke:#7bb2f7;stroke-width:0.5;stroke-dasharray:none;stroke-opacity:1"
       id="path4378-9" />
    <path
       d="m 70.883957,56.540837 q 0,0.13346 -0.75223,0.21839 -0.74009,0.0728 -1.49232,0.0728 -0.7401,0 -0.94635,-0.0607 -0.19412,-0.0728 -0.19412,-0.23052 v -5.21707 h -1.68645 q -0.13346,0 -0.23052,-0.33972 -0.0971,-0.33971 -0.0971,-1.00701 0,-0.67943 0.14559,-1.21327 0.14559,-0.54597 0.38825,-0.54597 h 6.56379 q 0.18199,0 0.24265,0.33971 0.0728,0.33972 0.0728,0.98275 0,0.64304 -0.13346,1.21327 -0.13346,0.57024 -0.36398,0.57024 h -1.51659 z"
       style="font-weight:bold;font-size:12.1327px;line-height:125%;font-family:'Titan One';-inkscape-font-specification:'Titan One Bold';letter-spacing:-0.0568725px;word-spacing:-0.947876px;fill:#ffffff;stroke:#7bb2f7;stroke-width:0.5;stroke-dasharray:none;stroke-opacity:1"
       id="path4380-2" />
    <path
       d="m 88.622227,56.480177 q 0,0.15772 -0.74009,0.25478 -0.7401,0.0971 -1.49233,0.0971 -0.74009,0 -0.95848,-0.0849 -0.20626,-0.0849 -0.20626,-0.26692 v -7.80132 q 0,-0.31545 0.78863,-0.44891 0.80076,-0.13346 2.01403,-0.13346 1.21327,0 1.56512,0.0121 0.36398,0 0.84929,0.0364 0.4853,0.0364 0.76435,0.12133 0.29119,0.0849 0.6309,0.21838 0.35185,0.13346 0.54597,0.35185 0.19413,0.20626 0.37612,0.49744 0.32758,0.52171 0.32758,1.49232 0,0.95849 -0.32758,1.62579 -0.31545,0.65516 -0.84929,0.99488 1.39526,2.19602 1.39526,2.79052 0,0.5945 -2.39014,0.5945 -0.69156,0 -0.95848,-0.0607 -0.26692,-0.0607 -0.33972,-0.26692 l -0.78862,-2.49933 -0.20626,-0.0121 z m 0,-4.35564 h 0.31545 q 0.7037,0 0.7037,-1.09195 0,-0.5581 -0.19413,-0.78862 -0.18199,-0.23052 -0.42464,-0.23052 h -0.40038 z"
       style="font-weight:bold;font-size:12.1327px;line-height:125%;font-family:'Titan One';-inkscape-font-specification:'Titan One Bold';letter-spacing:-0.0568725px;word-spacing:-0.947876px;fill:#ffffff;stroke:#7bb2f7;stroke-width:0.5;stroke-dasharray:none;stroke-opacity:1"
       id="path4382-0" />
    <path
       d="m 100.00649,56.832027 h -5.144273 q -0.5945,0 -0.80076,-0.0849 -0.20625,-0.0849 -0.20625,-0.26692 v -7.68 q 0,-0.31545 0.27905,-0.44891 0.29118,-0.13346 1.03128,-0.13346 h 4.877353 q 0.25478,0 0.25478,0.84929 0,0.83715 -0.10919,1.28606 -0.1092,0.43678 -0.291193,0.43678 -0.78862,0 -2.65706,-0.15773 v 0.8129 q 1.79564,-0.0728 2.34161,-0.0728 0.32759,0 0.32759,0.76436 0,0.76436 -0.13346,1.16473 -0.12133,0.38825 -0.33972,0.38825 l -2.19602,-0.0485 v 0.77649 q 2.11109,-0.15772 2.911853,-0.15772 0.25479,0 0.25479,0.84929 0,0.84929 -0.1092,1.28606 -0.10919,0.43678 -0.29118,0.43678 z"
       style="font-weight:bold;font-size:12.1327px;line-height:125%;font-family:'Titan One';-inkscape-font-specification:'Titan One Bold';letter-spacing:-0.0568725px;word-spacing:-0.947876px;fill:#ffffff;stroke:#7bb2f7;stroke-width:0.5;stroke-dasharray:none;stroke-opacity:1"
       id="path4384-0" />
    <path
       d="m 106.59659,56.961437 q -0.55002,0 -1.01916,-0.11324 -0.46913,-0.11324 -0.98679,-0.46913 -0.5015,-0.37208 -0.8574,-0.97063 -0.80885,-1.35888 -0.80885,-4.09281 0,-1.50447 0.40443,-2.65304 0.40443,-1.14857 1.01916,-1.77948 0.61473,-0.64708 1.47212,-1.05151 0.85738,-0.40443 1.60153,-0.51767 0.74414,-0.12942 1.58536,-0.12942 1.94126,0 2.73393,0.33972 0.79268,0.32354 0.79268,1.26182 0,0.74414 -0.27501,1.61771 -0.27501,0.85738 -0.80885,0.85738 -0.12942,0 -1.10005,-0.24265 -0.97062,-0.25884 -1.45594,-0.25884 -1.39124,0 -1.39124,2.34568 0,1.18093 0.32355,1.76331 0.32354,0.56619 0.80886,0.6309 v -1.45594 q 0,-0.40442 0.82503,-0.74414 0.82503,-0.33972 1.58536,-0.33972 0.76032,0 1.10004,0.0971 0.3559,0.0971 0.48531,0.27501 0.22648,0.29119 0.22648,0.51767 v 4.48105 q 0,0.21031 -0.85738,0.33972 -0.84122,0.12942 -1.76332,0.12942 -0.90591,0 -1.14857,-0.0809 -0.24266,-0.0971 -0.275,-0.50149 l -0.11325,-0.95445 h -0.12941 q -0.11325,0.69562 -0.58238,1.19711 -0.45297,0.50149 -1.39124,0.50149 z"
       style="font-weight:bold;font-size:16.1771px;line-height:125%;font-family:'Titan One';-inkscape-font-specification:'Titan One Bold';letter-spacing:-0.0568725px;word-spacing:-0.947876px;fill:#ffffff;stroke:#7bb2f7;stroke-width:0.5;stroke-dasharray:none;stroke-opacity:1"
       id="path4386-4" />
    <path
       d="m 117.1195,56.213257 q -0.0243,0.35185 -0.37611,0.48531 -0.33972,0.13346 -1.23754,0.13346 -0.89781,0 -1.50445,-0.15773 -0.5945,-0.16986 -0.5945,-0.42464 0,-0.29119 1.07981,-3.71261 1.07981,-3.43355 1.23753,-3.95526 0.0607,-0.15773 0.97062,-0.25479 0.92208,-0.10919 1.9655,-0.10919 1.05554,0 1.16474,0.36398 2.29308,7.61933 2.29308,7.74066 0,0.12133 -0.1456,0.24266 -0.33971,0.26692 -1.34673,0.26692 -2.14748,0 -2.19601,-0.50958 l -0.0849,-0.78862 h -1.16474 z m 0.97062,-2.98465 -0.18199,-2.18388 h -0.26692 l -0.20626,2.18388 z"
       style="font-weight:bold;font-size:12.1327px;line-height:125%;font-family:'Titan One';-inkscape-font-specification:'Titan One Bold';letter-spacing:-0.0568725px;word-spacing:-0.947876px;fill:#ffffff;stroke:#7bb2f7;stroke-width:0.5;stroke-dasharray:none;stroke-opacity:1"
       id="path4388-5" />
    <path
       d="m 124.53639,56.832027 q -0.30332,0 -0.88569,0 -0.57024,0 -0.77649,-0.0849 -0.20626,-0.0849 -0.20626,-0.26692 v -7.65574 q 0,-0.27905 0.74011,-0.43677 0.75222,-0.16986 1.6015,-0.16986 0.84929,0 1.21327,0.21839 0.36398,0.21838 0.42466,0.46104 l 0.82502,3.20303 h 0.10919 l 0.7765,-3.05744 q 0.0849,-0.32758 0.78862,-0.57024 0.71583,-0.25478 1.56512,-0.25478 0.84929,0 1.24967,0.13346 0.41251,0.13346 0.41251,0.33971 v 7.7892 q 0,0.15772 -0.69156,0.25478 -0.69157,0.0971 -1.68645,0.0971 -0.99488,0 -0.99488,-0.35185 0,-0.95848 0.20626,-3.40928 h -0.1092 l -0.6309,3.16663 q -0.0364,0.18199 -0.30332,0.26692 -0.25479,0.0849 -0.77649,0.0849 -0.52171,0 -0.64303,-0.0728 -0.1092,-0.0728 -0.14559,-0.27905 l -0.65517,-3.16664 h -0.1092 q 0.21838,2.49934 0.21838,3.40929 0,0.31545 -1.51658,0.35185 z"
       style="font-weight:bold;font-size:12.1327px;line-height:125%;font-family:'Titan One';-inkscape-font-specification:'Titan One Bold';letter-spacing:-0.0568725px;word-spacing:-0.947876px;fill:#ffffff;stroke:#7bb2f7;stroke-width:0.5;stroke-dasharray:none;stroke-opacity:1"
       id="path4390-5" />
    <path
       d="m 139.43913,56.832027 h -5.14427 q -0.5945,0 -0.80076,-0.0849 -0.20625,-0.0849 -0.20625,-0.26692 v -7.68 q 0,-0.31545 0.27905,-0.44891 0.29118,-0.13346 1.03128,-0.13346 h 4.87734 q 0.25479,0 0.25479,0.84929 0,0.83715 -0.10919,1.28606 -0.1092,0.43678 -0.29119,0.43678 -0.78862,0 -2.65706,-0.15773 v 0.8129 q 1.79564,-0.0728 2.34161,-0.0728 0.32758,0 0.32758,0.76436 0,0.76436 -0.13346,1.16473 -0.12132,0.38825 -0.33971,0.38825 l -2.19602,-0.0485 v 0.77649 q 2.11109,-0.15772 2.91185,-0.15772 0.25478,0 0.25478,0.84929 0,0.84929 -0.10919,1.28606 -0.10919,0.43678 -0.29118,0.43678 z"
       style="font-weight:bold;font-size:12.1327px;line-height:125%;font-family:'Titan One';-inkscape-font-specification:'Titan One Bold';letter-spacing:-0.0568725px;word-spacing:-0.947876px;fill:#ffffff;stroke:#7bb2f7;stroke-width:0.5;stroke-dasharray:none;stroke-opacity:1"
       id="path4392-3" />
    <path
       d="m 150.75296,56.152587 q -0.48532,0.35589 -1.35888,0.59855 -0.85739,0.22648 -2.23244,0.22648 -1.35888,0 -2.58833,-0.22648 -1.22946,-0.22648 -1.76331,-0.50149 -0.53384,-0.27501 -0.53384,-0.53384 0,-0.90592 0.25883,-1.87655 0.25883,-0.9868 0.61473,-0.9868 0.0647,0 1.3427,0.43678 1.27799,0.43678 1.92508,0.43678 0.64708,0 0.8412,-0.12941 0.19413,-0.1456 0.19413,-0.40443 0,-0.25884 -0.35589,-0.45296 -0.35589,-0.2103 -0.88974,-0.3559 -0.53384,-0.16177 -1.16475,-0.45295 -0.61473,-0.29119 -1.14857,-0.64709 -0.53385,-0.3559 -0.88974,-1.00298 -0.3559,-0.66326 -0.3559,-1.50447 0,-3.59132 4.28693,-3.59132 1.60153,0 2.76629,0.21031 1.16475,0.19412 1.63388,0.45295 0.48532,0.24266 0.48532,0.48532 0,0.84121 -0.40443,1.81183 -0.38825,0.97063 -0.76033,0.97063 -0.0647,0 -0.4206,-0.1456 -1.06769,-0.46913 -1.77948,-0.46913 -0.69562,0 -0.95445,0.12942 -0.24266,0.12941 -0.24266,0.40442 0,0.25884 0.3559,0.43679 0.3559,0.16177 0.87356,0.30736 0.53385,0.12942 1.14858,0.4206 0.6309,0.27502 1.16475,0.66327 0.53384,0.37207 0.88974,1.06769 0.35588,0.69561 0.35588,1.6177 0,0.97063 -0.50148,1.76331 -0.30736,0.48531 -0.79268,0.84121 z"
       style="font-weight:bold;font-size:16.1771px;line-height:125%;font-family:'Titan One';-inkscape-font-specification:'Titan One Bold';letter-spacing:-0.0568725px;word-spacing:-0.947876px;fill:#ffffff;stroke:#7bb2f7;stroke-width:0.5;stroke-dasharray:none;stroke-opacity:1"
       id="path4394-0" />
    <path
       d="m 158.03638,56.540837 q 0,0.13346 -0.75222,0.21839 -0.7401,0.0728 -1.49233,0.0728 -0.74009,0 -0.94635,-0.0607 -0.19412,-0.0728 -0.19412,-0.23052 v -5.21707 h -1.68644 q -0.13346,0 -0.23053,-0.33972 -0.0971,-0.33971 -0.0971,-1.00701 0,-0.67943 0.1456,-1.21327 0.14559,-0.54597 0.38824,-0.54597 h 6.56379 q 0.18199,0 0.24266,0.33971 0.0728,0.33972 0.0728,0.98275 0,0.64304 -0.13346,1.21327 -0.13346,0.57024 -0.36398,0.57024 h -1.51659 z"
       style="font-weight:bold;font-size:12.1327px;line-height:125%;font-family:'Titan One';-inkscape-font-specification:'Titan One Bold';letter-spacing:-0.0568725px;word-spacing:-0.947876px;fill:#ffffff;stroke:#7bb2f7;stroke-width:0.5;stroke-dasharray:none;stroke-opacity:1"
       id="path4396-9" />
    <path
       d="m 168.5592,53.446997 q 0,1.74711 -1.00701,2.62067 -0.99488,0.86142 -2.89972,0.86142 -1.8927,0 -2.91184,-0.86142 -1.01915,-0.87356 -1.01915,-2.62067 v -4.4527 q 0,-0.30332 0.67943,-0.54597 0.69156,-0.24265 1.60152,-0.24265 0.72796,0 0.94635,0.27905 0.15772,0.21839 0.15772,0.37611 v 3.61555 q 0,1.37099 0.0971,1.8199 0.1092,0.43678 0.44891,0.43678 0.33972,0 0.42466,-0.42465 0.0971,-0.43677 0.0971,-1.84417 v -3.46995 q 0,-0.30332 0.67943,-0.54597 0.69156,-0.24265 1.58938,-0.24265 0.76436,0 0.97062,0.27905 0.14559,0.21839 0.14559,0.37611 z"
       style="font-weight:bold;font-size:12.1327px;line-height:125%;font-family:'Titan One';-inkscape-font-specification:'Titan One Bold';letter-spacing:-0.0568725px;word-spacing:-0.947876px;fill:#ffffff;stroke:#7bb2f7;stroke-width:0.5;stroke-dasharray:none;stroke-opacity:1"
       id="path4398-2" />
    <path
       d="m 173.34327,56.832027 h -2.86331 q -0.5945,0 -0.80076,-0.0849 -0.20626,-0.0849 -0.20626,-0.27906 v -7.65573 q 0,-0.31545 0.26692,-0.44891 0.26692,-0.14559 0.92209,-0.14559 h 2.72986 q 2.32947,0 3.21516,0.92208 0.88569,0.90996 0.88569,3.32436 0,2.41441 -0.92209,3.39716 -0.92208,0.97061 -3.2273,0.97062 z m -0.0971,-6.80645 q -0.29118,0 -0.38824,0.0485 v 4.90161 l 0.46104,0.0485 q 0.36398,0 0.54597,-0.58237 0.19412,-0.58237 0.19412,-2.01403 0,-1.43165 -0.19412,-1.91696 -0.19412,-0.48531 -0.61877,-0.48531 z"
       style="font-weight:bold;font-size:12.1327px;line-height:125%;font-family:'Titan One';-inkscape-font-specification:'Titan One Bold';letter-spacing:-0.0568725px;word-spacing:-0.947876px;fill:#ffffff;stroke:#7bb2f7;stroke-width:0.5;stroke-dasharray:none;stroke-opacity:1"
       id="path4400-3" />
    <path
       d="m 181.67012,56.540837 q 0,0.13346 -0.7401,0.21839 -0.74009,0.0728 -1.49232,0.0728 -0.7401,0 -0.94635,-0.0607 -0.20626,-0.0728 -0.20626,-0.23052 v -7.54654 q 0,-0.26692 0.7037,-0.52171 0.7037,-0.26692 1.57725,-0.26692 0.77649,0 1.01915,0.32759 0.0849,0.12132 0.0849,0.24265 z"
       style="font-weight:bold;font-size:12.1327px;line-height:125%;font-family:'Titan One';-inkscape-font-specification:'Titan One Bold';letter-spacing:-0.0568725px;word-spacing:-0.947876px;fill:#ffffff;stroke:#7bb2f7;stroke-width:0.5;stroke-dasharray:none;stroke-opacity:1"
       id="path4402-6" />
    <path
       d="m 186.6847,56.941217 q -1.00702,0 -1.73498,-0.18199 -0.71583,-0.19412 -1.32246,-0.67943 -1.22541,-0.95849 -1.22541,-3.67621 0,-1.14047 0.32759,-1.98976 0.33971,-0.84929 0.93421,-1.34673 1.16474,-0.97062 3.02105,-0.97062 0.95848,0 1.66218,0.16986 0.71583,0.16986 1.34673,0.61877 1.27393,0.92208 1.27393,3.51848 0,2.32948 -1.15261,3.43355 -1.1526,1.10408 -3.13023,1.10408 z m -0.40038,-2.07469 q 0.14559,0.16986 0.40038,0.16986 0.25478,0 0.40038,-0.16986 0.14559,-0.18199 0.24265,-0.75223 0.0971,-0.58237 0.0971,-1.61365 0,-1.03128 -0.0971,-1.58938 -0.0971,-0.55811 -0.24265,-0.72796 -0.1456,-0.16986 -0.40038,-0.16986 -0.25479,0 -0.40038,0.16986 -0.14559,0.16985 -0.24266,0.72796 -0.0971,0.5581 -0.0971,1.58938 0,1.03128 0.0971,1.61365 0.0971,0.57024 0.24266,0.75223 z"
       style="font-weight:bold;font-size:12.1327px;line-height:125%;font-family:'Titan One';-inkscape-font-specification:'Titan One Bold';letter-spacing:-0.0568725px;word-spacing:-0.947876px;fill:#ffffff;stroke:#7bb2f7;stroke-width:0.5;stroke-dasharray:none;stroke-opacity:1"
       id="path4404-8" />
    <rect
       style="fill:#7bb2f7;fill-opacity:1;fill-rule:evenodd;stroke:none;stroke-width:0.79375;stroke-dasharray:none"
       id="rect4913-3"
       width="0.91666669"
       height="0.89903843"
       x="151.07663"
       y="49.570728" />
    <path
       id="path4917-9"
       style="fill:#7bb2f7;fill-opacity:1;fill-rule:evenodd;stroke:none;stroke-width:0.364991;stroke-linejoin:round;stroke-opacity:1"
       d="m 75.324587,49.086967 c -0.34745,0 -0.62714,0.17811 -0.62714,0.39954 -0.0313,1.44816 0.0292,3.03266 0.0257,4.40799 0,1.13578 1.10776,2.05018 2.48456,2.05216 0.002,0 0.003,3.1e-4 0.004,3.1e-4 10e-5,0 1.5e-4,0 3e-4,0 h 1.5594 c 0.002,0 0.004,-2.9e-4 0.004,-3.1e-4 1.3768,-0.003 2.48456,-0.91638 2.48456,-2.05216 -0.003,-1.37533 0.0571,-2.95983 0.0257,-4.40799 0,-0.22143 -0.27939,-0.39954 -0.62684,-0.39954 z" />
    <path
       id="path4923-7"
       style="fill:#ffffff;fill-rule:evenodd;stroke:#ffffff;stroke-width:0.244551;stroke-linejoin:round"
       d="m 76.107627,51.238277 0.76122,-0.54995 0.27579,0.82527 c 0.13418,0.40152 0.14756,0.0718 0.20505,0.24851 l 0.62309,1.91555 c 0.0575,0.17673 -0.14962,0.33546 -0.33546,0.33546 h -1.53693 c -0.18585,0 -0.33546,-0.14961 -0.33546,-0.33546 v -2.03871 c 0,-0.18585 0.19205,-0.29184 0.3427,-0.40067 z"
       sodipodi:nodetypes="scssssssss" />
    <path
       id="path4925-0"
       style="fill:#ffffff;fill-rule:evenodd;stroke:#ffffff;stroke-width:0.244551;stroke-linejoin:round"
       d="m 77.639067,51.238277 -0.76122,-0.54995 -0.27579,0.82527 c -0.13418,0.40152 -0.14755,0.0718 -0.20504,0.24851 l -0.6231,1.91555 c -0.0575,0.17673 0.14962,0.33546 0.33547,0.33546 h 1.53693 c 0.18584,0 0.33546,-0.14961 0.33546,-0.33546 v -2.03871 c 0,-0.18585 -0.19207,-0.29184 -0.34271,-0.40067 z"
       sodipodi:nodetypes="scssssssss" />
    <path
       style="fill:#ffffff;fill-rule:evenodd;stroke:#ffffff;stroke-width:0.475454px;stroke-linecap:butt;stroke-linejoin:miter;stroke-opacity:1"
       d="m 76.870047,51.123107 -0.006,-2.51172"
       id="path4927-0"
       sodipodi:nodetypes="cc" />
  </g>
</svg>
