<svg width="412" height="42" viewBox="0 0 412 42" fill="none" xmlns="http://www.w3.org/2000/svg">
<path d="M31.56 27.176C31.56 29.416 31.624 31.784 31.56 34.024C31.496 37.608 30.472 38.184 28.296 38.312C26.632 38.44 25.16 38.44 25.16 39.912C25.16 41.256 26.696 41.256 27.528 41.256C29.128 41.256 31.368 41 35.784 41C38.984 41 42.696 41.256 44.296 41.256C45.256 41.256 46.92 41.256 46.92 39.72C46.92 38.568 46.024 38.504 44.36 38.184C42.184 37.864 42.056 36.776 42.056 33.064C41.928 27.432 42.376 7.4 42.248 2.344C42.248 1.32 41.8 0.615997 39.496 0.615997C36.296 0.615997 34.888 1.128 33.544 2.792C25.288 13.096 17.672 22.76 9.992 32.232C7.368 35.432 5.64 37.608 3.272 38.184C1.928 38.568 0.84 38.824 0.84 39.912C0.84 40.296 0.968 41.256 2.76 41.256C4.488 41.256 6.536 41 8.52 41C10.76 41 12.936 41.256 15.112 41.256C16.136 41.256 17.672 41.192 17.672 39.848C17.672 38.76 16.712 38.504 15.56 38.312C14.344 38.12 12.808 37.864 12.808 36.328C12.808 35.432 13.512 34.216 14.28 33.128C15.688 31.144 17.224 28.968 18.312 27.624C18.632 27.176 18.824 27.176 19.336 27.176H31.56ZM31.688 23.848H21.064C24.648 19.304 28.168 14.888 31.688 10.344L31.816 10.408L31.688 23.848ZM54.9935 2.664C54.9935 4.008 56.7215 4.008 57.1695 4.008C58.1935 4.072 59.9215 4.136 59.9215 5.736C59.9215 6.44 59.4735 7.592 59.2175 8.296C56.4015 16.168 53.4575 24.04 50.5135 31.976C48.8495 36.584 48.2095 38.056 45.0095 38.376C43.1535 38.504 42.3855 38.952 42.3855 40.04C42.3855 41.064 43.7295 41.256 44.5615 41.256C45.7135 41.256 47.7615 41 50.0015 41C52.4975 41 54.9935 41.256 56.0175 41.256C56.9135 41.256 58.3215 41.128 58.3215 39.784C58.3215 38.632 57.2335 38.504 56.0815 38.376C54.9295 38.248 53.8415 37.8 53.8415 35.88C53.8415 33.832 55.3135 29.48 56.1455 27.176C58.3855 21.096 60.6895 15.08 62.9295 9.064H63.0575C63.1855 11.56 63.1855 13.992 63.3135 16.488C63.5055 23.336 63.6975 30.184 63.8895 36.968C63.8895 39.784 64.0815 40.936 66.3215 40.936C68.1135 40.936 68.5615 40.424 69.5855 38.952C76.3055 28.968 83.0895 19.048 89.8095 9.064L90.0015 9.128C87.9535 17.256 85.9055 25.448 83.8575 33.576C83.0895 36.456 82.5775 38.248 78.7375 38.312C77.7775 38.376 76.5615 38.696 76.5615 39.912C76.5615 41.256 78.4175 41.256 79.5695 41.256C80.8495 41.256 83.9855 41 87.2495 41C91.6015 41 95.2495 41.256 96.9775 41.256C97.8095 41.256 99.6015 41.256 99.6015 39.656C99.6015 38.632 98.5135 38.376 97.1055 38.376C96.0175 38.312 94.4175 38.056 94.4175 36.584C94.4175 35.88 94.7375 34.664 94.9935 33.512C97.1055 25.256 99.0895 17 101.138 8.808C102.162 4.776 102.802 4.2 105.618 4.072C106.13 4.008 107.922 3.88 107.922 2.472C107.922 1.576 107.09 1.128 105.426 1.128C103.826 1.128 100.626 1.32 98.3855 1.32C95.3775 1.32 94.0975 1.128 92.4335 1.128C90.8335 1.192 90.5135 1.832 89.2335 3.816C84.3055 10.92 79.3135 18.088 74.3855 25.256H74.2575C74.0655 18.152 73.8735 11.048 73.6815 4.008C73.6815 1.832 73.8095 1.128 72.3375 1.128C70.8015 1.128 67.9215 1.32 64.9135 1.32C61.6495 1.32 59.4735 1.128 57.8095 1.128C56.9775 1.128 54.9935 1.128 54.9935 2.6V2.664ZM113.247 36.136C113.247 35.112 113.887 33.064 114.143 32.104L120.927 9C122.015 5.416 122.271 4.392 125.215 4.2C127.199 4.008 128.543 3.944 128.543 2.472C128.543 1.128 126.879 1.128 126.367 1.128C123.871 1.128 121.311 1.384 116.895 1.384C112.927 1.384 110.559 1.128 108.447 1.128C107.551 1.128 105.119 1.064 105.119 2.728C105.119 4.072 106.719 4.2 107.295 4.136C109.023 4.136 110.431 4.264 110.431 5.736C110.431 6.504 110.175 7.4 109.791 8.68L102.751 32.552C101.599 36.584 101.023 37.864 98.4625 38.056C96.0305 38.248 94.6865 38.312 94.6865 39.848C94.6865 40.744 95.7105 41.256 97.1825 41.256C99.2945 41.256 102.367 41 105.567 41C110.431 41 113.439 41.256 115.231 41.256C116.319 41.256 118.367 41.256 118.367 39.592C118.367 38.312 117.023 38.248 116.191 38.248C114.783 38.184 113.247 37.864 113.247 36.2V36.136ZM120.898 26.408C120.898 29.096 121.858 35.112 127.682 38.76C131.01 40.808 135.49 41.896 140.866 41.896C143.938 41.896 148.61 41.384 151.874 40.808C154.882 40.296 156.226 39.976 156.61 38.76L159.554 28.392C160.258 26.024 160.578 24.808 163.01 24.488C164.93 24.168 166.146 24.104 166.146 22.76C166.146 21.416 164.61 21.416 163.778 21.416C162.178 21.416 158.658 21.736 154.818 21.736C152.13 21.736 149.25 21.416 146.562 21.416C145.346 21.416 143.618 21.736 143.618 23.208C143.618 24.488 145.218 24.488 146.178 24.552C148.098 24.68 148.866 25.32 148.866 26.536C148.866 27.24 148.674 28.008 148.482 28.648L146.69 34.856C146.37 35.88 145.986 37.16 145.346 37.672C144.642 38.312 143.362 38.568 142.274 38.568C139.586 38.568 137.282 37.48 135.554 35.24C133.954 33.256 132.802 30.248 132.802 27.24C132.802 20.584 136.066 14.76 140.098 10.92C144.898 6.056 151.234 3.56 155.458 3.56C158.146 3.56 158.658 4.456 158.658 5.608C158.658 6.632 158.274 9.192 158.274 10.344C158.274 11.56 158.722 12.776 160.194 12.776C161.602 12.776 162.178 11.688 162.754 10.216C163.458 8.552 164.546 5.864 165.122 4.136C165.442 3.368 165.634 2.792 165.634 2.408C165.634 1.576 164.738 1.192 163.842 0.935997C161.922 0.295998 158.978 0.295998 157.122 0.295998C148.674 0.295998 140.162 2.728 133.698 6.76C126.274 11.368 120.898 18.536 120.898 26.344V26.408ZM189.188 27.176C189.188 29.416 189.252 31.784 189.188 34.024C189.124 37.608 188.1 38.184 185.924 38.312C184.26 38.44 182.788 38.44 182.788 39.912C182.788 41.256 184.324 41.256 185.156 41.256C186.756 41.256 188.996 41 193.412 41C196.612 41 200.324 41.256 201.924 41.256C202.884 41.256 204.548 41.256 204.548 39.72C204.548 38.568 203.652 38.504 201.988 38.184C199.812 37.864 199.684 36.776 199.684 33.064C199.556 27.432 200.004 7.4 199.876 2.344C199.876 1.32 199.428 0.615997 197.124 0.615997C193.924 0.615997 192.516 1.128 191.172 2.792C182.916 13.096 175.3 22.76 167.62 32.232C164.996 35.432 163.268 37.608 160.9 38.184C159.556 38.568 158.468 38.824 158.468 39.912C158.468 40.296 158.596 41.256 160.388 41.256C162.116 41.256 164.164 41 166.148 41C168.388 41 170.564 41.256 172.74 41.256C173.764 41.256 175.3 41.192 175.3 39.848C175.3 38.76 174.34 38.504 173.188 38.312C171.972 38.12 170.436 37.864 170.436 36.328C170.436 35.432 171.14 34.216 171.908 33.128C173.316 31.144 174.852 28.968 175.94 27.624C176.26 27.176 176.452 27.176 176.964 27.176H189.188ZM189.316 23.848H178.692C182.276 19.304 185.796 14.888 189.316 10.344L189.444 10.408L189.316 23.848ZM220.877 30.12C220.557 23.08 220.237 15.976 219.853 8.872V7.4C219.725 4.84 220.237 4.008 222.925 3.944C223.949 3.944 225.165 3.624 225.165 2.472C225.165 1.192 223.693 1.128 222.733 1.128C221.389 1.128 218.381 1.384 214.861 1.384C211.597 1.384 208.269 1.128 207.053 1.128C206.221 1.128 203.981 1.128 203.981 2.664C203.981 3.304 204.429 3.944 205.773 4.008C208.205 4.2 208.909 4.456 208.973 7.336C209.485 18.024 209.933 28.776 210.381 39.528C210.381 40.808 210.509 41.576 213.901 41.576C216.781 41.576 217.229 41.192 217.805 40.36C225.101 29.992 232.397 19.688 239.693 9.384C241.613 6.696 243.085 4.456 246.221 3.944C247.757 3.688 248.397 3.432 248.397 2.344C248.397 1.128 247.053 1.128 245.837 1.128C244.813 1.128 242.125 1.384 239.949 1.384C237.965 1.384 236.237 1.128 235.149 1.128C234.317 1.128 232.845 1.128 232.845 2.536C232.845 3.624 233.741 3.816 234.765 3.944C235.533 4.072 236.813 4.264 236.813 5.416C236.813 6.504 236.045 8.04 235.405 9C230.605 16.168 225.741 23.144 221.005 30.12H220.877ZM253.392 36.136C253.392 35.112 254.031 33.064 254.288 32.104L261.072 9C262.16 5.416 262.416 4.392 265.36 4.2C267.344 4.008 268.688 3.944 268.688 2.472C268.688 1.128 267.024 1.128 266.512 1.128C264.016 1.128 261.455 1.384 257.04 1.384C253.071 1.384 250.703 1.128 248.592 1.128C247.695 1.128 245.263 1.064 245.263 2.728C245.263 4.072 246.863 4.2 247.439 4.136C249.167 4.136 250.576 4.264 250.576 5.736C250.576 6.504 250.319 7.4 249.936 8.68L242.895 32.552C241.743 36.584 241.167 37.864 238.607 38.056C236.175 38.248 234.831 38.312 234.831 39.848C234.831 40.744 235.855 41.256 237.327 41.256C239.439 41.256 242.511 41 245.712 41C250.576 41 253.583 41.256 255.375 41.256C256.464 41.256 258.512 41.256 258.512 39.592C258.512 38.312 257.167 38.248 256.336 38.248C254.927 38.184 253.392 37.864 253.392 36.2V36.136ZM267.251 12.904C267.251 17.768 270.899 20.776 274.419 23.528C278.835 26.92 280.819 29.032 280.819 32.04C280.819 35.816 277.555 38.568 273.459 38.568C270.707 38.568 268.723 37.48 267.507 35.624C266.483 34.088 266.163 32.168 265.779 30.504C265.459 29.224 265.075 28.136 263.731 28.136C262.643 28.136 262.195 28.904 261.747 30.504C261.299 32.296 260.467 35.304 260.467 36.904C260.467 38.056 261.491 38.824 262.835 39.464C266.163 41.064 271.859 41.896 274.483 41.896C285.171 41.896 292.979 35.432 292.979 27.944C292.979 23.208 289.587 20.2 285.555 17.064C280.691 13.288 278.835 11.752 278.835 8.872C278.835 5.352 282.483 3.304 285.683 3.304C288.051 3.304 289.907 4.264 290.803 5.992C291.763 7.912 292.019 9.384 292.467 10.6C292.723 11.368 293.107 12.072 294.003 12.072C295.347 12.072 295.667 10.408 295.923 9.576C296.115 8.808 296.499 7.4 296.883 6.056C297.075 5.288 297.331 4.328 297.331 3.944C297.331 2.984 296.499 2.408 295.475 1.96C292.659 0.551998 288.115 0.295998 284.979 0.295998C277.171 0.295998 267.251 3.56 267.251 12.84V12.904ZM309.084 36.136C309.084 35.112 309.724 33.064 309.98 32.104L316.764 9C317.852 5.416 318.108 4.392 321.052 4.2C323.036 4.008 324.38 3.944 324.38 2.472C324.38 1.128 322.716 1.128 322.204 1.128C319.708 1.128 317.148 1.384 312.732 1.384C308.764 1.384 306.396 1.128 304.284 1.128C303.388 1.128 300.956 1.064 300.956 2.728C300.956 4.072 302.556 4.2 303.132 4.136C304.86 4.136 306.268 4.264 306.268 5.736C306.268 6.504 306.012 7.4 305.628 8.68L298.588 32.552C297.436 36.584 296.86 37.864 294.3 38.056C291.868 38.248 290.524 38.312 290.524 39.848C290.524 40.744 291.548 41.256 293.02 41.256C295.132 41.256 298.204 41 301.404 41C306.268 41 309.276 41.256 311.068 41.256C312.156 41.256 314.204 41.256 314.204 39.592C314.204 38.312 312.86 38.248 312.028 38.248C310.62 38.184 309.084 37.864 309.084 36.2V36.136ZM362.751 17.064C362.751 7.72 355.711 0.295998 344.831 0.295998C331.711 0.295998 319.487 10.664 319.487 24.616C319.487 29.544 321.343 33.896 324.863 37.16C328.127 40.296 332.415 41.896 337.535 41.896C351.551 41.896 362.751 29.928 362.751 17.128V17.064ZM345.023 3.496C349.823 3.496 351.935 6.952 351.935 12.008C351.935 18.088 348.415 28.456 345.663 33C344.191 35.624 341.119 38.696 337.087 38.696C332.863 38.696 330.175 35.496 330.175 30.44C330.175 27.048 331.775 20.328 334.015 14.824C336.575 8.616 340.223 3.496 344.959 3.496H345.023ZM394.838 27.496C391.126 19.56 387.35 11.56 383.638 3.624C382.806 1.96 382.742 1.128 381.334 1.128C380.182 1.128 377.686 1.32 374.934 1.32C371.99 1.32 370.134 1.128 369.046 1.128C367.638 1.128 366.294 1.128 366.294 2.472C366.294 3.944 367.638 4.008 368.534 4.008C369.558 4.008 371.158 4.2 371.158 5.672C371.158 6.312 370.838 7.464 370.518 8.488C368.214 16.424 365.91 24.296 363.542 32.232C362.966 34.216 362.326 36.072 361.366 37.224C360.598 38.056 359.574 38.248 358.294 38.376C357.142 38.504 356.31 38.824 356.31 39.848C356.31 41.256 358.102 41.256 358.998 41.256C360.022 41.256 361.814 41 363.862 41C366.23 41 369.11 41.256 369.814 41.256C370.582 41.256 372.182 41.256 372.182 39.784C372.182 38.76 371.35 38.44 370.07 38.248C368.598 38.12 367.19 37.8 367.19 35.816C367.19 34.024 367.958 31.272 368.534 29.288C370.39 22.568 372.246 15.912 374.102 9.256H374.23L388.758 40.168C389.526 41.512 389.27 41.64 392.342 41.64C394.71 41.64 394.902 41.32 395.222 40.232C398.23 29.992 401.302 19.752 404.246 9.512C405.462 5.608 406.102 4.456 408.278 4.264C410.39 4.008 411.542 3.88 411.542 2.536C411.542 1.128 410.006 1.128 409.494 1.128C408.47 1.128 406.166 1.384 403.99 1.384C401.75 1.384 400.086 1.128 399.19 1.128C398.102 1.128 396.054 1.128 396.054 2.728C396.054 3.816 397.078 4.008 398.038 4.072C399.446 4.136 400.982 4.264 400.982 5.8C400.982 6.888 400.662 7.976 400.342 8.936C398.614 15.144 396.822 21.352 394.966 27.496H394.838Z" fill="white"/>
</svg>
