<?xml version="1.0" encoding="UTF-8"?>
<svg xmlns="http://www.w3.org/2000/svg" xmlns:xlink="http://www.w3.org/1999/xlink" viewBox="0 0 3000 3000">
  <defs>
    <style>
      .cls-1 {
        fill: #22e2f8;
      }

      .cls-1, .cls-2, .cls-3, .cls-4, .cls-5, .cls-6, .cls-7 {
        stroke-width: 0px;
      }

      .cls-1, .cls-3, .cls-7 {
        fill-rule: evenodd;
      }

      .cls-8 {
        isolation: isolate;
      }

      .cls-9 {
        opacity: .2;
      }

      .cls-10 {
        mix-blend-mode: soft-light;
      }

      .cls-2 {
        fill: none;
      }

      .cls-3 {
        fill: url(#linear-gradient);
      }

      .cls-4 {
        fill: url(#linear-gradient-2);
      }

      .cls-5 {
        fill: url(#linear-gradient-3);
      }

      .cls-6 {
        fill: #43f4f8;
      }

      .cls-7 {
        fill: url(#linear-gradient-4);
      }
    </style>
    <linearGradient id="linear-gradient" x1="557.34" y1="1500" x2="2442.66" y2="1500" gradientUnits="userSpaceOnUse">
      <stop offset="0" stop-color="#1eafc0"/>
      <stop offset=".19" stop-color="#1eafc0" stop-opacity="0"/>
    </linearGradient>
    <linearGradient id="linear-gradient-2" x1="448.56" y1="1938.49" x2="2773" y2="1938.49" gradientUnits="userSpaceOnUse">
      <stop offset="0" stop-color="#0f7589"/>
      <stop offset=".74" stop-color="#24c7d8"/>
      <stop offset=".91" stop-color="#2eedfc"/>
    </linearGradient>
    <linearGradient id="linear-gradient-3" x1="448.56" y1="1781.37" x2="2773" y2="1781.37" xlink:href="#linear-gradient-2"/>
    <linearGradient id="linear-gradient-4" x1="1500" y1="2751.09" x2="1500" y2="248.91" gradientUnits="userSpaceOnUse">
      <stop offset=".12" stop-color="#000"/>
      <stop offset=".18" stop-color="#0a0a0a" stop-opacity=".85"/>
      <stop offset="1" stop-color="#fff" stop-opacity="0"/>
    </linearGradient>
  </defs>
  <g class="cls-8">
    <g id="MAIN">
      <path class="cls-1" d="M1500,2751.09l-942.65-544.12V248.91s715.44,412.98,715.44,412.98v283.95l-257.26-148.89v1014.45l-361.47,264.41,396.68-160.97,449.27,259.34,449.27-259.34,396.68,160.97-361.47-264.41v-1014.45l-257.26,148.89v-283.95l715.44-412.98v1958.07s-942.66,544.12-942.66,544.12M1727.31,1068.64l186.84-107.74v850.48l-414.15,239.94-413.97-239.94v-850.48l186.84,107.74v681.85l227.13,130.99,227.31-130.99v-681.85Z"/>
      <g id="GRAD_0" data-name="GRAD 0">
        <path class="cls-3" d="M1500,2751.09l-942.65-544.12V248.91s715.44,412.98,715.44,412.98v283.95l-257.26-148.89v1014.45l-361.47,264.41,396.68-160.97,449.27,259.34,449.27-259.34,396.68,160.97-361.47-264.41v-1014.45l-257.26,148.89v-283.95l715.44-412.98v1958.07s-942.66,544.12-942.66,544.12M1727.31,1068.64l186.84-107.74v850.48l-414.15,239.94-413.97-239.94v-850.48l186.84,107.74v681.85l227.13,130.99,227.31-130.99v-681.85Z"/>
      </g>
      <g>
        <polygon class="cls-2" points="2442.66 248.91 1727.22 661.89 1727.22 945.83 1984.47 796.94 1984.47 1549.35 2442.66 1549.35 2442.66 248.91"/>
        <path class="cls-2" d="M1015.52,1479.73v-682.79l257.26,148.89v-283.95L557.34,248.91v878.44c106.01,111.8,277.26,262.35,458.18,352.39Z"/>
        <path class="cls-2" d="M1086.03,1511.4c62.74,25.01,125.77,41.35,186.84,44.99v-487.74l-186.84-107.74v550.49Z"/>
        <polygon class="cls-2" points="1497.46 2749.62 1500 2751.09 1502.55 2749.62 1497.46 2749.62"/>
        <polygon class="cls-2" points="1914.15 960.9 1727.31 1068.64 1727.31 1549.35 1914.15 1549.35 1914.15 960.9"/>
        <path class="cls-4" d="M2442.65,2206.97v-657.62s-458.18,0-458.18,0v262.04l361.47,264.41-396.68-160.97-449.27,259.34-449.27-259.34-396.68,160.97,361.47-264.41v-331.66c-180.92-90.04-352.17-240.59-458.18-352.39v1079.63s940.11,542.65,940.11,542.65h5.09s940.11-542.65,940.11-542.65Z"/>
        <path class="cls-5" d="M1086.03,1811.39l413.97,239.94,414.15-239.94v-262.04h-186.84v201.14l-227.31,130.99-227.13-130.99v-194.11c-61.07-3.64-124.1-19.98-186.84-44.99v299.99Z"/>
      </g>
    </g>
    <g id="OUTLINE">
      <g>
        <g class="cls-9">
          <path class="cls-6" d="M1880.15,1018.76v772.04l-380.14,220.24-379.97-220.24v-772.04l118.84,68.53v681.85l17.01,9.81,227.13,130.99,16.98,9.79,16.98-9.79,227.31-130.99,17.02-9.81v-681.85l118.84-68.53M1914.15,959.9l-186.84,107.74v681.85l-227.31,130.99-227.13-130.99v-681.85l-186.84-107.74v850.48l413.97,239.94,414.15-239.94v-850.48h0Z"/>
        </g>
        <g class="cls-9">
          <path class="cls-6" d="M2408.66,306.79v1771.75s-42.63-31.18-42.63-31.18l-347.55-254.22V736.98l-51.03,29.54-206.22,119.36v-205.35l647.44-373.73M591.34,306.79l647.44,373.73v205.35l-206.22-119.36-51.03-29.54v1056.16l-347.55,254.22-42.63,31.18V306.79M1951.88,1951.58l381.29,154.72,75.49,30.63v49.41l-908.65,524.49-908.65-524.49v-49.41s75.49-30.63,75.49-30.63l381.29-154.72,434.88,251.04,17,9.81,17-9.81,434.88-251.04M2442.66,247.91l-715.44,412.98v283.95l257.26-148.9v1014.45l361.47,264.41-396.68-160.97-449.27,259.34-449.27-259.34-396.68,160.97,361.47-264.41v-1014.45l257.26,148.9v-283.95L557.34,247.91v1958.07s942.66,544.12,942.66,544.12l942.65-544.12V247.91h0Z"/>
        </g>
      </g>
    </g>
    <g id="GRAD_1" data-name="GRAD 1">
      <g class="cls-10">
        <path class="cls-7" d="M1500,2751.09l-942.65-544.12V248.91s715.44,412.98,715.44,412.98v283.95l-257.26-148.89v1014.45l-361.47,264.41,396.68-160.97,449.27,259.34,449.27-259.34,396.68,160.97-361.47-264.41v-1014.45l-257.26,148.89v-283.95l715.44-412.98v1958.07s-942.66,544.12-942.66,544.12M1727.31,1068.64l186.84-107.74v850.48l-414.15,239.94-413.97-239.94v-850.48l186.84,107.74v681.85l227.13,130.99,227.31-130.99v-681.85Z"/>
      </g>
    </g>
  </g>
</svg>