<?xml version="1.0" encoding="utf-8"?>
<!-- Generator: Adobe Illustrator 26.3.1, SVG Export Plug-In . SVG Version: 6.00 Build 0)  -->
<svg version="1.1" id="Layer_1" xmlns="http://www.w3.org/2000/svg" xmlns:xlink="http://www.w3.org/1999/xlink" x="0px" y="0px"
	 viewBox="0 0 1834.7 784.4" style="enable-background:new 0 0 1834.7 784.4;" xml:space="preserve">
<style type="text/css">
	.st0{fill:#222630;}
	.st1{fill:none;stroke:#FFFFFF;stroke-width:7;stroke-miterlimit:10;}
	.st2{fill:#FFFFFF;}
</style>
<g>
	<path class="st0" d="M-39.1-16.7v817.9h1913V-16.7H-39.1z M647.4,549c-19.5,19.7-45.1,29.5-76.8,29.5c-31.7,0-57.3-9.5-76.8-28.6
		c-19.5-19.1-29.2-44.1-29.2-75v-14.9c0-1.9,0.7-3.5,2-4.9c1.3-1.3,3-2,4.9-2h52.1c1.9,0,3.5,0.7,4.9,2c1.3,1.4,2,3,2,4.9v11.5
		c0,14.9,3.7,26.9,11.2,36.1c7.4,9.2,17.1,13.8,28.9,13.8c11.8,0,21.6-4.3,29.2-12.9c7.6-8.6,11.5-20,11.5-34.1
		c0-9.9-2.1-18.5-6.3-25.8c-4.2-7.2-10.1-14.1-17.8-20.6c-7.6-6.5-19.9-15.8-36.6-28.1c-19.1-13.8-34.5-26-46.1-36.7
		c-11.7-10.7-21.4-23.6-29.2-38.7c-7.8-15.1-11.8-32.5-11.8-52.4c0-31.7,9.5-56.9,28.6-75.6c19.1-18.7,44.3-28.1,75.6-28.1
		c31.7,0,57.3,9.8,76.8,29.5c19.5,19.7,29.2,45.7,29.2,78.2v13.8c0,1.9-0.7,3.5-2,4.9c-1.3,1.3-3,2-4.9,2h-51.5
		c-1.9,0-3.5-0.7-4.9-2c-1.3-1.3-2-3-2-4.9v-14.9c0-14.9-3.7-26.8-11.2-35.8c-7.5-9-17.3-13.5-29.5-13.5c-11.5,0-20.8,4.1-28.1,12.3
		c-7.3,8.2-10.9,19.6-10.9,34.1c0,13.8,3.9,25.4,11.7,34.9c7.8,9.6,23.2,22.7,46.1,39.5c23.3,17.2,40.9,31.2,52.7,42.1
		c11.8,10.9,21,22.8,27.5,35.8c6.5,13,9.7,28.4,9.7,46.4C676.7,503.2,666.9,529.3,647.4,549z M901.2,464.5
		c0,33.2-9.8,59.8-29.5,79.6c-19.7,19.9-45.9,29.8-78.8,29.8H695c-1.9,0-3.5-0.7-4.9-2c-1.3-1.3-2-3-2-4.9V179.8
		c0-1.9,0.7-3.5,2-4.9c1.3-1.3,3-2,4.9-2h97.9c32.8,0,59.1,9.9,78.8,29.8c19.7,19.9,29.5,46.4,29.5,79.6V464.5z M791.2,230.2h-33.8
		c-1.9,0-2.9,1-2.9,2.9v280.7c0,1.9,0.9,2.9,2.9,2.9l34.4-0.6c12.6,0,22.8-5,30.6-15.2c7.8-10.1,11.9-23.6,12.3-40.4V286.3
		c0-17.2-3.9-30.8-11.7-40.9C815.2,235.3,804.6,230.2,791.2,230.2z"/>
	<path class="st1" d="M1421.7,695.5H418.1c-4,0-7.2-3.2-7.2-7.2V89.6c0-4,3.2-7.2,7.2-7.2h1003.6c4,0,7.2,3.2,7.2,7.2v598.7
		C1428.9,692.2,1425.7,695.5,1421.7,695.5z"/>
	<path class="st1" d="M1609.4,474.2h-136.4c-12.6,0-23-10.3-23-23v-139c0-12.6,10.4-23,23-23h136.4c12.6,0,23,10.4,23,23v139
		C1632.4,463.9,1622.1,474.2,1609.4,474.2z"/>
	<path class="st1" d="M366.2,474.2H229.8c-12.6,0-23-10.3-23-23v-139c0-12.6,10.4-23,23-23h136.4c12.6,0,23,10.4,23,23v139
		C389.2,463.9,378.8,474.2,366.2,474.2z"/>
	<path class="st1" d="M1593.9,730h-1353C93.7,730,55.6,613.2,55.6,514.2V154.4c0-55,45-100,100-100h1523.5c55,0,100,45,100,100
		v359.8C1779.1,613.2,1741.9,730,1593.9,730z"/>
	<path class="st1" d="M208.3,155.5v1.8c0,10.6-8.6,19.2-19.2,19.2h-20.4V197c0,10.6-8.6,19.2-19.2,19.2h-1.8
		c-10.6,0-19.2-8.6-19.2-19.2v-20.4H108c-10.6,0-19.2-8.6-19.2-19.2v-1.8c0-10.6,8.6-19.2,19.2-19.2h20.4v-20.4
		c0-10.6,8.6-19.2,19.2-19.2h1.8c10.6,0,19.2,8.6,19.2,19.2v20.4h20.4C199.7,136.3,208.3,144.9,208.3,155.5z"/>
	<path class="st2" d="M1071,174.9c1.3-1.3,3-2,4.9-2h52.7c1.9,0,3.5,0.7,4.9,2c1.3,1.3,2,3,2,4.9V567c0,1.9-0.7,3.5-2,4.9
		c-1.3,1.3-3,2-4.9,2h-52.7c-1.9,0-3.5-0.7-4.9-2c-1.3-1.3-2-3-2-4.9V404.9c0-1.9-1-2.9-2.9-2.9h-72.7c-1.9,0-2.9,1-2.9,2.9V567
		c0,1.9-0.7,3.5-2,4.9c-1.3,1.3-3,2-4.9,2H931c-1.9,0-3.5-0.7-4.9-2c-1.3-1.3-2-3-2-4.9V179.8c0-1.9,0.7-3.5,2-4.9
		c1.3-1.3,3-2,4.9-2h52.7c1.9,0,3.5,0.7,4.9,2c1.3,1.3,2,3,2,4.9v161.5c0,1.9,0.9,2.9,2.9,2.9h72.7c1.9,0,2.9-0.9,2.9-2.9V179.8
		C1069,177.9,1069.7,176.3,1071,174.9z"/>
	<path class="st2" d="M1339.3,199.3c19.5,20.6,29.2,47.5,29.2,80.8v186.7c0,26.3-6.3,49-18.9,67.9c-12.6,18.9-30,31.8-52.1,38.7
		c-1.5,0.4-2.3,1.3-2.3,2.9v50.4c0,1.9-0.7,3.5-2,4.9c-1.3,1.3-3,2-4.9,2h-52.7c-1.9,0-3.5-0.7-4.9-2c-1.3-1.3-2-3-2-4.9v-50.4
		c0-1.5-0.8-2.5-2.3-2.9c-21.8-7.2-38.9-20.2-51.5-38.9c-12.6-18.7-18.9-41.2-18.9-67.6V280c0-33.2,9.7-60.1,29.2-80.8
		c19.5-20.6,45.1-30.9,76.8-30.9C1294.1,168.3,1319.9,178.7,1339.3,199.3z M1302.1,273.2c0-14.1-3.7-25.6-11.2-34.4
		c-7.4-8.8-17.1-13.2-28.9-13.2c-11.8,0-21.4,4.4-28.6,13.2c-7.3,8.8-10.9,20.2-10.9,34.4v200.5c0,14.1,3.6,25.6,10.9,34.4
		c7.2,8.8,16.8,13.2,28.6,13.2c11.8,0,21.5-4.4,28.9-13.2c7.4-8.8,11.2-20.2,11.2-34.4V273.2z"/>
	<circle class="st1" cx="309.6" cy="181.1" r="54.3"/>
	<circle class="st1" cx="1522.5" cy="181.1" r="54.3"/>
	<circle class="st1" cx="1680.8" cy="104.5" r="25.2"/>
	<circle class="st1" cx="1680.8" cy="209.5" r="25.2"/>
	<path class="st1" d="M55.6,289.2H122c11,0,20,9,20,20v130.9c0,22.2,6.7,43.9,19.3,62.2L317.6,730"/>
	<path class="st1" d="M1779.1,289.2h-66.4c-11,0-20,9-20,20v130.9c0,22.2-6.7,43.9-19.3,62.2L1517.1,730"/>
	<circle class="st1" cx="1733.3" cy="157" r="25.2"/>
	<circle class="st1" cx="1628.3" cy="157" r="25.2"/>
</g>
</svg>
