<?xml version="1.0" encoding="UTF-8" standalone="no"?>
<svg
   viewBox="0 0 1280 800"
   version="1.1"
   id="svg29"
   sodipodi:docname="valentines.svg"
   inkscape:version="1.2.2 (732a01da63, 2022-12-09)"
   xmlns:inkscape="http://www.inkscape.org/namespaces/inkscape"
   xmlns:sodipodi="http://sodipodi.sourceforge.net/DTD/sodipodi-0.dtd"
   xmlns:xlink="http://www.w3.org/1999/xlink"
   xmlns="http://www.w3.org/2000/svg"
   xmlns:svg="http://www.w3.org/2000/svg">
  <defs
     id="defs33">
    <linearGradient
       inkscape:collect="always"
       id="linearGradient1106">
      <stop
         style="stop-color:#ee3da8;stop-opacity:1;"
         offset="0"
         id="stop1102" />
      <stop
         style="stop-color:#ff0000;stop-opacity:1;"
         offset="1"
         id="stop1104" />
    </linearGradient>
    <linearGradient
       inkscape:collect="always"
       xlink:href="#linearGradient1106"
       id="linearGradient1108"
       x1="-869.01039"
       y1="-605.28591"
       x2="-586.92839"
       y2="-605.28591"
       gradientUnits="userSpaceOnUse" />
  </defs>
  <sodipodi:namedview
     id="namedview31"
     pagecolor="#ffffff"
     bordercolor="#111111"
     borderopacity="1"
     inkscape:showpageshadow="0"
     inkscape:pageopacity="0"
     inkscape:pagecheckerboard="1"
     inkscape:deskcolor="#d1d1d1"
     showgrid="false"
     inkscape:zoom="0.47773438"
     inkscape:cx="634.24366"
     inkscape:cy="58.609975"
     inkscape:window-width="1920"
     inkscape:window-height="1009"
     inkscape:window-x="-8"
     inkscape:window-y="-8"
     inkscape:window-maximized="1"
     inkscape:current-layer="svg29" />
  <linearGradient
     id="_Linear1"
     x1="0"
     y1="0"
     x2="1"
     y2="0"
     gradientUnits="userSpaceOnUse"
     gradientTransform="matrix(282.082,0,0,150,-869.01039,-605.28591)">
    <stop
       offset="0"
       style="stop-color:rgb(201,87,230);stop-opacity:1"
       id="stop2" />
    <stop
       offset="0.01"
       style="stop-color:rgb(201,87,230);stop-opacity:1"
       id="stop4" />
    <stop
       offset="0.9"
       style="stop-color:rgb(26,159,255);stop-opacity:1"
       id="stop6" />
    <stop
       offset="1"
       style="stop-color:rgb(26,159,255);stop-opacity:1"
       id="stop8" />
  </linearGradient>
  <linearGradient
     id="_Linear2"
     x1="0"
     y1="0"
     x2="1"
     y2="0"
     gradientUnits="userSpaceOnUse"
     gradientTransform="matrix(2683.84,0,0,1000,0,500)">
    <stop
       offset="0"
       style="stop-color:#ff0000;stop-opacity:0.08633094;"
       id="stop11" />
    <stop
       offset="0.01"
       style="stop-color:#ff0000;stop-opacity:1;"
       id="stop13" />
    <stop
       offset="0.89999998"
       style="stop-color:#ee3da8;stop-opacity:1;"
       id="stop15" />
    <stop
       offset="1"
       style="stop-color:#ee3da8;stop-opacity:1;"
       id="stop17" />
  </linearGradient>
  <g
     id="DECK"
     transform="matrix(0.476929,0,0,0.476929,124,161.536)"
     style="fill:#ee3da8;fill-opacity:0.47175139">
    <g
       id="g1475"
       transform="matrix(3.1968689,0,0,3.1968689,639.32552,-391.99276)"
       style="fill:#ee3da8;fill-opacity:0.47175139">
		<path
   d="m 518.604,292.991 c -22.195,-0.669 -38.346,-6.053 -48.435,14.803 -10.089,20.856 -39.685,26.909 -57.174,9.419 -17.49,-17.489 1.348,-25.561 -20.856,-36.997 -22.194,-11.437 22.195,-4.705 30.944,9.419 8.74,14.124 15.473,-6.722 5.384,-18.159 -10.088,-11.437 39.015,20.856 20.855,-8.07 -18.158,-28.927 94.182,23.543 16.821,-22.195 40.028,0.335 27.912,-16.82 18.503,-18.503 -9.419,-1.683 34.646,-10.088 1.014,-20.521 -16.142,-6.723 53.817,-27.913 -11.771,-23.877 -19.88,0.134 -21.859,-22.874 -46.082,-39.35 -24.222,-16.477 -47.765,-7.736 -64.575,22.194 -16.81,29.93 -46.082,38.011 -50.117,16.142 -4.035,-21.86 32.293,-19.842 27.913,-50.117 -4.37,-30.275 22.194,-42.716 -13.454,-57.174 -35.649,-14.458 -31.948,-34.31 -56.17,-22.874 -24.212,11.437 -39.015,3.031 -41.367,28.257 -2.353,25.226 -27.187,9.715 -13.12,38.011 15.472,31.116 1.31,28.926 2.018,35.314 0,0 2.218,22.204 13.454,29.261 14.812,9.304 22.539,10.088 23.878,10.768 -2.018,10.423 -30.438,21.697 -39.35,7.401 l -39.015,-77.361 c 0,0 18.159,-78.365 -31.614,-49.782 -22.874,17.825 34.979,25.895 -4.37,52.804 -22.194,11.437 -62.443,29.921 -71.862,77.686 L 36.779,190.148 V 168.623 L 0,189.793 36.777,220.642 v -19.728 l 30.973,11.045 c 0,0 -2.582,35.286 12.555,54.793 21.468,27.674 53.674,44.398 53.674,65.924 0,21.526 -25.972,18.159 -13.187,39.015 12.785,20.856 40.153,-8.749 30.064,-51.8 l 50.012,-52.47 c 0,0 14.287,-12.784 46.531,16.199 l 29.654,26.852 c 0,0 -3.338,63.237 16.17,84.762 19.508,21.525 43.92,38.709 67.281,49.104 43.061,19.173 15.816,53.139 37.007,54.487 0,0 37.342,-7.066 28.593,-47.42 -8.74,-40.364 -18.494,-35.994 -31.614,-36.998 -23.878,-5.049 -25.896,-28.257 -22.873,-46.751 3.031,-18.503 57.519,78.03 112.675,-8.74 29.901,-42.122 43.729,-37.666 53.817,-40.363 10.1,-2.688 2.698,-24.883 -19.505,-25.562 z M 148.63,304.763 c -1.683,-4.035 -0.334,-2.018 -15.807,-22.873 -15.472,-20.856 -8.97,-48.549 -8.97,-48.549 34.645,21.19 65.14,28.362 65.14,28.362 z m 43.385,-84.083 -67.052,-14.42 c -9.419,-65.255 44.179,-77.064 44.179,-77.064 l 35.314,73.66 c -12.106,4.37 -12.441,17.824 -12.441,17.824 z"
   id="path1473"
   style="fill:#ee3da8;fill-opacity:0.47175139" />

	</g>
  </g>
  <g
     id="Gamepad"
     transform="matrix(0.2462391,-0.40844532,0.40844532,0.2462391,497.9337,284.88232)"
     style="fill-opacity:1;fill:url(#linearGradient1108)">
    <path
       d="m 1650,476.924 h 78.84 v 204.66 l 270.54,-204.795 h 117.86 l -163.89,124.065 180.62,254.205 -97.06,-0.27 -146.34,-206.28 -161.73,122.58 v 83.835 H 1650 Z m -512.74,37.395 c 12.06,-12.06 25.4,-21.285 40.03,-27.675 14.62,-6.39 30.53,-9.585 47.72,-9.585 h 360.18 v 72.225 h -360.18 c -6.39,0 -12.4,1.192 -18.02,3.577 -5.63,2.385 -10.53,5.67 -14.72,9.855 -4.18,4.185 -7.47,9.09 -9.85,14.715 -2.39,5.625 -3.58,11.633 -3.58,18.023 v 141.21 c 0,5.94 1.3,11.677 3.92,17.212 2.61,5.535 6.05,10.44 10.32,14.715 4.28,4.275 9.18,7.718 14.72,10.328 5.53,2.61 11.27,3.915 17.21,3.915 h 360.18 v 72.225 h -360.18 c -8.55,0 -16.85,-0.9 -24.91,-2.7 -8.05,-1.8 -15.79,-4.343 -23.22,-7.628 -7.42,-3.285 -14.47,-7.222 -21.12,-11.812 -6.66,-4.59 -12.83,-9.63 -18.5,-15.12 -11.79,-11.43 -20.95,-24.593 -27.47,-39.488 -6.53,-14.895 -9.79,-30.982 -9.79,-48.262 v -127.98 c 0,-17.28 3.19,-33.21 9.59,-47.79 6.39,-14.58 15.61,-27.9 27.67,-39.96 z M 550,811.724 v -291.33 c 0,-6.48 1.035,-12.375 3.105,-17.685 2.07,-5.31 5.018,-9.878 8.842,-13.703 3.826,-3.825 8.393,-6.772 13.703,-8.842 5.31,-2.07 11.205,-3.105 17.685,-3.105 H 1033.7 v 72.225 H 628.975 v 76.545 h 355.59 v 72.225 h -355.59 v 84.78 H 1033.7 v 72.225 H 593.335 c -6.48,0 -12.375,-1.035 -17.685,-3.105 -5.31,-2.07 -9.877,-5.018 -13.703,-8.843 -3.824,-3.825 -6.772,-8.392 -8.842,-13.702 -2.07,-5.31 -3.105,-11.205 -3.105,-17.685 z"
       style="fill:#ee3da8;fill-opacity:1"
       id="path20"
       sodipodi:nodetypes="cccccccccccccscsccscccsscccsccscccccsscsssscssccccccccccsscss"
       transform="rotate(58.91552,620.97617,-564.77761)" />
    <path
       d="m -586.92839,-580.28591 c 0,27.596 -22.404,50 -50,50 h -182.082 c -27.596,0 -50,-22.404 -50,-50 v -50 c 0,-27.596 22.404,-50 50,-50 h 182.082 c 27.596,0 50,22.404 50,50 z m -240.67,-39.201 h -12.702 c -5.406,0 -9.794,4.389 -9.794,9.794 v 9.794 c 0,5.405 4.388,9.793 9.794,9.793 h 12.702 v 12.036 c 0,5.519 4.481,10 10,10 h 10 c 5.52,0 10,-4.481 10,-10 v -12.036 h 12.71 c 5.406,0 9.794,-4.388 9.794,-9.793 v -9.794 c 0,-5.405 -4.388,-9.794 -9.794,-9.794 h -12.71 v -12.036 c 0,-5.519 -4.48,-10 -10,-10 h -10 c -5.519,0 -10,4.481 -10,10 z m 146.752,-3.672 c 0,10.134 8.402,18.363 18.75,18.363 10.348,0 18.75,-8.229 18.75,-18.363 0,-10.135 -8.402,-18.364 -18.75,-18.364 -10.348,0 -18.75,8.229 -18.75,18.364 z m 37.5,36.726 c 0,10.135 8.402,18.363 18.75,18.363 10.348,0 18.75,-8.228 18.75,-18.363 0,-10.135 -8.402,-18.363 -18.75,-18.363 -10.348,0 -18.75,8.228 -18.75,18.363 z"
       fill="url(#_Linear1)"
       id="path23"
       style="fill:url(#linearGradient1108);fill-opacity:1" />
  </g>
  <g
     id="RETRO"
     transform="matrix(0.476929,0,0,0.476929,2,161.536)">
    <path
       d="m 603.159,933.621 c 0,3.216 -0.51,6.277 -1.531,9.184 -1.02,2.907 -2.489,5.335 -4.406,7.283 -1.175,1.206 -2.467,2.319 -3.874,3.34 -1.407,1.02 -2.961,1.886 -4.661,2.597 -1.701,0.712 -3.549,1.268 -5.544,1.67 -1.994,0.402 -4.229,0.603 -6.703,0.603 h -9.091 v 22.591 H 550 v -69.07 h 26.812 c 3.989,0 7.429,0.363 10.321,1.09 2.891,0.727 5.512,1.879 7.862,3.456 2.598,1.732 4.608,4.043 6.03,6.935 1.423,2.891 2.134,6.331 2.134,10.321 z m -17.812,0.417 c 0,-1.948 -0.464,-3.626 -1.392,-5.033 -0.928,-1.407 -2.041,-2.373 -3.34,-2.899 -1.639,-0.711 -3.208,-1.121 -4.708,-1.229 -1.5,-0.109 -3.533,-0.163 -6.1,-0.163 h -2.458 v 20.689 h 1.206 c 1.639,0 3.185,-0.016 4.638,-0.047 1.454,-0.03 2.722,-0.139 3.804,-0.324 0.928,-0.155 1.91,-0.456 2.946,-0.905 1.036,-0.448 1.832,-0.951 2.389,-1.507 1.175,-1.145 1.971,-2.335 2.388,-3.572 0.418,-1.237 0.627,-2.907 0.627,-5.01 z m 76.167,20.828 c 0,8.566 -2.343,15.315 -7.028,20.248 -4.685,4.932 -11.311,7.398 -19.877,7.398 -8.504,0 -15.114,-2.466 -19.83,-7.398 -4.716,-4.933 -7.074,-11.682 -7.074,-20.248 0,-8.659 2.358,-15.439 7.074,-20.341 4.716,-4.901 11.326,-7.352 19.83,-7.352 8.536,0 15.153,2.466 19.854,7.399 4.7,4.932 7.051,11.697 7.051,20.294 z m -16.653,0.092 c 0,-3.092 -0.255,-5.666 -0.766,-7.723 -0.51,-2.056 -1.213,-3.703 -2.11,-4.94 -0.959,-1.299 -2.041,-2.203 -3.247,-2.714 -1.206,-0.51 -2.582,-0.765 -4.129,-0.765 -1.453,0 -2.767,0.224 -3.942,0.673 -1.176,0.448 -2.258,1.306 -3.248,2.574 -0.927,1.206 -1.669,2.861 -2.226,4.963 -0.557,2.103 -0.835,4.747 -0.835,7.932 0,3.186 0.263,5.76 0.788,7.724 0.526,1.964 1.207,3.533 2.041,4.708 0.866,1.206 1.949,2.088 3.248,2.644 1.298,0.557 2.736,0.835 4.314,0.835 1.298,0 2.62,-0.278 3.966,-0.835 1.345,-0.556 2.419,-1.391 3.223,-2.505 0.959,-1.329 1.686,-2.93 2.181,-4.801 0.494,-1.871 0.742,-4.461 0.742,-7.77 z m 102.886,-26.162 -15.215,52.093 h -17.256 l -9.138,-33.677 -9.185,33.677 h -17.256 l -15.075,-52.093 h 17.07 l 7.978,34.466 9.881,-34.466 h 14.333 l 9.324,34.466 7.839,-34.466 z m 33.584,53.484 c -9.834,0 -17.372,-2.35 -22.614,-7.051 -5.242,-4.7 -7.863,-11.395 -7.863,-20.085 0,-8.504 2.444,-15.292 7.33,-20.364 4.886,-5.071 11.72,-7.607 20.503,-7.607 7.978,0 13.977,2.149 17.998,6.448 4.02,4.298 6.03,10.452 6.03,18.462 v 5.844 h -35.579 c 0.155,2.412 0.665,4.43 1.531,6.054 0.866,1.623 2.01,2.914 3.433,3.873 1.391,0.959 3.015,1.647 4.87,2.064 1.856,0.418 3.881,0.626 6.077,0.626 1.886,0 3.742,-0.208 5.566,-0.626 1.825,-0.417 3.495,-0.966 5.01,-1.647 1.33,-0.587 2.559,-1.221 3.688,-1.901 1.129,-0.681 2.049,-1.284 2.76,-1.809 h 1.716 v 13.405 c -1.33,0.526 -2.543,1.013 -3.641,1.461 -1.098,0.449 -2.606,0.905 -4.523,1.369 -1.763,0.464 -3.579,0.827 -5.45,1.09 -1.871,0.263 -4.152,0.394 -6.842,0.394 z m 5.38,-34.14 c -0.092,-3.433 -0.889,-6.046 -2.388,-7.84 -1.5,-1.793 -3.796,-2.69 -6.889,-2.69 -3.154,0 -5.62,0.943 -7.399,2.829 -1.778,1.887 -2.76,4.454 -2.945,7.701 z m 59.329,-3.99 h -1.345 c -0.619,-0.216 -1.515,-0.378 -2.691,-0.487 -1.175,-0.108 -2.474,-0.162 -3.896,-0.162 -1.701,0 -3.487,0.247 -5.358,0.742 -1.871,0.495 -3.688,1.083 -5.45,1.763 v 34.883 H 811.064 V 928.796 H 827.3 v 7.469 c 0.742,-0.681 1.77,-1.539 3.085,-2.575 1.314,-1.036 2.512,-1.863 3.594,-2.482 1.176,-0.711 2.544,-1.322 4.106,-1.832 1.561,-0.51 3.038,-0.765 4.43,-0.765 0.525,0 1.113,0.015 1.762,0.046 0.65,0.031 1.237,0.078 1.763,0.139 z m 32.888,38.13 c -9.834,0 -17.372,-2.35 -22.613,-7.051 -5.242,-4.7 -7.863,-11.395 -7.863,-20.085 0,-8.504 2.443,-15.292 7.329,-20.364 4.886,-5.071 11.721,-7.607 20.503,-7.607 7.979,0 13.978,2.149 17.998,6.448 4.02,4.298 6.03,10.452 6.03,18.462 v 5.844 h -35.578 c 0.155,2.412 0.665,4.43 1.531,6.054 0.866,1.623 2.01,2.914 3.432,3.873 1.392,0.959 3.015,1.647 4.871,2.064 1.855,0.418 3.881,0.626 6.077,0.626 1.886,0 3.741,-0.208 5.566,-0.626 1.824,-0.417 3.494,-0.966 5.01,-1.647 1.329,-0.587 2.559,-1.221 3.687,-1.901 1.129,-0.681 2.049,-1.284 2.76,-1.809 h 1.717 v 13.405 c -1.33,0.526 -2.544,1.013 -3.642,1.461 -1.097,0.449 -2.605,0.905 -4.522,1.369 -1.763,0.464 -3.58,0.827 -5.451,1.09 -1.871,0.263 -4.151,0.394 -6.842,0.394 z m 5.381,-34.14 c -0.093,-3.433 -0.889,-6.046 -2.389,-7.84 -1.5,-1.793 -3.796,-2.69 -6.888,-2.69 -3.155,0 -5.621,0.943 -7.399,2.829 -1.778,1.887 -2.76,4.454 -2.946,7.701 z m 71.714,32.749 h -16.235 v -5.428 c -1.052,0.866 -2.25,1.794 -3.595,2.784 -1.346,0.989 -2.528,1.731 -3.549,2.226 -1.299,0.619 -2.582,1.083 -3.85,1.392 -1.268,0.309 -2.783,0.464 -4.546,0.464 -5.937,0 -10.638,-2.459 -14.102,-7.376 -3.463,-4.917 -5.195,-11.488 -5.195,-19.714 0,-4.546 0.588,-8.489 1.763,-11.829 1.175,-3.34 2.799,-6.247 4.87,-8.721 1.887,-2.257 4.175,-4.043 6.866,-5.357 2.69,-1.314 5.535,-1.972 8.535,-1.972 2.721,0 4.956,0.286 6.703,0.859 1.747,0.572 3.78,1.461 6.1,2.667 v -22.173 h 16.235 z m -16.235,-14.38 V 940.95 c -0.804,-0.402 -1.856,-0.735 -3.155,-0.998 -1.299,-0.262 -2.412,-0.394 -3.34,-0.394 -3.896,0 -6.826,1.361 -8.79,4.082 -1.964,2.721 -2.945,6.525 -2.945,11.411 0,5.134 0.78,8.845 2.342,11.133 1.562,2.288 4.09,3.433 7.584,3.433 1.423,0 2.861,-0.279 4.314,-0.835 1.454,-0.557 2.784,-1.315 3.99,-2.273 z m 90.962,-12.061 c 0,-5.195 -0.79,-8.906 -2.36,-11.133 -1.58,-2.226 -4.01,-3.339 -7.29,-3.339 -1.45,0 -2.9,0.232 -4.33,0.695 -1.44,0.464 -2.86,1.16 -4.25,2.088 v 26.162 c 1.08,0.433 2.17,0.727 3.27,0.881 1.1,0.155 2.19,0.232 3.27,0.232 3.93,0 6.86,-1.299 8.79,-3.896 1.94,-2.598 2.9,-6.494 2.9,-11.69 z m 16.61,-0.324 c 0,8.287 -2.1,14.99 -6.31,20.108 -4.21,5.118 -9.42,7.677 -15.63,7.677 -2.6,0 -4.86,-0.294 -6.78,-0.881 -1.91,-0.588 -3.95,-1.5 -6.12,-2.737 l -0.69,2.598 h -15.543 v -72.178 h 16.233 v 25.513 c 2.38,-2.041 4.81,-3.696 7.29,-4.964 2.47,-1.268 5.33,-1.902 8.58,-1.902 6.06,0 10.73,2.366 14.03,7.098 3.29,4.731 4.94,11.287 4.94,19.668 z m 57.56,-25.328 -26.3,71.204 h -17.44 l 7.89,-20.364 -19.11,-50.84 h 17.07 l 10.94,32.657 10.25,-32.657 z m 34.84,52.093 v -69.07 h 46.71 v 13.174 h -29.45 V 937.1 h 27.13 v 13.173 h -27.13 v 17.442 h 29.45 v 13.174 z m 119.77,0 v -26.023 c 0,-2.567 -0.04,-4.732 -0.14,-6.494 -0.09,-1.763 -0.37,-3.201 -0.83,-4.314 -0.47,-1.114 -1.19,-1.925 -2.16,-2.436 -0.97,-0.51 -2.34,-0.765 -4.1,-0.765 -1.24,0 -2.46,0.271 -3.67,0.812 -1.21,0.541 -2.52,1.306 -3.94,2.296 v 36.924 h -16.33 v -26.023 c 0,-2.536 -0.05,-4.693 -0.16,-6.471 -0.11,-1.778 -0.4,-3.224 -0.86,-4.337 -0.46,-1.114 -1.18,-1.925 -2.16,-2.436 -0.97,-0.51 -2.32,-0.765 -4.06,-0.765 -1.33,0 -2.63,0.309 -3.89,0.928 -1.27,0.618 -2.51,1.345 -3.71,2.18 v 36.924 h -16.24 v -52.093 h 16.24 v 5.752 c 2.65,-2.257 5.16,-4.02 7.51,-5.288 2.35,-1.268 5,-1.902 7.93,-1.902 3.19,0 5.99,0.758 8.4,2.273 2.41,1.516 4.25,3.773 5.52,6.773 3.12,-2.907 6.07,-5.141 8.83,-6.703 2.77,-1.562 5.58,-2.343 8.42,-2.343 2.42,0 4.58,0.387 6.5,1.16 1.92,0.773 3.54,1.933 4.87,3.479 1.45,1.67 2.54,3.657 3.27,5.961 0.73,2.304 1.09,5.311 1.09,9.022 v 33.909 z m 76.73,0 h -16.24 v -5.752 c -2.82,2.35 -5.4,4.136 -7.75,5.357 -2.35,1.222 -5.15,1.833 -8.39,1.833 -5.17,0 -9.2,-1.632 -12.09,-4.894 -2.89,-3.263 -4.33,-8.172 -4.33,-14.728 v -33.909 h 16.32 v 25.838 c 0,2.69 0.07,4.886 0.21,6.587 0.14,1.701 0.47,3.139 1,4.314 0.5,1.082 1.26,1.902 2.3,2.458 1.03,0.557 2.48,0.835 4.33,0.835 1.15,0 2.5,-0.278 4.06,-0.835 1.56,-0.556 3.01,-1.314 4.34,-2.273 v -36.924 h 16.24 z m 28.66,0 h -16.23 v -72.178 h 16.23 z m 41.15,-13.592 v -10.854 c -2.75,0.278 -4.98,0.518 -6.68,0.719 -1.7,0.201 -3.37,0.595 -5.01,1.183 -1.43,0.495 -2.53,1.244 -3.32,2.249 -0.79,1.006 -1.18,2.343 -1.18,4.013 0,2.443 0.66,4.121 1.97,5.033 1.31,0.912 3.25,1.368 5.82,1.368 1.42,0 2.88,-0.324 4.36,-0.974 1.49,-0.649 2.83,-1.562 4.04,-2.737 z m 0,8.072 c -1.12,0.927 -2.11,1.762 -2.99,2.505 -0.89,0.742 -2.07,1.484 -3.55,2.226 -1.46,0.711 -2.87,1.253 -4.25,1.624 -1.37,0.371 -3.3,0.556 -5.77,0.556 -4.61,0 -8.44,-1.546 -11.48,-4.638 -3.05,-3.093 -4.57,-6.989 -4.57,-11.69 0,-3.865 0.77,-6.989 2.32,-9.37 1.54,-2.381 3.77,-4.268 6.68,-5.659 2.93,-1.423 6.44,-2.412 10.53,-2.969 4.08,-0.557 8.47,-0.989 13.17,-1.299 v -0.278 c 0,-2.876 -1.06,-4.863 -3.18,-5.961 -2.12,-1.098 -5.29,-1.646 -9.53,-1.646 -1.92,0 -4.16,0.347 -6.73,1.043 -2.56,0.696 -5.07,1.585 -7.51,2.667 h -1.39 v -12.57 c 1.6,-0.464 4.2,-1.013 7.79,-1.647 3.59,-0.634 7.21,-0.951 10.85,-0.951 8.97,0 15.51,1.492 19.6,4.476 4.1,2.985 6.15,7.538 6.15,13.661 v 35.44 h -16.14 z m 48.1,6.54 c -6.62,0 -11.43,-1.36 -14.45,-4.082 -3.02,-2.721 -4.52,-7.174 -4.52,-13.359 v -24.353 h -6.22 v -11.319 h 6.22 v -14.89 h 16.23 v 14.89 h 15.64 v 11.319 h -15.64 v 18.462 c 0,1.824 0.02,3.417 0.05,4.777 0.03,1.361 0.28,2.583 0.74,3.665 0.43,1.082 1.2,1.941 2.3,2.575 1.1,0.633 2.7,0.95 4.8,0.95 0.86,0 2,-0.185 3.41,-0.556 1.4,-0.371 2.39,-0.711 2.94,-1.021 h 1.4 v 11.458 c -1.77,0.464 -3.64,0.827 -5.62,1.09 -1.98,0.263 -4.4,0.394 -7.28,0.394 z m 35.76,-1.02 h -16.23 v -52.093 h 16.23 z m 0.47,-59.514 h -17.16 v -12.664 h 17.16 z m 61.97,33.491 c 0,8.566 -2.34,15.315 -7.03,20.248 -4.68,4.932 -11.31,7.398 -19.87,7.398 -8.51,0 -15.12,-2.466 -19.83,-7.398 -4.72,-4.933 -7.08,-11.682 -7.08,-20.248 0,-8.659 2.36,-15.439 7.08,-20.341 4.71,-4.901 11.32,-7.352 19.83,-7.352 8.53,0 15.15,2.466 19.85,7.399 4.7,4.932 7.05,11.697 7.05,20.294 z m -16.65,0.092 c 0,-3.092 -0.26,-5.666 -0.77,-7.723 -0.51,-2.056 -1.21,-3.703 -2.11,-4.94 -0.96,-1.299 -2.04,-2.203 -3.24,-2.714 -1.21,-0.51 -2.59,-0.765 -4.13,-0.765 -1.46,0 -2.77,0.224 -3.95,0.673 -1.17,0.448 -2.25,1.306 -3.24,2.574 -0.93,1.206 -1.67,2.861 -2.23,4.963 -0.56,2.103 -0.84,4.747 -0.84,7.932 0,3.186 0.27,5.76 0.79,7.724 0.53,1.964 1.21,3.533 2.04,4.708 0.87,1.206 1.95,2.088 3.25,2.644 1.3,0.557 2.74,0.835 4.32,0.835 1.29,0 2.62,-0.278 3.96,-0.835 1.35,-0.556 2.42,-1.391 3.23,-2.505 0.95,-1.329 1.68,-2.93 2.18,-4.801 0.49,-1.871 0.74,-4.461 0.74,-7.77 z m 74.08,25.931 h -16.33 v -25.838 c 0,-2.103 -0.09,-4.198 -0.26,-6.285 -0.17,-2.088 -0.48,-3.626 -0.95,-4.616 -0.55,-1.175 -1.36,-2.017 -2.41,-2.528 -1.05,-0.51 -2.46,-0.765 -4.22,-0.765 -1.33,0 -2.68,0.247 -4.04,0.742 -1.36,0.495 -2.81,1.283 -4.36,2.366 v 36.924 H 1561 v -52.093 h 16.23 v 5.752 c 2.66,-2.257 5.25,-4.02 7.77,-5.288 2.52,-1.268 5.32,-1.902 8.38,-1.902 5.31,0 9.38,1.678 12.2,5.033 2.81,3.356 4.22,8.219 4.22,14.589 z m 34.28,1.252 c -5.29,0 -9.94,-0.51 -13.94,-1.531 -4.01,-1.02 -7.73,-2.288 -11.16,-3.803 v -16.421 h 1.58 c 3.46,2.938 7.28,5.195 11.46,6.772 4.17,1.577 8.22,2.366 12.15,2.366 0.99,0 2.3,-0.108 3.92,-0.325 1.62,-0.216 2.93,-0.556 3.92,-1.02 1.21,-0.526 2.23,-1.26 3.06,-2.204 0.84,-0.943 1.25,-2.188 1.25,-3.734 0,-1.732 -0.68,-3.139 -2.04,-4.221 -1.36,-1.082 -2.98,-1.871 -4.87,-2.366 -2.35,-0.618 -4.86,-1.206 -7.54,-1.762 -2.67,-0.557 -5.17,-1.237 -7.49,-2.041 -5.35,-1.887 -9.18,-4.423 -11.5,-7.608 -2.32,-3.185 -3.48,-7.174 -3.48,-11.968 0,-6.463 2.74,-11.697 8.21,-15.702 5.47,-4.004 12.31,-6.007 20.5,-6.007 4.12,0 8.21,0.418 12.27,1.253 4.07,0.835 7.71,1.964 10.93,3.386 v 15.772 h -1.53 c -2.57,-2.196 -5.7,-4.052 -9.4,-5.567 -3.69,-1.515 -7.49,-2.273 -11.39,-2.273 -1.51,0 -2.87,0.108 -4.08,0.325 -1.2,0.216 -2.47,0.634 -3.8,1.252 -1.08,0.495 -2.02,1.23 -2.81,2.204 -0.79,0.974 -1.18,2.064 -1.18,3.27 0,1.763 0.63,3.162 1.88,4.198 1.25,1.036 3.67,1.971 7.26,2.806 2.32,0.526 4.55,1.036 6.7,1.531 2.15,0.495 4.45,1.175 6.89,2.041 4.79,1.732 8.36,4.059 10.69,6.981 2.34,2.923 3.5,6.781 3.5,11.574 0,6.865 -2.69,12.385 -8.09,16.56 -5.4,4.175 -12.69,6.262 -21.87,6.262 z m 57.84,-0.232 c -6.62,0 -11.43,-1.36 -14.45,-4.082 -3.01,-2.721 -4.52,-7.174 -4.52,-13.359 v -24.353 h -6.22 v -11.319 h 6.22 v -14.89 h 16.23 v 14.89 h 15.64 v 11.319 h -15.64 v 18.462 c 0,1.824 0.02,3.417 0.05,4.777 0.03,1.361 0.28,2.583 0.74,3.665 0.44,1.082 1.2,1.941 2.3,2.575 1.1,0.633 2.7,0.95 4.8,0.95 0.87,0 2,-0.185 3.41,-0.556 1.41,-0.371 2.39,-0.711 2.94,-1.021 h 1.4 v 11.458 c -1.77,0.464 -3.64,0.827 -5.62,1.09 -1.97,0.263 -4.4,0.394 -7.28,0.394 z m 48.24,-14.612 v -10.854 c -2.75,0.278 -4.98,0.518 -6.68,0.719 -1.7,0.201 -3.37,0.595 -5.01,1.183 -1.42,0.495 -2.52,1.244 -3.31,2.249 -0.79,1.006 -1.18,2.343 -1.18,4.013 0,2.443 0.65,4.121 1.97,5.033 1.31,0.912 3.25,1.368 5.82,1.368 1.42,0 2.87,-0.324 4.36,-0.974 1.48,-0.649 2.83,-1.562 4.03,-2.737 z m 0,8.072 c -1.11,0.927 -2.11,1.762 -2.99,2.505 -0.88,0.742 -2.06,1.484 -3.55,2.226 -1.45,0.711 -2.86,1.253 -4.24,1.624 -1.38,0.371 -3.3,0.556 -5.78,0.556 -4.6,0 -8.43,-1.546 -11.48,-4.638 -3.04,-3.093 -4.57,-6.989 -4.57,-11.69 0,-3.865 0.78,-6.989 2.32,-9.37 1.55,-2.381 3.78,-4.268 6.68,-5.659 2.94,-1.423 6.45,-2.412 10.53,-2.969 4.08,-0.557 8.48,-0.989 13.18,-1.299 v -0.278 c 0,-2.876 -1.06,-4.863 -3.18,-5.961 -2.12,-1.098 -5.3,-1.646 -9.53,-1.646 -1.92,0 -4.16,0.347 -6.73,1.043 -2.57,0.696 -5.07,1.585 -7.51,2.667 h -1.4 v -12.57 c 1.61,-0.464 4.21,-1.013 7.8,-1.647 3.58,-0.634 7.2,-0.951 10.85,-0.951 8.97,0 15.5,1.492 19.6,4.476 4.1,2.985 6.15,7.538 6.15,13.661 v 35.44 h -16.15 z m 48.11,6.54 c -6.62,0 -11.44,-1.36 -14.45,-4.082 -3.02,-2.721 -4.53,-7.174 -4.53,-13.359 v -24.353 h -6.21 v -11.319 h 6.21 v -14.89 h 16.24 v 14.89 h 15.63 v 11.319 h -15.63 v 18.462 c 0,1.824 0.02,3.417 0.05,4.777 0.03,1.361 0.27,2.583 0.74,3.665 0.43,1.082 1.2,1.941 2.3,2.575 1.09,0.633 2.69,0.95 4.8,0.95 0.86,0 2,-0.185 3.41,-0.556 1.4,-0.371 2.38,-0.711 2.94,-1.021 h 1.39 v 11.458 c -1.76,0.464 -3.63,0.827 -5.61,1.09 -1.98,0.263 -4.41,0.394 -7.28,0.394 z m 35.76,-1.02 h -16.23 v -52.093 h 16.23 z m 0.47,-59.514 h -17.17 v -12.664 h 17.17 z m 61.97,33.491 c 0,8.566 -2.35,15.315 -7.03,20.248 -4.68,4.932 -11.31,7.398 -19.88,7.398 -8.5,0 -15.11,-2.466 -19.83,-7.398 -4.71,-4.933 -7.07,-11.682 -7.07,-20.248 0,-8.659 2.36,-15.439 7.07,-20.341 4.72,-4.901 11.33,-7.352 19.83,-7.352 8.54,0 15.16,2.466 19.86,7.399 4.7,4.932 7.05,11.697 7.05,20.294 z m -16.66,0.092 c 0,-3.092 -0.25,-5.666 -0.76,-7.723 -0.51,-2.056 -1.21,-3.703 -2.11,-4.94 -0.96,-1.299 -2.04,-2.203 -3.25,-2.714 -1.2,-0.51 -2.58,-0.765 -4.13,-0.765 -1.45,0 -2.76,0.224 -3.94,0.673 -1.18,0.448 -2.26,1.306 -3.25,2.574 -0.93,1.206 -1.67,2.861 -2.22,4.963 -0.56,2.103 -0.84,4.747 -0.84,7.932 0,3.186 0.26,5.76 0.79,7.724 0.53,1.964 1.21,3.533 2.04,4.708 0.87,1.206 1.95,2.088 3.25,2.644 1.3,0.557 2.73,0.835 4.31,0.835 1.3,0 2.62,-0.278 3.97,-0.835 1.34,-0.556 2.42,-1.391 3.22,-2.505 0.96,-1.329 1.69,-2.93 2.18,-4.801 0.5,-1.871 0.74,-4.461 0.74,-7.77 z m 74.08,25.931 h -16.32 v -25.838 c 0,-2.103 -0.09,-4.198 -0.26,-6.285 -0.17,-2.088 -0.49,-3.626 -0.95,-4.616 -0.56,-1.175 -1.36,-2.017 -2.41,-2.528 -1.05,-0.51 -2.46,-0.765 -4.22,-0.765 -1.33,0 -2.68,0.247 -4.04,0.742 -1.36,0.495 -2.81,1.283 -4.36,2.366 v 36.924 h -16.23 v -52.093 h 16.23 v 5.752 c 2.66,-2.257 5.25,-4.02 7.77,-5.288 2.52,-1.268 5.31,-1.902 8.37,-1.902 5.32,0 9.39,1.678 12.2,5.033 2.82,3.356 4.22,8.219 4.22,14.589 z m 41.66,-24.029 h -30.75 v -12.895 h 30.75 z m 73.94,-10.437 c 0,6.433 -1.41,12.192 -4.22,17.279 -2.82,5.087 -6.37,8.992 -10.67,11.713 -3.59,2.319 -7.49,3.811 -11.71,4.476 -4.22,0.665 -8.72,0.998 -13.48,0.998 h -21.61 v -69.07 h 21.43 c 4.85,0 9.4,0.309 13.63,0.928 4.24,0.618 8.21,2.118 11.92,4.499 4.55,2.907 8.14,6.827 10.77,11.759 2.63,4.933 3.94,10.739 3.94,17.418 z m -17.81,-0.139 c 0,-4.546 -0.78,-8.434 -2.34,-11.666 -1.57,-3.232 -3.97,-5.76 -7.22,-7.584 -2.35,-1.299 -4.81,-2.01 -7.4,-2.134 -2.58,-0.124 -5.66,-0.186 -9.25,-0.186 h -0.33 v 43.233 h 0.33 c 3.9,0 7.18,-0.07 9.86,-0.209 2.67,-0.139 5.21,-0.966 7.63,-2.482 2.84,-1.793 5.01,-4.267 6.49,-7.422 1.48,-3.154 2.23,-7.004 2.23,-11.55 z m 28.06,34.605 v -69.07 h 46.71 v 13.174 H 2097 V 937.1 h 27.13 v 13.173 H 2097 v 17.442 h 29.45 v 13.174 z M 2237.26,340.74 c -11.79,-11.43 -20.95,-24.593 -27.47,-39.488 C 2203.26,286.357 2200,270.27 2200,252.99 V 125.01 c 0,-17.28 3.2,-33.21 9.59,-47.79 6.38,-14.58 15.61,-27.9 27.67,-39.96 12.06,-12.06 25.4,-21.285 40.03,-27.675 C 2291.91,3.195 2307.82,0 2325.01,0 h 233.82 c 17.19,0 33.1,3.195 47.72,9.585 14.63,6.39 27.97,15.615 40.03,27.675 12.06,12.06 21.29,25.38 27.68,39.96 6.38,14.58 9.58,30.51 9.58,47.79 v 127.98 c 0,17.28 -3.26,33.367 -9.79,48.262 -6.52,14.895 -15.68,28.058 -27.47,39.488 -5.67,5.49 -11.84,10.53 -18.49,15.12 -6.66,4.59 -13.71,8.527 -21.13,11.812 -7.43,3.285 -15.17,5.828 -23.22,7.628 -8.06,1.8 -16.36,2.7 -24.91,2.7 h -233.82 c -8.55,0 -16.85,-0.9 -24.91,-2.7 -8.05,-1.8 -15.79,-4.343 -23.22,-7.628 -7.42,-3.285 -14.47,-7.222 -21.12,-11.812 -6.66,-4.59 -12.83,-9.63 -18.5,-15.12 z m 41.58,-81.135 c 0,5.94 1.3,11.677 3.92,17.212 2.61,5.535 6.05,10.44 10.32,14.715 4.28,4.275 9.18,7.718 14.72,10.328 5.53,2.61 11.27,3.915 17.21,3.915 h 233.82 c 5.94,0 11.68,-1.305 17.21,-3.915 5.54,-2.61 10.44,-6.053 14.72,-10.328 4.27,-4.275 7.71,-9.18 10.33,-14.715 2.61,-5.535 3.91,-11.272 3.91,-17.212 v -141.21 c 0,-6.39 -1.19,-12.398 -3.58,-18.022 -2.38,-5.626 -5.67,-10.53 -9.85,-14.715 -4.19,-4.185 -9.09,-7.471 -14.72,-9.855 -5.62,-2.386 -11.63,-3.578 -18.02,-3.578 h -233.82 c -6.39,0 -12.4,1.192 -18.02,3.578 -5.63,2.384 -10.53,5.67 -14.72,9.855 -4.18,4.185 -7.47,9.089 -9.85,14.715 -2.39,5.624 -3.58,11.632 -3.58,18.022 z M 1693.34,0 h 337.09 c 12.69,0 24.28,1.53 34.76,4.59 10.49,3.06 19.94,7.245 28.35,12.555 8.42,5.31 15.75,11.61 22.01,18.9 6.25,7.29 11.45,15.187 15.59,23.693 4.14,8.504 7.25,17.414 9.31,26.729 2.08,9.316 3.06,18.698 2.98,28.148 0,9.63 -1.04,19.17 -3.11,28.62 -2.07,9.45 -5.18,18.427 -9.31,26.932 -4.14,8.505 -9.34,16.358 -15.6,23.558 -6.25,7.2 -13.56,13.432 -21.94,18.697 -8.36,5.265 -17.79,9.383 -28.28,12.353 -10.48,2.97 -22.07,4.455 -34.76,4.455 h -1.49 L 2150.45,378 h -97.88 L 1931.07,229.23 H 1728.98 V 378 h -78.85 L 1650,43.335 c 0,-6.48 1.04,-12.375 3.11,-17.685 2.06,-5.31 5.01,-9.878 8.84,-13.702 3.82,-3.826 8.39,-6.773 13.7,-8.843 C 1680.96,1.035 1686.86,0 1693.34,0 Z m 335.6,157.005 c 5.86,0 10.98,-1.215 15.4,-3.645 4.4,-2.43 8.09,-5.625 11.07,-9.585 2.97,-3.96 5.19,-8.483 6.68,-13.568 1.48,-5.085 2.25,-10.282 2.29,-15.592 0.05,-5.31 -0.65,-10.508 -2.09,-15.593 -1.44,-5.085 -3.62,-9.607 -6.55,-13.567 -2.92,-3.96 -6.61,-7.155 -11.07,-9.585 -4.45,-2.43 -9.69,-3.645 -15.73,-3.645 h -299.96 v 84.78 z M 1100,72.225 V 0 h 483.84 V 72.225 H 1381.48 V 378 H 1302.5 V 72.225 Z M 550,334.665 V 43.335 c 0,-6.48 1.035,-12.375 3.105,-17.685 2.07,-5.31 5.018,-9.878 8.842,-13.703 C 565.773,8.122 570.34,5.175 575.65,3.105 580.96,1.035 586.855,0 593.335,0 H 1033.7 V 72.225 H 628.975 v 76.545 h 355.59 v 72.225 h -355.59 v 84.78 H 1033.7 V 378 H 593.335 c -6.48,0 -12.375,-1.035 -17.685,-3.105 -5.31,-2.07 -9.877,-5.018 -13.703,-8.843 -3.824,-3.825 -6.772,-8.392 -8.842,-13.702 C 551.035,347.04 550,341.145 550,334.665 Z M 43.335,0 H 380.43 c 12.69,0 24.278,1.53 34.762,4.59 10.486,3.06 19.936,7.245 28.35,12.555 8.416,5.31 15.751,11.61 22.005,18.9 6.256,7.29 11.453,15.187 15.593,23.692 4.14,8.505 7.245,17.415 9.315,26.73 2.07,9.315 3.06,18.698 2.97,28.148 0,9.63 -1.035,19.17 -3.105,28.62 -2.07,9.45 -5.175,18.427 -9.315,26.932 -4.14,8.505 -9.337,16.358 -15.593,23.558 -6.254,7.2 -13.567,13.432 -21.937,18.697 -8.37,5.265 -17.797,9.383 -28.283,12.353 -10.484,2.97 -22.072,4.455 -34.762,4.455 h -1.485 L 500.445,378 H 402.57 L 281.07,229.23 H 78.975 V 378 H 0.135 L 0,43.335 C 0,36.855 1.035,30.96 3.105,25.65 5.175,20.34 8.123,15.772 11.947,11.947 15.773,8.122 20.34,5.175 25.65,3.105 30.96,1.035 36.855,0 43.335,0 Z m 335.61,157.005 c 5.85,0 10.98,-1.215 15.39,-3.645 4.41,-2.43 8.1,-5.625 11.07,-9.585 2.97,-3.96 5.197,-8.483 6.682,-13.568 1.485,-5.085 2.251,-10.282 2.295,-15.592 0.046,-5.31 -0.652,-10.508 -2.092,-15.593 -1.44,-5.085 -3.622,-9.607 -6.548,-13.567 -2.924,-3.96 -6.615,-7.155 -11.07,-9.585 -4.455,-2.43 -9.697,-3.645 -15.727,-3.645 H 78.975 v 84.78 z"
       fill="url(#_Linear2)"
       id="path26"
       style="fill:url(#_Linear2)" />
  </g>
  <path
     d="m 263.33463,576.94427 c -5.98408,2.18717 -11.95654,3.21194 -17.91701,3.07451 -5.96049,-0.13747 -11.85234,-1.55912 -17.67589,-4.26513 l -95.26528,-44.26659 11.36949,-24.46804 95.26527,44.26659 c 2.16478,1.00589 4.38744,1.54769 6.66865,1.62485 2.28089,0.0778 4.45984,-0.26326 6.53642,-1.02223 2.07658,-0.75898 3.96143,-1.90323 5.65502,-3.43372 1.69329,-1.52985 3.04323,-3.3774 4.04913,-5.54217 l 45.04517,-96.94087 c 0.93506,-2.01232 1.39621,-4.16165 1.38332,-6.44763 -0.0129,-2.28598 -0.40717,-4.48966 -1.18247,-6.61088 -0.77531,-2.12122 -1.89516,-4.05944 -3.35943,-5.81493 -1.46426,-1.7555 -3.20238,-3.10071 -5.21471,-4.03578 l -52.26536,-25.51463 9.15589,-20.61877 54.47894,21.66536 c 2.96789,1.18028 5.56737,2.95771 8.01287,4.83549 2.44547,1.87779 4.66744,3.95738 6.66572,6.23908 1.9983,2.2817 3.76437,4.7245 5.29807,7.32786 1.53369,2.60337 2.82886,5.2813 3.8855,8.03373 2.19488,5.72815 3.22516,11.62857 3.09088,17.70179 -0.13422,6.07321 -1.56133,12.03706 -4.28151,17.8911 l -42.96254,92.45886 c -2.72017,5.85404 -6.31022,10.74779 -10.77013,14.68122 -4.45993,3.93346 -9.68193,6.99376 -15.66601,9.18093 z"
     style="fill:#ff0000;fill-opacity:1;stroke-width:0.783266"
     id="path443"
     sodipodi:nodetypes="sssccscscssssscccsssscsssss" />
  <path
     d="m 146.72298,508.32053 c -1.97653,-1.00853 -3.64609,-4.86099 -5.04472,-6.66922 -1.3986,-1.80825 -2.44616,-3.7867 -3.14282,-5.93504 -0.69665,-2.14833 -1.0092,-4.36488 -0.93788,-6.64978 0.0713,-2.2849 0.61113,-4.41544 1.61967,-6.39198 l 37.10949,-64.68452 -21.54653,-15.10164 -39.5957,67.5233 c -1.45168,2.84501 -2.56176,5.7603 -3.33047,8.74619 -0.76869,2.98591 -1.23699,5.99299 -1.40457,9.02139 -0.16759,3.0284 -0.053,6.04057 0.3435,9.03599 0.39653,2.99541 1.02685,5.90254 1.89095,8.72136 1.80152,5.86376 4.62636,11.14549 8.47484,15.84562 3.84843,4.70016 8.64765,8.51744 14.39755,11.45136"
     style="fill:#ff0000;fill-opacity:1;stroke-width:0.783266"
     id="path488"
     sodipodi:nodetypes="csssscccssscsc" />
  <path
     d="m 255.2543,376.79884 c -0.85886,1.25993 -16.68448,30.92015 -25.99996,46.88541 -3.02319,5.18127 -3.2643,8.53946 -12.54998,10.67764 -8.36612,1.92643 -12.21938,-1.81864 -18.15176,-5.00418 -14.76684,-7.92943 -42.77674,-26.4305 -42.77674,-26.4305 l -11.12429,18.40514 c 0,0 45.86859,29.69833 55.56402,35.71565 9.69545,6.0173 31.22647,1.59157 38.16445,-9.68274 8.57882,-13.94072 33.59024,-61.31463 35.10542,-62.98252"
     style="fill:#ff0001;fill-opacity:1;stroke-width:0.538242"
     id="path488-1"
     sodipodi:nodetypes="cssscczsc" />
  <g
     id="g1477"
     transform="matrix(1.5246795,0,0,1.5246795,428.91288,-25.416714)">
	
</g>
</svg>
